G04 DipTrace 3.3.1.3*
G04 BottomSilk.GBO*
%MOIN*%
G04 #@! TF.FileFunction,Legend,Bot*
G04 #@! TF.Part,Single*
%ADD10C,0.007874*%
%ADD17C,0.003937*%
%ADD32C,0.006*%
%ADD68C,0.00772*%
%ADD70C,0.004374*%
%ADD71C,0.004632*%
%FSLAX26Y26*%
G04*
G70*
G90*
G75*
G01*
G04 BotSilk*
%LPD*%
X3337944Y1406249D2*
D10*
G02X3337944Y1406249I43307J0D01*
G01*
X3444193D2*
G02X3444193Y1406249I43307J0D01*
G01*
X3344252Y345436D2*
D32*
Y235430D1*
X3424252Y345436D2*
G03X3414252Y355433I-9992J5D01*
G01*
Y225433D2*
G03X3424252Y235430I8J9992D01*
G01*
X3354252Y225433D2*
G02X3344252Y235430I-8J9992D01*
G01*
Y345436D2*
G02X3354252Y355433I9992J5D01*
G01*
X3414252D1*
X3354252Y225433D2*
X3414252D1*
X3424252Y235430D2*
Y345436D1*
X3144252Y2300003D2*
Y2189997D1*
X3224252Y2300003D2*
G03X3214252Y2310000I-9992J5D01*
G01*
Y2180000D2*
G03X3224252Y2189997I8J9992D01*
G01*
X3154252Y2180000D2*
G02X3144252Y2189997I-8J9992D01*
G01*
Y2300003D2*
G02X3154252Y2310000I9992J5D01*
G01*
X3214252D1*
X3154252Y2180000D2*
X3214252D1*
X3224252Y2189997D2*
Y2300003D1*
X630498Y503751D2*
X740504D1*
X630498Y583751D2*
G03X620501Y573751I-5J-9992D01*
G01*
X750501D2*
G03X740504Y583751I-9992J8D01*
G01*
X750501Y513751D2*
G02X740504Y503751I-9992J-8D01*
G01*
X630498D2*
G02X620501Y513751I-5J9992D01*
G01*
Y573751D1*
X750501Y513751D2*
Y573751D1*
X740504Y583751D2*
X630498D1*
X630500Y947500D2*
X740506D1*
X630500Y1027500D2*
G03X620503Y1017500I-5J-9992D01*
G01*
X750503D2*
G03X740506Y1027500I-9992J8D01*
G01*
X750503Y957500D2*
G02X740506Y947500I-9992J-8D01*
G01*
X630500D2*
G02X620503Y957500I-5J9992D01*
G01*
Y1017500D1*
X750503Y957500D2*
Y1017500D1*
X740506Y1027500D2*
X630500D1*
Y253751D2*
X740506D1*
X630500Y333751D2*
G03X620503Y323751I-5J-9992D01*
G01*
X750503D2*
G03X740506Y333751I-9992J8D01*
G01*
X750503Y263751D2*
G02X740506Y253751I-9992J-8D01*
G01*
X630500D2*
G02X620503Y263751I-5J9992D01*
G01*
Y323751D1*
X750503Y263751D2*
Y323751D1*
X740506Y333751D2*
X630500D1*
Y1216249D2*
X740506D1*
X630500Y1296249D2*
G03X620503Y1286249I-5J-9992D01*
G01*
X750503D2*
G03X740506Y1296249I-9992J8D01*
G01*
X750503Y1226249D2*
G02X740506Y1216249I-9992J-8D01*
G01*
X630500D2*
G02X620503Y1226249I-5J9992D01*
G01*
Y1286249D1*
X750503Y1226249D2*
Y1286249D1*
X740506Y1296249D2*
X630500D1*
X272500Y3716254D2*
Y3606248D1*
X352500Y3716254D2*
G03X342500Y3726251I-9992J5D01*
G01*
Y3596251D2*
G03X352500Y3606248I8J9992D01*
G01*
X282500Y3596251D2*
G02X272500Y3606248I-8J9992D01*
G01*
Y3716254D2*
G02X282500Y3726251I9992J5D01*
G01*
X342500D1*
X282500Y3596251D2*
X342500D1*
X352500Y3606248D2*
Y3716254D1*
X1193751Y2850000D2*
D17*
X1906249D1*
Y2562500D1*
X1193751D1*
Y2850000D1*
X839125Y630665D2*
D68*
X817570D1*
X810440Y633042D1*
X808009Y635474D1*
X805632Y640227D1*
Y647412D1*
X808009Y652165D1*
X810440Y654597D1*
X817570Y656974D1*
X839125D1*
Y606734D1*
X790193Y656974D2*
X787816Y654597D1*
X785384Y656974D1*
X787816Y659406D1*
X790193Y656974D1*
X787816Y640227D2*
Y606734D1*
X769945Y640227D2*
Y606734D1*
Y630665D2*
X762760Y637850D1*
X757952Y640227D1*
X750822D1*
X746013Y637850D1*
X743637Y630665D1*
Y606734D1*
X650912Y649789D2*
X653288Y654542D1*
X660473Y656918D1*
X665226D1*
X672411Y654542D1*
X677220Y647357D1*
X679596Y635419D1*
Y623480D1*
X677220Y613919D1*
X672411Y609110D1*
X665226Y606734D1*
X662850D1*
X655720Y609110D1*
X650912Y613919D1*
X648535Y621104D1*
Y623480D1*
X650912Y630665D1*
X655720Y635419D1*
X662850Y637795D1*
X665226D1*
X672411Y635419D1*
X677220Y630665D1*
X679596Y623480D1*
X555810Y656918D2*
X579686D1*
X582063Y635419D1*
X579686Y637795D1*
X572501Y640227D1*
X565372D1*
X558187Y637795D1*
X553378Y633042D1*
X551001Y625857D1*
Y621104D1*
X553378Y613919D1*
X558187Y609110D1*
X565372Y606734D1*
X572501D1*
X579686Y609110D1*
X582063Y611542D1*
X584495Y616295D1*
X535562Y640227D2*
X521192Y606734D1*
X506877Y640227D1*
X857651Y918164D2*
X836096D1*
X828967Y920541D1*
X826535Y922973D1*
X824158Y927726D1*
Y934911D1*
X826535Y939664D1*
X828967Y942096D1*
X836096Y944472D1*
X857651D1*
Y894232D1*
X808719Y944472D2*
X806342Y942096D1*
X803910Y944472D1*
X806342Y946904D1*
X808719Y944472D1*
X806342Y927726D2*
Y894232D1*
X788471Y927726D2*
Y894232D1*
Y918164D2*
X781286Y925349D1*
X776478Y927726D1*
X769348D1*
X764539Y925349D1*
X762163Y918164D1*
Y894232D1*
X698123Y934856D2*
X693314Y937287D1*
X686129Y944417D1*
Y894232D1*
X586219Y932534D2*
X588596Y937287D1*
X593404Y942096D1*
X598157Y944472D1*
X607719D1*
X612527Y942096D1*
X617280Y937287D1*
X619712Y932534D1*
X622089Y925349D1*
Y913356D1*
X619712Y906226D1*
X617280Y901417D1*
X612527Y896664D1*
X607719Y894232D1*
X598157D1*
X593404Y896664D1*
X588596Y901417D1*
X586219Y906226D1*
Y913356D1*
X598157D1*
X537286Y944472D2*
Y894232D1*
X570780Y944472D1*
Y894232D1*
X521847Y944472D2*
Y894232D1*
X505100D1*
X497915Y896664D1*
X493107Y901417D1*
X490730Y906226D1*
X488354Y913356D1*
Y925349D1*
X490730Y932534D1*
X493107Y937287D1*
X497915Y942096D1*
X505100Y944472D1*
X521847D1*
X857651Y205665D2*
X836096D1*
X828967Y208042D1*
X826535Y210474D1*
X824158Y215227D1*
Y222412D1*
X826535Y227165D1*
X828967Y229597D1*
X836096Y231974D1*
X857651D1*
Y181734D1*
X808719Y231974D2*
X806342Y229597D1*
X803910Y231974D1*
X806342Y234406D1*
X808719Y231974D1*
X806342Y215227D2*
Y181734D1*
X788471Y215227D2*
Y181734D1*
Y205665D2*
X781286Y212850D1*
X776478Y215227D1*
X769348D1*
X764539Y212850D1*
X762163Y205665D1*
Y181734D1*
X698123Y222357D2*
X693314Y224789D1*
X686129Y231918D1*
Y181734D1*
X586219Y220036D2*
X588596Y224789D1*
X593404Y229597D1*
X598157Y231974D1*
X607719D1*
X612527Y229597D1*
X617280Y224789D1*
X619712Y220036D1*
X622089Y212850D1*
Y200857D1*
X619712Y193727D1*
X617280Y188919D1*
X612527Y184166D1*
X607719Y181734D1*
X598157D1*
X593404Y184166D1*
X588596Y188919D1*
X586219Y193727D1*
Y200857D1*
X598157D1*
X537286Y231974D2*
Y181734D1*
X570780Y231974D1*
Y181734D1*
X521847Y231974D2*
Y181734D1*
X505100D1*
X497915Y184166D1*
X493107Y188919D1*
X490730Y193727D1*
X488354Y200857D1*
Y212850D1*
X490730Y220036D1*
X493107Y224789D1*
X497915Y229597D1*
X505100Y231974D1*
X521847D1*
X839127Y1343164D2*
X817571D1*
X810442Y1345541D1*
X808010Y1347973D1*
X805633Y1352726D1*
Y1359911D1*
X808010Y1364664D1*
X810442Y1367096D1*
X817571Y1369472D1*
X839127D1*
Y1319232D1*
X790194Y1369472D2*
X787817Y1367096D1*
X785386Y1369472D1*
X787817Y1371904D1*
X790194Y1369472D1*
X787817Y1352726D2*
Y1319232D1*
X769946Y1352726D2*
Y1319232D1*
Y1343164D2*
X762761Y1350349D1*
X757953Y1352726D1*
X750823D1*
X746015Y1350349D1*
X743638Y1343164D1*
Y1319232D1*
X650913Y1362287D2*
X653290Y1367041D1*
X660475Y1369417D1*
X665228D1*
X672413Y1367041D1*
X677221Y1359856D1*
X679598Y1347917D1*
Y1335979D1*
X677221Y1326417D1*
X672413Y1321609D1*
X665228Y1319232D1*
X662851D1*
X655721Y1321609D1*
X650913Y1326417D1*
X648536Y1333602D1*
Y1335979D1*
X650913Y1343164D1*
X655721Y1347917D1*
X662851Y1350294D1*
X665228D1*
X672413Y1347917D1*
X677221Y1343164D1*
X679598Y1335979D1*
X555811Y1369417D2*
X579688D1*
X582064Y1347917D1*
X579688Y1350294D1*
X572503Y1352726D1*
X565373D1*
X558188Y1350294D1*
X553379Y1345541D1*
X551003Y1338356D1*
Y1333602D1*
X553379Y1326417D1*
X558188Y1321609D1*
X565373Y1319232D1*
X572503D1*
X579688Y1321609D1*
X582064Y1324041D1*
X584496Y1328794D1*
X535564Y1352726D2*
X521193Y1319232D1*
X506879Y1352726D1*
X1963111Y2328934D2*
D70*
Y2346125D1*
X1980311Y2347836D1*
X1978409Y2346125D1*
X1976464Y2340952D1*
Y2335818D1*
X1978409Y2330645D1*
X1982212Y2327183D1*
X1987960Y2325472D1*
X1991763D1*
X1997511Y2327183D1*
X2001357Y2330645D1*
X2003259Y2335818D1*
Y2340951D1*
X2001357Y2346125D1*
X1999412Y2347836D1*
X1995609Y2349587D1*
X1976464Y2317598D2*
X2003259Y2307251D1*
X1976464Y2296945D1*
X2472449Y2323760D2*
X2468647Y2325471D1*
X2464800Y2328933D1*
X2462899Y2332356D1*
Y2339240D1*
X2464800Y2342702D1*
X2468647Y2346124D1*
X2472449Y2347875D1*
X2478197Y2349587D1*
X2487792D1*
X2493496Y2347875D1*
X2497343Y2346124D1*
X2501145Y2342702D1*
X2503091Y2339240D1*
Y2332356D1*
X2501145Y2328933D1*
X2497343Y2325471D1*
X2493496Y2323760D1*
X2487792D1*
Y2332356D1*
X2462899Y2291771D2*
X2503091D1*
X2462899Y2315886D1*
X2503091D1*
X2462899Y2283897D2*
X2503091D1*
Y2271839D1*
X2501145Y2266666D1*
X2497343Y2263204D1*
X2493496Y2261493D1*
X2487792Y2259782D1*
X2478197D1*
X2472449Y2261493D1*
X2468647Y2263204D1*
X2464800Y2266666D1*
X2462899Y2271839D1*
Y2283897D1*
X3172448Y1611091D2*
X3168645Y1612802D1*
X3164799Y1616264D1*
X3162897Y1619686D1*
Y1626571D1*
X3164799Y1630033D1*
X3168645Y1633455D1*
X3172448Y1635206D1*
X3178196Y1636917D1*
X3187791D1*
X3193495Y1635206D1*
X3197341Y1633455D1*
X3201144Y1630033D1*
X3203089Y1626571D1*
Y1619686D1*
X3201144Y1616264D1*
X3197341Y1612802D1*
X3193495Y1611091D1*
X3187791D1*
Y1619686D1*
X3162897Y1579102D2*
X3203089D1*
X3162897Y1603217D1*
X3203089D1*
X3162897Y1571228D2*
X3203089D1*
Y1559170D1*
X3201144Y1553997D1*
X3197341Y1550535D1*
X3193495Y1548824D1*
X3187791Y1547113D1*
X3178196D1*
X3172448Y1548824D1*
X3168645Y1550535D1*
X3164799Y1553997D1*
X3162897Y1559170D1*
Y1571228D1*
X3772448Y1611091D2*
X3768645Y1612802D1*
X3764799Y1616264D1*
X3762897Y1619686D1*
Y1626571D1*
X3764799Y1630033D1*
X3768645Y1633455D1*
X3772448Y1635206D1*
X3778196Y1636917D1*
X3787791D1*
X3793495Y1635206D1*
X3797341Y1633455D1*
X3801144Y1630033D1*
X3803089Y1626571D1*
Y1619686D1*
X3801144Y1616264D1*
X3797341Y1612802D1*
X3793495Y1611091D1*
X3787791D1*
Y1619686D1*
X3762897Y1579102D2*
X3803089D1*
X3762897Y1603217D1*
X3803089D1*
X3762897Y1571228D2*
X3803089D1*
Y1559170D1*
X3801144Y1553997D1*
X3797341Y1550535D1*
X3793495Y1548824D1*
X3787791Y1547113D1*
X3778196D1*
X3772448Y1548824D1*
X3768645Y1550535D1*
X3764799Y1553997D1*
X3762897Y1559170D1*
Y1571228D1*
X3766024Y2349037D2*
Y2330134D1*
X3781323Y2340441D1*
Y2335268D1*
X3783224Y2331846D1*
X3785125Y2330134D1*
X3790873Y2328384D1*
X3794676D1*
X3800424Y2330134D1*
X3804271Y2333557D1*
X3806172Y2338730D1*
Y2343903D1*
X3804271Y2349037D1*
X3802325Y2350748D1*
X3798523Y2352499D1*
X3802325Y2318798D2*
X3804271Y2320510D1*
X3806172Y2318798D1*
X3804271Y2317047D1*
X3802325Y2318798D1*
X3766024Y2305711D2*
Y2286809D1*
X3781323Y2297116D1*
Y2291943D1*
X3783224Y2288520D1*
X3785125Y2286809D1*
X3790873Y2285058D1*
X3794676D1*
X3800424Y2286809D1*
X3804271Y2290231D1*
X3806172Y2295405D1*
Y2300578D1*
X3804271Y2305711D1*
X3802325Y2307422D1*
X3798523Y2309173D1*
X3779377Y2277184D2*
X3806172Y2266838D1*
X3779377Y2256531D1*
X3443519Y2148028D2*
D71*
Y2130817D1*
X3449276Y2143750D2*
X3437789Y2135128D1*
Y2143750D2*
X3449276Y2135128D1*
X3414301Y2150200D2*
X3416583Y2153085D1*
X3420032Y2154511D1*
X3424621D1*
X3428070Y2153085D1*
X3430378Y2150200D1*
Y2147348D1*
X3429211Y2144463D1*
X3428070Y2143037D1*
X3425788Y2141611D1*
X3418891Y2138726D1*
X3416583Y2137300D1*
X3415442Y2135841D1*
X3414301Y2132989D1*
Y2128678D1*
X3416583Y2125826D1*
X3420032Y2124367D1*
X3424621D1*
X3428070Y2125826D1*
X3430378Y2128678D1*
X3401160Y2144463D2*
X3403441Y2143037D1*
X3405750Y2140152D1*
X3406890Y2135841D1*
Y2132989D1*
X3405750Y2128678D1*
X3403441Y2125826D1*
X3401160Y2124367D1*
X3397711D1*
X3395403Y2125826D1*
X3393122Y2128678D1*
X3391954Y2132989D1*
Y2135841D1*
X3393122Y2140152D1*
X3395403Y2143037D1*
X3397711Y2144463D1*
X3401160D1*
X3384543Y2154511D2*
Y2124367D1*
X3363364Y2154511D2*
Y2124367D1*
Y2140152D2*
X3365645Y2143037D1*
X3367953Y2144463D1*
X3371402D1*
X3373684Y2143037D1*
X3375992Y2140152D1*
X3377133Y2135841D1*
Y2132989D1*
X3375992Y2128678D1*
X3373684Y2125826D1*
X3371402Y2124367D1*
X3367953D1*
X3365645Y2125826D1*
X3363364Y2128678D1*
X3355953Y2135841D2*
X3342184D1*
Y2138726D1*
X3343325Y2141611D1*
X3344466Y2143037D1*
X3346774Y2144463D1*
X3350223D1*
X3352504Y2143037D1*
X3354812Y2140152D1*
X3355953Y2135841D1*
Y2132989D1*
X3354812Y2128678D1*
X3352504Y2125826D1*
X3350223Y2124367D1*
X3346774D1*
X3344466Y2125826D1*
X3342184Y2128678D1*
X3334773Y2144463D2*
Y2124367D1*
Y2135841D2*
X3333606Y2140152D1*
X3331325Y2143037D1*
X3329017Y2144463D1*
X3325568D1*
X3285649Y2154511D2*
X3287931D1*
X3290239Y2153085D1*
X3291380Y2148774D1*
Y2124367D1*
X3294828Y2144463D2*
X3286790D1*
X3272508D2*
X3274790Y2143037D1*
X3277098Y2140152D1*
X3278238Y2135841D1*
Y2132989D1*
X3277098Y2128678D1*
X3274790Y2125826D1*
X3272508Y2124367D1*
X3269059D1*
X3266751Y2125826D1*
X3264470Y2128678D1*
X3263302Y2132989D1*
Y2135841D1*
X3264470Y2140152D1*
X3266751Y2143037D1*
X3269059Y2144463D1*
X3272508D1*
X3255892D2*
Y2124367D1*
Y2135841D2*
X3254724Y2140152D1*
X3252443Y2143037D1*
X3250135Y2144463D1*
X3246686D1*
X3213639Y2154478D2*
X3201037D1*
X3207908Y2143004D1*
X3204459D1*
X3202178Y2141578D1*
X3201037Y2140152D1*
X3199870Y2135841D1*
Y2132989D1*
X3201037Y2128678D1*
X3203319Y2125793D1*
X3206767Y2124367D1*
X3210216D1*
X3213639Y2125793D1*
X3214779Y2127252D1*
X3215947Y2130104D1*
X3191318Y2127252D2*
X3192459Y2125793D1*
X3191318Y2124367D1*
X3190151Y2125793D1*
X3191318Y2127252D1*
X3180432Y2154478D2*
X3167831D1*
X3174702Y2143004D1*
X3171253D1*
X3168971Y2141578D1*
X3167831Y2140152D1*
X3166663Y2135841D1*
Y2132989D1*
X3167831Y2128678D1*
X3170112Y2125793D1*
X3173561Y2124367D1*
X3177010D1*
X3180432Y2125793D1*
X3181573Y2127252D1*
X3182740Y2130104D1*
X3159252Y2144463D2*
X3152355Y2124367D1*
X3145484Y2144463D1*
X3114744D2*
Y2124367D1*
Y2135841D2*
X3113577Y2140152D1*
X3111296Y2143037D1*
X3108987Y2144463D1*
X3105539D1*
X3084359D2*
Y2124367D1*
Y2140152D2*
X3086641Y2143037D1*
X3088949Y2144463D1*
X3092371D1*
X3094679Y2143037D1*
X3096961Y2140152D1*
X3098128Y2135841D1*
Y2132989D1*
X3096961Y2128678D1*
X3094679Y2125826D1*
X3092371Y2124367D1*
X3088949D1*
X3086641Y2125826D1*
X3084359Y2128678D1*
X3076948Y2154511D2*
X3075807Y2153085D1*
X3074640Y2154511D1*
X3075807Y2155970D1*
X3076948Y2154511D1*
X3075807Y2144463D2*
Y2124367D1*
X3067229Y2154511D2*
Y2124367D1*
X3019272Y2147348D2*
X3020413Y2150200D1*
X3022721Y2153085D1*
X3025003Y2154511D1*
X3029592D1*
X3031900Y2153085D1*
X3034182Y2150200D1*
X3035349Y2147348D1*
X3036490Y2143037D1*
Y2135841D1*
X3035349Y2131563D1*
X3034182Y2128678D1*
X3031900Y2125826D1*
X3029592Y2124367D1*
X3025003D1*
X3022721Y2125826D1*
X3020413Y2128678D1*
X3019272Y2131563D1*
Y2135841D1*
X3025003D1*
X3011862Y2138726D2*
X3001515D1*
X2998093Y2140152D1*
X2996926Y2141611D1*
X2995785Y2144463D1*
Y2148774D1*
X2996926Y2151626D1*
X2998093Y2153085D1*
X3001515Y2154511D1*
X3011862D1*
Y2124367D1*
X2988374Y2154511D2*
Y2124367D1*
X2974066Y2154511D2*
X2976374Y2153085D1*
X2978655Y2150200D1*
X2979822Y2147348D1*
X2980963Y2143037D1*
Y2135841D1*
X2979822Y2131563D1*
X2978655Y2128678D1*
X2976374Y2125826D1*
X2974066Y2124367D1*
X2969476D1*
X2967194Y2125826D1*
X2964886Y2128678D1*
X2963746Y2131563D1*
X2962605Y2135841D1*
Y2143037D1*
X2963746Y2147348D1*
X2964886Y2150200D1*
X2967194Y2153085D1*
X2969476Y2154511D1*
X2974066D1*
X2952886Y2154478D2*
X2940284D1*
X2947156Y2143004D1*
X2943707D1*
X2941425Y2141578D1*
X2940284Y2140152D1*
X2939117Y2135841D1*
Y2132989D1*
X2940284Y2128678D1*
X2942566Y2125793D1*
X2946015Y2124367D1*
X2949464D1*
X2952886Y2125793D1*
X2954027Y2127252D1*
X2955194Y2130104D1*
X2930539Y2147315D2*
Y2148741D1*
X2929398Y2151626D1*
X2928258Y2153052D1*
X2925949Y2154478D1*
X2921360D1*
X2919078Y2153052D1*
X2917938Y2151626D1*
X2916770Y2148741D1*
Y2145889D1*
X2917938Y2143004D1*
X2920219Y2138726D1*
X2931706Y2124367D1*
X2915630D1*
X3672449Y514151D2*
D70*
X3668647Y515862D1*
X3664800Y519325D1*
X3662899Y522747D1*
Y529631D1*
X3664800Y533093D1*
X3668647Y536516D1*
X3672449Y538266D1*
X3678197Y539978D1*
X3687792D1*
X3693496Y538266D1*
X3697343Y536515D1*
X3701145Y533093D1*
X3703091Y529631D1*
Y522747D1*
X3701145Y519324D1*
X3697343Y515862D1*
X3693496Y514151D1*
X3687792D1*
Y522747D1*
X3662899Y482162D2*
X3703091D1*
X3662899Y506277D1*
X3703091D1*
X3662899Y474288D2*
X3703091D1*
Y462230D1*
X3701145Y457057D1*
X3697343Y453595D1*
X3693496Y451884D1*
X3687792Y450173D1*
X3678197D1*
X3672449Y451884D1*
X3668647Y453595D1*
X3664800Y457057D1*
X3662899Y462231D1*
Y474288D1*
X3468533Y515863D2*
X3464686Y519285D1*
X3462784Y524459D1*
Y531343D1*
X3464686Y536516D1*
X3468533Y539978D1*
X3472335D1*
X3476182Y538227D1*
X3478083Y536516D1*
X3479984Y533094D1*
X3483831Y522747D1*
X3485732Y519285D1*
X3487678Y517574D1*
X3491480Y515863D1*
X3497228D1*
X3501031Y519285D1*
X3502976Y524459D1*
Y531343D1*
X3501031Y536516D1*
X3497228Y539978D1*
X3462784Y507989D2*
X3502976D1*
Y495931D1*
X3501031Y490758D1*
X3497228Y487296D1*
X3493382Y485585D1*
X3487678Y483874D1*
X3478083D1*
X3472335Y485585D1*
X3468533Y487296D1*
X3464686Y490758D1*
X3462784Y495931D1*
Y507989D1*
X3502976Y448423D2*
X3462785Y462231D1*
X3502976Y476000D1*
X3489579Y470827D2*
Y453596D1*
X3482903Y440549D2*
Y420652D1*
X3462784Y412778D2*
X3502977D1*
Y397258D1*
X3501031Y392085D1*
X3499130Y390374D1*
X3495327Y388662D1*
X3489579D1*
X3485732Y390374D1*
X3483831Y392085D1*
X3481930Y397258D1*
X3479984Y392085D1*
X3478083Y390374D1*
X3474281Y388662D1*
X3470434D1*
X3466631Y390374D1*
X3464686Y392085D1*
X3462784Y397258D1*
Y412778D1*
X3481930D2*
Y397258D1*
X3470845Y1216900D2*
X3466998Y1220322D1*
X3465097Y1225495D1*
Y1232380D1*
X3466998Y1237553D1*
X3470845Y1241015D1*
X3474647D1*
X3478494Y1239264D1*
X3480395Y1237553D1*
X3482297Y1234131D1*
X3486143Y1223784D1*
X3488045Y1220322D1*
X3489990Y1218611D1*
X3493793Y1216900D1*
X3499541D1*
X3503343Y1220322D1*
X3505289Y1225495D1*
Y1232380D1*
X3503343Y1237553D1*
X3499541Y1241015D1*
X3465097Y1209026D2*
X3505289D1*
Y1196968D1*
X3503343Y1191795D1*
X3499541Y1188333D1*
X3495694Y1186622D1*
X3489990Y1184911D1*
X3480395D1*
X3474647Y1186622D1*
X3470845Y1188333D1*
X3466998Y1191795D1*
X3465097Y1196968D1*
Y1209026D1*
X3505289Y1149459D2*
X3465097Y1163268D1*
X3505289Y1177037D1*
X3491891Y1171863D2*
Y1154633D1*
X3485215Y1141585D2*
Y1121688D1*
X3465097Y1113814D2*
X3505289D1*
Y1098295D1*
X3503343Y1093121D1*
X3501442Y1091410D1*
X3497639Y1089699D1*
X3491891D1*
X3488045Y1091410D1*
X3486143Y1093121D1*
X3484242Y1098295D1*
X3482297Y1093121D1*
X3480395Y1091410D1*
X3476593Y1089699D1*
X3472746D1*
X3468944Y1091410D1*
X3466998Y1093121D1*
X3465097Y1098295D1*
Y1113814D1*
X3484242D2*
Y1098295D1*
X3568533Y515863D2*
X3564686Y519285D1*
X3562784Y524458D1*
Y531343D1*
X3564686Y536516D1*
X3568533Y539978D1*
X3572335D1*
X3576182Y538227D1*
X3578083Y536516D1*
X3579984Y533093D1*
X3583831Y522747D1*
X3585732Y519285D1*
X3587678Y517574D1*
X3591480Y515863D1*
X3597228D1*
X3601031Y519285D1*
X3602976Y524458D1*
Y531343D1*
X3601031Y536516D1*
X3597228Y539978D1*
X3572335Y482162D2*
X3568533Y483873D1*
X3564686Y487336D1*
X3562784Y490758D1*
Y497642D1*
X3564686Y501104D1*
X3568533Y504527D1*
X3572335Y506278D1*
X3578083Y507989D1*
X3587678D1*
X3593382Y506278D1*
X3597228Y504527D1*
X3601031Y501104D1*
X3602976Y497642D1*
Y490758D1*
X3601031Y487336D1*
X3597228Y483873D1*
X3593382Y482162D1*
X3562785Y474288D2*
X3602976D1*
Y453635D1*
X3582903Y445761D2*
Y425864D1*
X3562784Y417990D2*
X3602977D1*
Y402471D1*
X3601031Y397297D1*
X3599130Y395586D1*
X3595327Y393875D1*
X3589579D1*
X3585732Y395586D1*
X3583831Y397297D1*
X3581930Y402471D1*
X3579984Y397297D1*
X3578083Y395586D1*
X3574281Y393875D1*
X3570434D1*
X3566631Y395586D1*
X3564686Y397297D1*
X3562784Y402471D1*
Y417990D1*
X3581930D2*
Y402471D1*
X3564596Y1216899D2*
X3560749Y1220322D1*
X3558847Y1225495D1*
Y1232379D1*
X3560749Y1237553D1*
X3564596Y1241015D1*
X3568398D1*
X3572245Y1239264D1*
X3574146Y1237553D1*
X3576047Y1234130D1*
X3579894Y1223784D1*
X3581795Y1220322D1*
X3583741Y1218611D1*
X3587543Y1216899D1*
X3593291D1*
X3597094Y1220322D1*
X3599039Y1225495D1*
Y1232379D1*
X3597094Y1237553D1*
X3593291Y1241015D1*
X3568398Y1183199D2*
X3564596Y1184910D1*
X3560749Y1188372D1*
X3558847Y1191795D1*
Y1198679D1*
X3560749Y1202141D1*
X3564596Y1205563D1*
X3568398Y1207314D1*
X3574146Y1209025D1*
X3583741D1*
X3589445Y1207314D1*
X3593291Y1205563D1*
X3597094Y1202141D1*
X3599039Y1198679D1*
Y1191795D1*
X3597094Y1188372D1*
X3593291Y1184910D1*
X3589445Y1183199D1*
X3558847Y1175325D2*
X3599039D1*
Y1154672D1*
X3578966Y1146798D2*
Y1126901D1*
X3558847Y1119027D2*
X3599039D1*
Y1103507D1*
X3597094Y1098334D1*
X3595193Y1096623D1*
X3591390Y1094912D1*
X3585642D1*
X3581795Y1096623D1*
X3579894Y1098334D1*
X3577993Y1103507D1*
X3576047Y1098334D1*
X3574146Y1096623D1*
X3570343Y1094912D1*
X3566497D1*
X3562694Y1096623D1*
X3560749Y1098334D1*
X3558847Y1103507D1*
Y1119027D1*
X3577993D2*
Y1103507D1*
X2470396Y2968578D2*
X2473818Y2972425D1*
X2478991Y2974326D1*
X2485876D1*
X2491049Y2972425D1*
X2494511Y2968578D1*
Y2964775D1*
X2492760Y2960928D1*
X2491049Y2959027D1*
X2487627Y2957126D1*
X2477280Y2953279D1*
X2473818Y2951378D1*
X2472107Y2949432D1*
X2470396Y2945630D1*
Y2939882D1*
X2473818Y2936079D1*
X2478991Y2934134D1*
X2485876D1*
X2491049Y2936079D1*
X2494511Y2939882D1*
X2462522Y2974326D2*
Y2934134D1*
X2450464D1*
X2445291Y2936079D1*
X2441829Y2939882D1*
X2440118Y2943729D1*
X2438407Y2949432D1*
Y2959027D1*
X2440118Y2964775D1*
X2441829Y2968578D1*
X2445291Y2972425D1*
X2450464Y2974326D1*
X2462522D1*
X2402955Y2934134D2*
X2416764Y2974326D1*
X2430533Y2934134D1*
X2425359Y2947531D2*
X2408129D1*
X2395081Y2954208D2*
X2375184D1*
X2367310Y2974326D2*
Y2934134D1*
X2351791D1*
X2346617Y2936079D1*
X2344906Y2937981D1*
X2343195Y2941783D1*
Y2947531D1*
X2344906Y2951378D1*
X2346617Y2953279D1*
X2351791Y2955180D1*
X2346617Y2957126D1*
X2344906Y2959027D1*
X2343195Y2962830D1*
Y2966676D1*
X2344906Y2970479D1*
X2346617Y2972425D1*
X2351791Y2974326D1*
X2367310D1*
Y2955180D2*
X2351791D1*
X2471434Y3062327D2*
X2474856Y3066174D1*
X2480029Y3068075D1*
X2486913D1*
X2492087Y3066174D1*
X2495549Y3062327D1*
Y3058525D1*
X2493798Y3054678D1*
X2492087Y3052777D1*
X2488664Y3050875D1*
X2478318Y3047029D1*
X2474856Y3045127D1*
X2473145Y3043182D1*
X2471434Y3039379D1*
Y3033631D1*
X2474856Y3029829D1*
X2480029Y3027883D1*
X2486913D1*
X2492087Y3029829D1*
X2495549Y3033631D1*
X2437733Y3058525D2*
X2439444Y3062327D1*
X2442906Y3066174D1*
X2446329Y3068075D1*
X2453213D1*
X2456675Y3066174D1*
X2460097Y3062327D1*
X2461848Y3058525D1*
X2463560Y3052777D1*
Y3043182D1*
X2461848Y3037478D1*
X2460097Y3033631D1*
X2456675Y3029829D1*
X2453213Y3027883D1*
X2446329D1*
X2442906Y3029829D1*
X2439444Y3033631D1*
X2437733Y3037478D1*
X2429859Y3068075D2*
Y3027883D1*
X2409206D1*
X2401332Y3047957D2*
X2381435D1*
X2373561Y3068075D2*
Y3027883D1*
X2358041D1*
X2352868Y3029829D1*
X2351157Y3031730D1*
X2349446Y3035532D1*
Y3041280D1*
X2351157Y3045127D1*
X2352868Y3047029D1*
X2358041Y3048930D1*
X2352868Y3050875D1*
X2351157Y3052777D1*
X2349446Y3056579D1*
Y3060426D1*
X2351157Y3064228D1*
X2352868Y3066174D1*
X2358041Y3068075D1*
X2373561D1*
Y3048930D2*
X2358041D1*
X2164851Y3214641D2*
X2168273Y3218488D1*
X2173446Y3220389D1*
X2180331D1*
X2185504Y3218488D1*
X2188966Y3214641D1*
Y3210838D1*
X2187215Y3206991D1*
X2185504Y3205090D1*
X2182082Y3203189D1*
X2171735Y3199342D1*
X2168273Y3197441D1*
X2166562Y3195495D1*
X2164851Y3191693D1*
Y3185945D1*
X2168273Y3182142D1*
X2173446Y3180197D1*
X2180331D1*
X2185504Y3182142D1*
X2188966Y3185945D1*
X2131150Y3210838D2*
X2132862Y3214641D1*
X2136324Y3218488D1*
X2139746Y3220389D1*
X2146630D1*
X2150092Y3218488D1*
X2153515Y3214641D1*
X2155266Y3210838D1*
X2156977Y3205090D1*
Y3195495D1*
X2155266Y3189792D1*
X2153515Y3185945D1*
X2150092Y3182142D1*
X2146630Y3180197D1*
X2139746D1*
X2136324Y3182142D1*
X2132862Y3185945D1*
X2131150Y3189792D1*
X2123276Y3220389D2*
Y3180197D1*
X2102623D1*
X2094749Y3200271D2*
X2074852D1*
X2066978Y3220389D2*
Y3180197D1*
X2051459D1*
X2046285Y3182142D1*
X2044574Y3184044D1*
X2042863Y3187846D1*
Y3193594D1*
X2044574Y3197441D1*
X2046285Y3199342D1*
X2051459Y3201243D1*
X2046285Y3203189D1*
X2044574Y3205090D1*
X2042863Y3208893D1*
Y3212739D1*
X2044574Y3216542D1*
X2046285Y3218488D1*
X2051459Y3220389D1*
X2066978D1*
Y3201243D2*
X2051459D1*
X2170064Y3014641D2*
X2173486Y3018488D1*
X2178659Y3020389D1*
X2185544D1*
X2190717Y3018488D1*
X2194179Y3014641D1*
Y3010838D1*
X2192428Y3006991D1*
X2190717Y3005090D1*
X2187295Y3003189D1*
X2176948Y2999342D1*
X2173486Y2997441D1*
X2171775Y2995495D1*
X2170064Y2991693D1*
Y2985945D1*
X2173486Y2982142D1*
X2178659Y2980197D1*
X2185544D1*
X2190717Y2982142D1*
X2194179Y2985945D1*
X2162190Y3020389D2*
Y2980197D1*
X2150132D1*
X2144959Y2982142D1*
X2141497Y2985945D1*
X2139786Y2989792D1*
X2138075Y2995495D1*
Y3005090D1*
X2139786Y3010838D1*
X2141497Y3014641D1*
X2144959Y3018488D1*
X2150132Y3020389D1*
X2162190D1*
X2102623Y2980197D2*
X2116432Y3020389D1*
X2130201Y2980197D1*
X2125027Y2993594D2*
X2107797D1*
X2094749Y3000271D2*
X2074852D1*
X2066978Y3020389D2*
Y2980197D1*
X2051459D1*
X2046285Y2982142D1*
X2044574Y2984044D1*
X2042863Y2987846D1*
Y2993594D1*
X2044574Y2997441D1*
X2046285Y2999342D1*
X2051459Y3001243D1*
X2046285Y3003189D1*
X2044574Y3005090D1*
X2042863Y3008893D1*
Y3012739D1*
X2044574Y3016542D1*
X2046285Y3018488D1*
X2051459Y3020389D1*
X2066978D1*
Y3001243D2*
X2051459D1*
X2443243Y2865412D2*
X2424340D1*
X2434647Y2850113D1*
X2429474D1*
X2426052Y2848212D1*
X2424340Y2846310D1*
X2422590Y2840562D1*
Y2836760D1*
X2424340Y2831012D1*
X2427763Y2827165D1*
X2432936Y2825264D1*
X2438109D1*
X2443243Y2827165D1*
X2444954Y2829110D1*
X2446705Y2832913D1*
X2413004Y2829110D2*
X2414716Y2827165D1*
X2413004Y2825264D1*
X2411253Y2827165D1*
X2413004Y2829110D1*
X2399917Y2865412D2*
X2381015D1*
X2391322Y2850113D1*
X2386149D1*
X2382726Y2848212D1*
X2381015Y2846310D1*
X2379264Y2840562D1*
Y2836760D1*
X2381015Y2831012D1*
X2384437Y2827165D1*
X2389611Y2825264D1*
X2394784D1*
X2399917Y2827165D1*
X2401628Y2829110D1*
X2403379Y2832913D1*
X2371390Y2852058D2*
X2361044Y2825264D1*
X2350737Y2852058D1*
X2135369Y3420530D2*
X2116466D1*
X2126773Y3405231D1*
X2121600D1*
X2118178Y3403330D1*
X2116466Y3401428D1*
X2114716Y3395680D1*
Y3391878D1*
X2116466Y3386130D1*
X2119889Y3382283D1*
X2125062Y3380382D1*
X2130235D1*
X2135369Y3382283D1*
X2137080Y3384229D1*
X2138831Y3388031D1*
X2105130Y3384229D2*
X2106842Y3382283D1*
X2105130Y3380382D1*
X2103379Y3382283D1*
X2105130Y3384229D1*
X2092043Y3420530D2*
X2073141D1*
X2083448Y3405231D1*
X2078275D1*
X2074852Y3403330D1*
X2073141Y3401428D1*
X2071390Y3395680D1*
Y3391878D1*
X2073141Y3386130D1*
X2076563Y3382283D1*
X2081737Y3380382D1*
X2086910D1*
X2092043Y3382283D1*
X2093754Y3384229D1*
X2095505Y3388031D1*
X2063516Y3407176D2*
X2053170Y3380382D1*
X2042863Y3407176D1*
X2413928Y2761417D2*
X2415639Y2765219D1*
X2419101Y2769066D1*
X2422524Y2770968D1*
X2429408D1*
X2432870Y2769066D1*
X2436292Y2765219D1*
X2438043Y2761417D1*
X2439754Y2755669D1*
Y2746074D1*
X2438043Y2740370D1*
X2436292Y2736524D1*
X2432870Y2732721D1*
X2429408Y2730776D1*
X2422524D1*
X2419101Y2732721D1*
X2415639Y2736524D1*
X2413928Y2740370D1*
Y2746074D1*
X2422524D1*
X2381939Y2770968D2*
Y2730776D1*
X2406054Y2770968D1*
Y2730776D1*
X2374065Y2770968D2*
Y2730776D1*
X2362007D1*
X2356834Y2732721D1*
X2353372Y2736524D1*
X2351661Y2740370D1*
X2349950Y2746074D1*
Y2755669D1*
X2351661Y2761417D1*
X2353372Y2765219D1*
X2356834Y2769066D1*
X2362007Y2770968D1*
X2374065D1*
X2106842Y3312598D2*
X2108553Y3316401D1*
X2112015Y3320247D1*
X2115437Y3322149D1*
X2122321D1*
X2125783Y3320247D1*
X2129206Y3316401D1*
X2130957Y3312598D1*
X2132668Y3306850D1*
Y3297255D1*
X2130957Y3291551D1*
X2129206Y3287705D1*
X2125783Y3283902D1*
X2122321Y3281957D1*
X2115437D1*
X2112015Y3283902D1*
X2108553Y3287705D1*
X2106842Y3291551D1*
Y3297255D1*
X2115437D1*
X2074852Y3322149D2*
Y3281957D1*
X2098968Y3322149D1*
Y3281957D1*
X2066978Y3322149D2*
Y3281957D1*
X2054921D1*
X2049747Y3283902D1*
X2046285Y3287705D1*
X2044574Y3291551D1*
X2042863Y3297255D1*
Y3306850D1*
X2044574Y3312598D1*
X2046285Y3316401D1*
X2049747Y3320247D1*
X2054921Y3322149D1*
X2066978D1*
X3772449Y3715636D2*
X3768647Y3717347D1*
X3764800Y3720809D1*
X3762899Y3724231D1*
Y3731115D1*
X3764800Y3734577D1*
X3768647Y3738000D1*
X3772449Y3739751D1*
X3778197Y3741462D1*
X3787792D1*
X3793496Y3739751D1*
X3797343Y3738000D1*
X3801145Y3734577D1*
X3803091Y3731115D1*
Y3724231D1*
X3801145Y3720809D1*
X3797343Y3717347D1*
X3793496Y3715635D1*
X3787792Y3715636D1*
Y3724231D1*
X3762899Y3683646D2*
X3803091D1*
X3762899Y3707762D1*
X3803091Y3707761D1*
X3762899Y3675772D2*
X3803091D1*
Y3663715D1*
X3801145Y3658542D1*
X3797343Y3655079D1*
X3793496Y3653368D1*
X3787792Y3651657D1*
X3778197D1*
X3772449Y3653368D1*
X3768647Y3655079D1*
X3764800Y3658542D1*
X3762899Y3663715D1*
Y3675772D1*
X3372449Y3715636D2*
X3368647Y3717347D1*
X3364800Y3720809D1*
X3362899Y3724231D1*
Y3731115D1*
X3364800Y3734577D1*
X3368647Y3738000D1*
X3372449Y3739751D1*
X3378197Y3741462D1*
X3387792D1*
X3393496Y3739751D1*
X3397343Y3738000D1*
X3401145Y3734577D1*
X3403091Y3731115D1*
Y3724231D1*
X3401145Y3720809D1*
X3397343Y3717347D1*
X3393496Y3715635D1*
X3387792Y3715636D1*
Y3724231D1*
X3362899Y3683646D2*
X3403091D1*
X3362899Y3707762D1*
X3403091Y3707761D1*
X3362899Y3675772D2*
X3403091D1*
Y3663715D1*
X3401145Y3658542D1*
X3397343Y3655079D1*
X3393496Y3653368D1*
X3387792Y3651657D1*
X3378197D1*
X3372449Y3653368D1*
X3368647Y3655079D1*
X3364800Y3658542D1*
X3362899Y3663715D1*
Y3675772D1*
X2972449Y3715636D2*
X2968647Y3717347D1*
X2964800Y3720809D1*
X2962899Y3724231D1*
Y3731115D1*
X2964800Y3734577D1*
X2968647Y3738000D1*
X2972449Y3739751D1*
X2978197Y3741462D1*
X2987792D1*
X2993496Y3739751D1*
X2997343Y3738000D1*
X3001145Y3734577D1*
X3003091Y3731115D1*
Y3724231D1*
X3001145Y3720809D1*
X2997343Y3717347D1*
X2993496Y3715635D1*
X2987792Y3715636D1*
Y3724231D1*
X2962899Y3683646D2*
X3003091D1*
X2962899Y3707762D1*
X3003091Y3707761D1*
X2962899Y3675772D2*
X3003091D1*
Y3663715D1*
X3001145Y3658542D1*
X2997343Y3655079D1*
X2993496Y3653368D1*
X2987792Y3651657D1*
X2978197D1*
X2972449Y3653368D1*
X2968647Y3655079D1*
X2964800Y3658542D1*
X2962899Y3663715D1*
Y3675772D1*
X2572449Y3715636D2*
X2568647Y3717347D1*
X2564800Y3720809D1*
X2562899Y3724231D1*
Y3731115D1*
X2564800Y3734577D1*
X2568647Y3738000D1*
X2572449Y3739751D1*
X2578197Y3741462D1*
X2587792D1*
X2593496Y3739751D1*
X2597343Y3738000D1*
X2601145Y3734577D1*
X2603091Y3731115D1*
Y3724231D1*
X2601145Y3720809D1*
X2597343Y3717347D1*
X2593496Y3715635D1*
X2587792Y3715636D1*
Y3724231D1*
X2562899Y3683646D2*
X2603091D1*
X2562899Y3707762D1*
X2603091Y3707761D1*
X2562899Y3675772D2*
X2603091D1*
Y3663715D1*
X2601145Y3658542D1*
X2597343Y3655079D1*
X2593496Y3653368D1*
X2587792Y3651657D1*
X2578197D1*
X2572449Y3653368D1*
X2568647Y3655079D1*
X2564800Y3658542D1*
X2562899Y3663715D1*
Y3675772D1*
X3662943Y3738000D2*
Y3719098D1*
X3678241Y3729404D1*
Y3724231D1*
X3680143Y3720809D1*
X3682044Y3719098D1*
X3687792Y3717347D1*
X3691595D1*
X3697343Y3719098D1*
X3701189Y3722520D1*
X3703091Y3727693D1*
Y3732866D1*
X3701189Y3738000D1*
X3699244Y3739711D1*
X3695441Y3741462D1*
X3699244Y3707762D2*
X3701189Y3709473D1*
X3703091Y3707762D1*
X3701189Y3706011D1*
X3699244Y3707762D1*
X3662943Y3694675D2*
Y3675772D1*
X3678242Y3686079D1*
Y3680906D1*
X3680143Y3677484D1*
X3682044Y3675772D1*
X3687792Y3674022D1*
X3691595D1*
X3697343Y3675772D1*
X3701189Y3679195D1*
X3703091Y3684368D1*
Y3689541D1*
X3701189Y3694675D1*
X3699244Y3696386D1*
X3695441Y3698137D1*
X3676296Y3666148D2*
X3703091Y3655801D1*
X3676296Y3645494D1*
X3262943Y3738000D2*
Y3719098D1*
X3278241Y3729404D1*
Y3724231D1*
X3280143Y3720809D1*
X3282044Y3719098D1*
X3287792Y3717347D1*
X3291595D1*
X3297343Y3719098D1*
X3301189Y3722520D1*
X3303091Y3727693D1*
Y3732866D1*
X3301189Y3738000D1*
X3299244Y3739711D1*
X3295441Y3741462D1*
X3299244Y3707762D2*
X3301189Y3709473D1*
X3303091Y3707762D1*
X3301189Y3706011D1*
X3299244Y3707762D1*
X3262943Y3694675D2*
Y3675772D1*
X3278242Y3686079D1*
Y3680906D1*
X3280143Y3677484D1*
X3282044Y3675772D1*
X3287792Y3674022D1*
X3291595D1*
X3297343Y3675772D1*
X3301189Y3679195D1*
X3303091Y3684368D1*
Y3689541D1*
X3301189Y3694675D1*
X3299244Y3696386D1*
X3295441Y3698137D1*
X3276296Y3666148D2*
X3303091Y3655801D1*
X3276296Y3645494D1*
X2862943Y3738000D2*
Y3719098D1*
X2878241Y3729404D1*
Y3724231D1*
X2880143Y3720809D1*
X2882044Y3719098D1*
X2887792Y3717347D1*
X2891595D1*
X2897343Y3719098D1*
X2901189Y3722520D1*
X2903091Y3727693D1*
Y3732866D1*
X2901189Y3738000D1*
X2899244Y3739711D1*
X2895441Y3741462D1*
X2899244Y3707762D2*
X2901189Y3709473D1*
X2903091Y3707762D1*
X2901189Y3706011D1*
X2899244Y3707762D1*
X2862943Y3694675D2*
Y3675772D1*
X2878242Y3686079D1*
Y3680906D1*
X2880143Y3677484D1*
X2882044Y3675772D1*
X2887792Y3674022D1*
X2891595D1*
X2897343Y3675772D1*
X2901189Y3679195D1*
X2903091Y3684368D1*
Y3689541D1*
X2901189Y3694675D1*
X2899244Y3696386D1*
X2895441Y3698137D1*
X2876296Y3666148D2*
X2903091Y3655801D1*
X2876296Y3645494D1*
X2462943Y3738000D2*
Y3719098D1*
X2478241Y3729404D1*
Y3724231D1*
X2480143Y3720809D1*
X2482044Y3719098D1*
X2487792Y3717347D1*
X2491595D1*
X2497343Y3719098D1*
X2501189Y3722520D1*
X2503091Y3727693D1*
Y3732866D1*
X2501189Y3738000D1*
X2499244Y3739711D1*
X2495441Y3741462D1*
X2499244Y3707762D2*
X2501189Y3709473D1*
X2503091Y3707762D1*
X2501189Y3706011D1*
X2499244Y3707762D1*
X2462943Y3694675D2*
Y3675772D1*
X2478242Y3686079D1*
Y3680906D1*
X2480143Y3677484D1*
X2482044Y3675772D1*
X2487792Y3674022D1*
X2491595D1*
X2497343Y3675772D1*
X2501189Y3679195D1*
X2503091Y3684368D1*
Y3689541D1*
X2501189Y3694675D1*
X2499244Y3696386D1*
X2495441Y3698137D1*
X2476296Y3666148D2*
X2503091Y3655801D1*
X2476296Y3645494D1*
X3572449Y3715637D2*
X3568647Y3717348D1*
X3564800Y3720810D1*
X3562899Y3724233D1*
Y3731117D1*
X3564800Y3734579D1*
X3568647Y3738001D1*
X3572449Y3739752D1*
X3578197Y3741463D1*
X3587792D1*
X3593496Y3739752D1*
X3597343Y3738001D1*
X3601145Y3734579D1*
X3603091Y3731117D1*
Y3724232D1*
X3601145Y3720810D1*
X3597343Y3717348D1*
X3593496Y3715637D1*
X3587792D1*
Y3724232D1*
X3583945Y3707763D2*
Y3692243D1*
X3582044Y3687110D1*
X3580099Y3685359D1*
X3576296Y3683648D1*
X3570548D1*
X3566745Y3685359D1*
X3564800Y3687110D1*
X3562899Y3692243D1*
Y3707763D1*
X3603091D1*
X3562899Y3675774D2*
X3603091D1*
X3562899Y3657553D2*
X3564800Y3661015D1*
X3568647Y3664438D1*
X3572449Y3666189D1*
X3578197Y3667900D1*
X3587792D1*
X3593496Y3666189D1*
X3597343Y3664438D1*
X3601145Y3661015D1*
X3603091Y3657553D1*
Y3650669D1*
X3601145Y3647247D1*
X3597343Y3643785D1*
X3593496Y3642073D1*
X3587792Y3640362D1*
X3578197D1*
X3572449Y3642073D1*
X3568647Y3643785D1*
X3564800Y3647247D1*
X3562899Y3650669D1*
Y3657553D1*
X3562943Y3629026D2*
Y3610124D1*
X3578242Y3620431D1*
Y3615257D1*
X3580143Y3611835D1*
X3582044Y3610124D1*
X3587792Y3608373D1*
X3591595D1*
X3597343Y3610124D1*
X3601189Y3613546D1*
X3603091Y3618719D1*
Y3623893D1*
X3601189Y3629026D1*
X3599244Y3630737D1*
X3595441Y3632488D1*
X3568647Y3579846D2*
X3564844Y3581557D1*
X3562943Y3586730D1*
Y3590153D1*
X3564844Y3595326D1*
X3570592Y3598788D1*
X3580143Y3600499D1*
X3589693D1*
X3597343Y3598788D1*
X3601189Y3595326D1*
X3603091Y3590153D1*
Y3588441D1*
X3601189Y3583308D1*
X3597343Y3579846D1*
X3591595Y3578135D1*
X3589693D1*
X3583945Y3579846D1*
X3580143Y3583308D1*
X3578241Y3588442D1*
Y3590153D1*
X3580143Y3595326D1*
X3583945Y3598788D1*
X3589693Y3600499D1*
X3172449Y3715636D2*
X3168647Y3717347D1*
X3164800Y3720809D1*
X3162899Y3724232D1*
Y3731116D1*
X3164800Y3734578D1*
X3168647Y3738000D1*
X3172449Y3739751D1*
X3178197Y3741462D1*
X3187792D1*
X3193496Y3739751D1*
X3197343Y3738000D1*
X3201145Y3734578D1*
X3203091Y3731116D1*
Y3724232D1*
X3201145Y3720809D1*
X3197343Y3717347D1*
X3193496Y3715636D1*
X3187792D1*
Y3724232D1*
X3183945Y3707762D2*
Y3692242D1*
X3182044Y3687109D1*
X3180099Y3685358D1*
X3176296Y3683647D1*
X3170548D1*
X3166745Y3685358D1*
X3164800Y3687109D1*
X3162899Y3692242D1*
Y3707762D1*
X3203091D1*
X3162899Y3675773D2*
X3203091D1*
X3162899Y3657552D2*
X3164800Y3661015D1*
X3168647Y3664437D1*
X3172449Y3666188D1*
X3178197Y3667899D1*
X3187792D1*
X3193496Y3666188D1*
X3197343Y3664437D1*
X3201145Y3661014D1*
X3203091Y3657552D1*
Y3650668D1*
X3201145Y3647246D1*
X3197343Y3643784D1*
X3193496Y3642073D1*
X3187792Y3640361D1*
X3178197D1*
X3172449Y3642073D1*
X3168647Y3643784D1*
X3164800Y3647246D1*
X3162899Y3650668D1*
Y3657552D1*
X3162943Y3629025D2*
Y3610123D1*
X3178242Y3620430D1*
Y3615257D1*
X3180143Y3611834D1*
X3182044Y3610123D1*
X3187792Y3608372D1*
X3191595D1*
X3197343Y3610123D1*
X3201189Y3613545D1*
X3203091Y3618719D1*
Y3623892D1*
X3201189Y3629025D1*
X3199244Y3630736D1*
X3195441Y3632487D1*
X3176296Y3578094D2*
X3182044Y3579845D1*
X3185891Y3583267D1*
X3187792Y3588441D1*
Y3590152D1*
X3185891Y3595325D1*
X3182044Y3598747D1*
X3176296Y3600498D1*
X3174395D1*
X3168647Y3598747D1*
X3164844Y3595325D1*
X3162943Y3590152D1*
Y3588441D1*
X3164844Y3583267D1*
X3168647Y3579845D1*
X3176296Y3578094D1*
X3185891D1*
X3195441Y3579845D1*
X3201189Y3583267D1*
X3203091Y3588441D1*
Y3591863D1*
X3201189Y3597036D1*
X3197343Y3598747D1*
X2772449Y3715636D2*
X2768647Y3717347D1*
X2764800Y3720809D1*
X2762899Y3724231D1*
Y3731116D1*
X2764800Y3734578D1*
X2768647Y3738000D1*
X2772449Y3739751D1*
X2778197Y3741462D1*
X2787792D1*
X2793496Y3739751D1*
X2797343Y3738000D1*
X2801145Y3734578D1*
X2803091Y3731116D1*
Y3724231D1*
X2801145Y3720809D1*
X2797343Y3717347D1*
X2793496Y3715636D1*
X2787792D1*
Y3724231D1*
X2783945Y3707762D2*
Y3692242D1*
X2782044Y3687109D1*
X2780099Y3685358D1*
X2776296Y3683647D1*
X2770548D1*
X2766745Y3685358D1*
X2764800Y3687109D1*
X2762899Y3692242D1*
Y3707762D1*
X2803091D1*
X2762899Y3675773D2*
X2803091D1*
X2762899Y3657552D2*
X2764800Y3661014D1*
X2768647Y3664437D1*
X2772449Y3666187D1*
X2778197Y3667899D1*
X2787792D1*
X2793496Y3666187D1*
X2797343Y3664436D1*
X2801145Y3661014D1*
X2803091Y3657552D1*
Y3650668D1*
X2801145Y3647245D1*
X2797343Y3643783D1*
X2793496Y3642072D1*
X2787792Y3640361D1*
X2778197D1*
X2772449Y3642072D1*
X2768647Y3643783D1*
X2764800Y3647245D1*
X2762899Y3650668D1*
Y3657552D1*
X2762943Y3629025D2*
Y3610123D1*
X2778242Y3620430D1*
Y3615256D1*
X2780143Y3611834D1*
X2782044Y3610123D1*
X2787792Y3608372D1*
X2791595D1*
X2797343Y3610123D1*
X2801189Y3613545D1*
X2803091Y3618718D1*
Y3623892D1*
X2801189Y3629025D1*
X2799244Y3630736D1*
X2795441Y3632487D1*
X2803091Y3583267D2*
X2762943D1*
X2789693Y3600498D1*
Y3574672D1*
X2372449Y3715636D2*
X2368647Y3717347D1*
X2364800Y3720809D1*
X2362899Y3724231D1*
Y3731116D1*
X2364800Y3734578D1*
X2368647Y3738000D1*
X2372449Y3739751D1*
X2378197Y3741462D1*
X2387792D1*
X2393496Y3739751D1*
X2397343Y3738000D1*
X2401145Y3734578D1*
X2403091Y3731116D1*
Y3724231D1*
X2401145Y3720809D1*
X2397343Y3717347D1*
X2393496Y3715636D1*
X2387792D1*
Y3724231D1*
X2383945Y3707762D2*
Y3692242D1*
X2382044Y3687109D1*
X2380099Y3685358D1*
X2376296Y3683647D1*
X2370548D1*
X2366745Y3685358D1*
X2364800Y3687109D1*
X2362899Y3692242D1*
Y3707762D1*
X2403091D1*
X2362899Y3675773D2*
X2403091D1*
X2362899Y3657552D2*
X2364800Y3661014D1*
X2368647Y3664437D1*
X2372449Y3666188D1*
X2378197Y3667899D1*
X2387792D1*
X2393496Y3666188D1*
X2397343Y3664437D1*
X2401145Y3661014D1*
X2403091Y3657552D1*
Y3650668D1*
X2401145Y3647246D1*
X2397343Y3643784D1*
X2393496Y3642072D1*
X2387792Y3640361D1*
X2378197D1*
X2372449Y3642072D1*
X2368647Y3643784D1*
X2364800Y3647246D1*
X2362899Y3650668D1*
Y3657552D1*
X2362943Y3629025D2*
Y3610123D1*
X2378242Y3620430D1*
Y3615256D1*
X2380143Y3611834D1*
X2382044Y3610123D1*
X2387792Y3608372D1*
X2391595D1*
X2397343Y3610123D1*
X2401189Y3613545D1*
X2403091Y3618718D1*
Y3623892D1*
X2401189Y3629025D1*
X2399244Y3630736D1*
X2395441Y3632487D1*
X2362943Y3579845D2*
Y3597036D1*
X2380143Y3598747D1*
X2378241Y3597036D1*
X2376296Y3591863D1*
Y3586729D1*
X2378241Y3581556D1*
X2382044Y3578094D1*
X2387792Y3576383D1*
X2391595D1*
X2397343Y3578094D1*
X2401189Y3581556D1*
X2403091Y3586729D1*
Y3591863D1*
X2401189Y3597036D1*
X2399244Y3598747D1*
X2395441Y3600498D1*
X1372449Y3715636D2*
X1368647Y3717347D1*
X1364800Y3720809D1*
X1362899Y3724231D1*
Y3731115D1*
X1364800Y3734577D1*
X1368647Y3738000D1*
X1372449Y3739751D1*
X1378197Y3741462D1*
X1387792D1*
X1393496Y3739751D1*
X1397343Y3738000D1*
X1401145Y3734577D1*
X1403091Y3731115D1*
Y3724231D1*
X1401145Y3720809D1*
X1397343Y3717347D1*
X1393496Y3715635D1*
X1387792Y3715636D1*
Y3724231D1*
X1362899Y3683646D2*
X1403091D1*
X1362899Y3707762D1*
X1403091Y3707761D1*
X1362899Y3675772D2*
X1403091D1*
Y3663715D1*
X1401145Y3658542D1*
X1397343Y3655079D1*
X1393496Y3653368D1*
X1387792Y3651657D1*
X1378197D1*
X1372449Y3653368D1*
X1368647Y3655079D1*
X1364800Y3658542D1*
X1362899Y3663715D1*
Y3675772D1*
X1272449Y3715636D2*
X1268647Y3717347D1*
X1264800Y3720809D1*
X1262899Y3724231D1*
Y3731115D1*
X1264800Y3734577D1*
X1268647Y3738000D1*
X1272449Y3739751D1*
X1278197Y3741462D1*
X1287792D1*
X1293496Y3739751D1*
X1297343Y3738000D1*
X1301145Y3734577D1*
X1303091Y3731115D1*
Y3724231D1*
X1301145Y3720809D1*
X1297343Y3717347D1*
X1293496Y3715635D1*
X1287792Y3715636D1*
Y3724231D1*
X1262899Y3683646D2*
X1303091D1*
X1262899Y3707762D1*
X1303091Y3707761D1*
X1262899Y3675772D2*
X1303091D1*
Y3663715D1*
X1301145Y3658542D1*
X1297343Y3655079D1*
X1293496Y3653368D1*
X1287792Y3651657D1*
X1278197D1*
X1272449Y3653368D1*
X1268647Y3655079D1*
X1264800Y3658542D1*
X1262899Y3663715D1*
Y3675772D1*
X1662943Y3738000D2*
Y3719098D1*
X1678241Y3729404D1*
Y3724231D1*
X1680143Y3720809D1*
X1682044Y3719098D1*
X1687792Y3717347D1*
X1691595D1*
X1697343Y3719098D1*
X1701189Y3722520D1*
X1703091Y3727693D1*
Y3732866D1*
X1701189Y3738000D1*
X1699244Y3739711D1*
X1695441Y3741462D1*
X1699244Y3707762D2*
X1701189Y3709473D1*
X1703091Y3707762D1*
X1701189Y3706011D1*
X1699244Y3707762D1*
X1662943Y3694675D2*
Y3675772D1*
X1678242Y3686079D1*
Y3680906D1*
X1680143Y3677484D1*
X1682044Y3675772D1*
X1687792Y3674022D1*
X1691595D1*
X1697343Y3675772D1*
X1701189Y3679195D1*
X1703091Y3684368D1*
Y3689541D1*
X1701189Y3694675D1*
X1699244Y3696386D1*
X1695441Y3698137D1*
X1676296Y3666148D2*
X1703091Y3655801D1*
X1676296Y3645494D1*
X1562943Y3738000D2*
Y3719098D1*
X1578241Y3729404D1*
Y3724231D1*
X1580143Y3720809D1*
X1582044Y3719098D1*
X1587792Y3717347D1*
X1591595D1*
X1597343Y3719098D1*
X1601189Y3722520D1*
X1603091Y3727693D1*
Y3732866D1*
X1601189Y3738000D1*
X1599244Y3739711D1*
X1595441Y3741462D1*
X1599244Y3707762D2*
X1601189Y3709473D1*
X1603091Y3707762D1*
X1601189Y3706011D1*
X1599244Y3707762D1*
X1562943Y3694675D2*
Y3675772D1*
X1578242Y3686079D1*
Y3680906D1*
X1580143Y3677484D1*
X1582044Y3675772D1*
X1587792Y3674022D1*
X1591595D1*
X1597343Y3675772D1*
X1601189Y3679195D1*
X1603091Y3684368D1*
Y3689541D1*
X1601189Y3694675D1*
X1599244Y3696386D1*
X1595441Y3698137D1*
X1576296Y3666148D2*
X1603091Y3655801D1*
X1576296Y3645494D1*
X2172449Y3715636D2*
X2168647Y3717347D1*
X2164800Y3720809D1*
X2162899Y3724231D1*
Y3731116D1*
X2164800Y3734578D1*
X2168647Y3738000D1*
X2172449Y3739751D1*
X2178197Y3741462D1*
X2187792D1*
X2193496Y3739751D1*
X2197343Y3738000D1*
X2201145Y3734578D1*
X2203091Y3731116D1*
Y3724231D1*
X2201145Y3720809D1*
X2197343Y3717347D1*
X2193496Y3715636D1*
X2187792D1*
Y3724231D1*
X2183945Y3707762D2*
Y3692242D1*
X2182044Y3687109D1*
X2180099Y3685358D1*
X2176296Y3683647D1*
X2170548D1*
X2166745Y3685358D1*
X2164800Y3687109D1*
X2162899Y3692242D1*
Y3707762D1*
X2203091D1*
X2162899Y3675773D2*
X2203091D1*
X2162899Y3657552D2*
X2164800Y3661014D1*
X2168647Y3664437D1*
X2172449Y3666188D1*
X2178197Y3667899D1*
X2187792D1*
X2193496Y3666188D1*
X2197343Y3664437D1*
X2201145Y3661014D1*
X2203091Y3657552D1*
Y3650668D1*
X2201145Y3647246D1*
X2197343Y3643784D1*
X2193496Y3642072D1*
X2187792Y3640361D1*
X2178197D1*
X2172449Y3642072D1*
X2168647Y3643784D1*
X2164800Y3647246D1*
X2162899Y3650668D1*
Y3657552D1*
X2162943Y3629025D2*
Y3610123D1*
X2178242Y3620430D1*
Y3615256D1*
X2180143Y3611834D1*
X2182044Y3610123D1*
X2187792Y3608372D1*
X2191595D1*
X2197343Y3610123D1*
X2201189Y3613545D1*
X2203091Y3618718D1*
Y3623892D1*
X2201189Y3629025D1*
X2199244Y3630736D1*
X2195441Y3632487D1*
X2162943Y3597036D2*
Y3578134D1*
X2178241Y3588440D1*
Y3583267D1*
X2180143Y3579845D1*
X2182044Y3578134D1*
X2187792Y3576383D1*
X2191595D1*
X2197343Y3578134D1*
X2201189Y3581556D1*
X2203091Y3586729D1*
Y3591903D1*
X2201189Y3597036D1*
X2199244Y3598747D1*
X2195441Y3600498D1*
X2072449Y3715636D2*
X2068647Y3717347D1*
X2064800Y3720809D1*
X2062899Y3724231D1*
Y3731116D1*
X2064800Y3734578D1*
X2068647Y3738000D1*
X2072449Y3739751D1*
X2078197Y3741462D1*
X2087792D1*
X2093496Y3739751D1*
X2097343Y3738000D1*
X2101145Y3734578D1*
X2103091Y3731116D1*
Y3724231D1*
X2101145Y3720809D1*
X2097343Y3717347D1*
X2093496Y3715636D1*
X2087792D1*
Y3724231D1*
X2083945Y3707762D2*
Y3692242D1*
X2082044Y3687109D1*
X2080099Y3685358D1*
X2076296Y3683647D1*
X2070548D1*
X2066745Y3685358D1*
X2064800Y3687109D1*
X2062899Y3692242D1*
Y3707762D1*
X2103091D1*
X2062899Y3675773D2*
X2103091D1*
X2062899Y3657552D2*
X2064800Y3661014D1*
X2068647Y3664437D1*
X2072449Y3666188D1*
X2078197Y3667899D1*
X2087792D1*
X2093496Y3666188D1*
X2097343Y3664437D1*
X2101145Y3661014D1*
X2103091Y3657552D1*
Y3650668D1*
X2101145Y3647246D1*
X2097343Y3643784D1*
X2093496Y3642072D1*
X2087792Y3640361D1*
X2078197D1*
X2072449Y3642072D1*
X2068647Y3643784D1*
X2064800Y3647246D1*
X2062899Y3650668D1*
Y3657552D1*
X2072493Y3630736D2*
X2070592D1*
X2066745Y3629025D1*
X2064844Y3627314D1*
X2062943Y3623852D1*
Y3616968D1*
X2064844Y3613545D1*
X2066745Y3611834D1*
X2070592Y3610083D1*
X2074395D1*
X2078242Y3611834D1*
X2083945Y3615256D1*
X2103091Y3632487D1*
Y3608372D1*
X2062943Y3579845D2*
Y3597036D1*
X2080143Y3598747D1*
X2078241Y3597036D1*
X2076296Y3591863D1*
Y3586729D1*
X2078241Y3581556D1*
X2082044Y3578094D1*
X2087792Y3576383D1*
X2091595D1*
X2097343Y3578094D1*
X2101189Y3581556D1*
X2103091Y3586729D1*
Y3591863D1*
X2101189Y3597036D1*
X2099244Y3598747D1*
X2095441Y3600498D1*
X1972449Y3715637D2*
X1968647Y3717348D1*
X1964800Y3720810D1*
X1962899Y3724233D1*
Y3731117D1*
X1964800Y3734579D1*
X1968647Y3738001D1*
X1972449Y3739752D1*
X1978197Y3741463D1*
X1987792D1*
X1993496Y3739752D1*
X1997343Y3738001D1*
X2001145Y3734579D1*
X2003091Y3731117D1*
Y3724232D1*
X2001145Y3720810D1*
X1997343Y3717348D1*
X1993496Y3715637D1*
X1987792D1*
Y3724232D1*
X1983945Y3707763D2*
Y3692243D1*
X1982044Y3687110D1*
X1980099Y3685359D1*
X1976296Y3683648D1*
X1970548D1*
X1966745Y3685359D1*
X1964800Y3687110D1*
X1962899Y3692243D1*
Y3707763D1*
X2003091D1*
X1962899Y3675774D2*
X2003091D1*
X1962899Y3657553D2*
X1964800Y3661015D1*
X1968647Y3664438D1*
X1972449Y3666189D1*
X1978197Y3667900D1*
X1987792D1*
X1993496Y3666189D1*
X1997343Y3664438D1*
X2001145Y3661015D1*
X2003091Y3657553D1*
Y3650669D1*
X2001145Y3647247D1*
X1997343Y3643785D1*
X1993496Y3642073D1*
X1987792Y3640362D1*
X1978197D1*
X1972449Y3642073D1*
X1968647Y3643785D1*
X1964800Y3647247D1*
X1962899Y3650669D1*
Y3657553D1*
X1972493Y3630737D2*
X1970592D1*
X1966745Y3629026D1*
X1964844Y3627315D1*
X1962943Y3623853D1*
Y3616969D1*
X1964844Y3613546D1*
X1966745Y3611835D1*
X1970592Y3610084D1*
X1974395D1*
X1978242Y3611835D1*
X1983945Y3615257D1*
X2003091Y3632488D1*
Y3608373D1*
X1968647Y3579846D2*
X1964844Y3581557D1*
X1962943Y3586730D1*
Y3590153D1*
X1964844Y3595326D1*
X1970592Y3598788D1*
X1980143Y3600499D1*
X1989693D1*
X1997343Y3598788D1*
X2001189Y3595326D1*
X2003091Y3590153D1*
Y3588441D1*
X2001189Y3583308D1*
X1997343Y3579846D1*
X1991595Y3578135D1*
X1989693D1*
X1983945Y3579846D1*
X1980143Y3583308D1*
X1978241Y3588442D1*
Y3590153D1*
X1980143Y3595326D1*
X1983945Y3598788D1*
X1989693Y3600499D1*
X1872449Y3715636D2*
X1868647Y3717347D1*
X1864800Y3720809D1*
X1862899Y3724231D1*
Y3731116D1*
X1864800Y3734578D1*
X1868647Y3738000D1*
X1872449Y3739751D1*
X1878197Y3741462D1*
X1887792D1*
X1893496Y3739751D1*
X1897343Y3738000D1*
X1901145Y3734578D1*
X1903091Y3731116D1*
Y3724231D1*
X1901145Y3720809D1*
X1897343Y3717347D1*
X1893496Y3715636D1*
X1887792D1*
Y3724231D1*
X1883945Y3707762D2*
Y3692242D1*
X1882044Y3687109D1*
X1880099Y3685358D1*
X1876296Y3683647D1*
X1870548D1*
X1866745Y3685358D1*
X1864800Y3687109D1*
X1862899Y3692242D1*
Y3707762D1*
X1903091D1*
X1862899Y3675773D2*
X1903091D1*
X1862899Y3657552D2*
X1864800Y3661014D1*
X1868647Y3664437D1*
X1872449Y3666188D1*
X1878197Y3667899D1*
X1887792D1*
X1893496Y3666188D1*
X1897343Y3664437D1*
X1901145Y3661014D1*
X1903091Y3657552D1*
Y3650668D1*
X1901145Y3647246D1*
X1897343Y3643784D1*
X1893496Y3642072D1*
X1887792Y3640361D1*
X1878197D1*
X1872449Y3642072D1*
X1868647Y3643784D1*
X1864800Y3647246D1*
X1862899Y3650668D1*
Y3657552D1*
X1872493Y3630736D2*
X1870592D1*
X1866745Y3629025D1*
X1864844Y3627314D1*
X1862943Y3623852D1*
Y3616968D1*
X1864844Y3613545D1*
X1866745Y3611834D1*
X1870592Y3610083D1*
X1874395D1*
X1878242Y3611834D1*
X1883945Y3615256D1*
X1903091Y3632487D1*
Y3608372D1*
Y3593614D2*
X1862943Y3576383D1*
Y3600498D1*
X1772449Y3715636D2*
X1768647Y3717347D1*
X1764800Y3720809D1*
X1762899Y3724231D1*
Y3731116D1*
X1764800Y3734578D1*
X1768647Y3738000D1*
X1772449Y3739751D1*
X1778197Y3741462D1*
X1787792D1*
X1793496Y3739751D1*
X1797343Y3738000D1*
X1801145Y3734578D1*
X1803091Y3731116D1*
Y3724231D1*
X1801145Y3720809D1*
X1797343Y3717347D1*
X1793496Y3715636D1*
X1787792D1*
Y3724231D1*
X1783945Y3707762D2*
Y3692242D1*
X1782044Y3687109D1*
X1780099Y3685358D1*
X1776296Y3683647D1*
X1770548D1*
X1766745Y3685358D1*
X1764800Y3687109D1*
X1762899Y3692242D1*
Y3707762D1*
X1803091D1*
X1762899Y3675773D2*
X1803091D1*
X1762899Y3657552D2*
X1764800Y3661014D1*
X1768647Y3664437D1*
X1772449Y3666188D1*
X1778197Y3667899D1*
X1787792D1*
X1793496Y3666188D1*
X1797343Y3664437D1*
X1801145Y3661014D1*
X1803091Y3657552D1*
Y3650668D1*
X1801145Y3647246D1*
X1797343Y3643784D1*
X1793496Y3642072D1*
X1787792Y3640361D1*
X1778197D1*
X1772449Y3642072D1*
X1768647Y3643784D1*
X1764800Y3647246D1*
X1762899Y3650668D1*
Y3657552D1*
X1762943Y3622141D2*
X1764844Y3627314D1*
X1770592Y3630776D1*
X1780143Y3632487D1*
X1785891D1*
X1795441Y3630776D1*
X1801189Y3627314D1*
X1803091Y3622141D1*
Y3618718D1*
X1801189Y3613545D1*
X1795441Y3610123D1*
X1785891Y3608372D1*
X1780143D1*
X1770592Y3610123D1*
X1764844Y3613545D1*
X1762943Y3618719D1*
Y3622141D1*
X1770592Y3610123D2*
X1795441Y3630776D1*
X1772493Y3598747D2*
X1770592D1*
X1766745Y3597036D1*
X1764844Y3595325D1*
X1762943Y3591863D1*
Y3584978D1*
X1764844Y3581556D1*
X1766745Y3579845D1*
X1770592Y3578094D1*
X1774395D1*
X1778241Y3579845D1*
X1783945Y3583267D1*
X1803091Y3600498D1*
Y3576383D1*
X1462943Y3720810D2*
Y3738001D1*
X1480143Y3739712D1*
X1478241Y3738001D1*
X1476296Y3732828D1*
Y3727695D1*
X1478241Y3722521D1*
X1482044Y3719059D1*
X1487792Y3717348D1*
X1491595D1*
X1497343Y3719059D1*
X1501189Y3722521D1*
X1503091Y3727695D1*
Y3732828D1*
X1501189Y3738001D1*
X1499244Y3739712D1*
X1495441Y3741463D1*
X1499244Y3707763D2*
X1501189Y3709474D1*
X1503091Y3707763D1*
X1501189Y3706012D1*
X1499244Y3707763D1*
X1462943Y3687792D2*
X1464844Y3692965D1*
X1470592Y3696427D1*
X1480143Y3698138D1*
X1485891D1*
X1495441Y3696427D1*
X1501189Y3692965D1*
X1503091Y3687792D1*
Y3684369D1*
X1501189Y3679196D1*
X1495441Y3675774D1*
X1485891Y3674023D1*
X1480143D1*
X1470592Y3675774D1*
X1464844Y3679196D1*
X1462943Y3684369D1*
Y3687792D1*
X1470592Y3675774D2*
X1495441Y3696427D1*
X1476296Y3666149D2*
X1503091Y3655802D1*
X1476296Y3645496D1*
X772449Y3715636D2*
X768647Y3717347D1*
X764800Y3720809D1*
X762899Y3724231D1*
Y3731115D1*
X764800Y3734577D1*
X768647Y3738000D1*
X772449Y3739751D1*
X778197Y3741462D1*
X787792D1*
X793496Y3739751D1*
X797343Y3738000D1*
X801145Y3734577D1*
X803091Y3731115D1*
Y3724231D1*
X801145Y3720809D1*
X797343Y3717347D1*
X793496Y3715635D1*
X787792Y3715636D1*
Y3724231D1*
X762899Y3683646D2*
X803091D1*
X762899Y3707762D1*
X803091Y3707761D1*
X762899Y3675772D2*
X803091D1*
Y3663715D1*
X801145Y3658542D1*
X797343Y3655079D1*
X793496Y3653368D1*
X787792Y3651657D1*
X778197D1*
X772449Y3653368D1*
X768647Y3655079D1*
X764800Y3658542D1*
X762899Y3663715D1*
Y3675772D1*
X662899Y3741463D2*
X703091Y3727694D1*
X662899Y3713926D1*
Y3706051D2*
X703091D1*
X662899Y3674062D2*
X703091D1*
X662899Y3698177D1*
X703091D1*
X668647Y3613785D2*
X664844Y3615496D1*
X662943Y3620669D1*
Y3624091D1*
X664844Y3629265D1*
X670592Y3632727D1*
X680143Y3634438D1*
X689693D1*
X697343Y3632727D1*
X701189Y3629265D1*
X703091Y3624091D1*
Y3622380D1*
X701189Y3617247D1*
X697343Y3613785D1*
X691595Y3612074D1*
X689693D1*
X683945Y3613785D1*
X680143Y3617247D1*
X678241Y3622380D1*
Y3624091D1*
X680143Y3629265D1*
X683945Y3632727D1*
X689693Y3634438D1*
X699244Y3602488D2*
X701189Y3604200D1*
X703091Y3602488D1*
X701189Y3600737D1*
X699244Y3602488D1*
X662943Y3572210D2*
Y3589401D1*
X680143Y3591112D1*
X678241Y3589401D1*
X676296Y3584228D1*
Y3579095D1*
X678241Y3573921D1*
X682044Y3570459D1*
X687792Y3568748D1*
X691595D1*
X697343Y3570459D1*
X701189Y3573921D1*
X703091Y3579095D1*
Y3584228D1*
X701189Y3589401D1*
X699244Y3591112D1*
X695441Y3592863D1*
X683017Y3529124D2*
Y3509227D1*
X662943Y3466140D2*
Y3447238D1*
X678241Y3457545D1*
Y3452371D1*
X680143Y3448949D1*
X682044Y3447238D1*
X687792Y3445487D1*
X691595D1*
X697343Y3447238D1*
X701189Y3450660D1*
X703091Y3455834D1*
Y3461007D1*
X701189Y3466140D1*
X699244Y3467851D1*
X695441Y3469602D1*
X672493Y3435862D2*
X670592D1*
X666745Y3434151D1*
X664844Y3432440D1*
X662943Y3428978D1*
Y3422093D1*
X664844Y3418671D1*
X666745Y3416960D1*
X670592Y3415209D1*
X674395D1*
X678242Y3416960D1*
X683945Y3420382D1*
X703091Y3437613D1*
Y3413498D1*
X676296Y3405624D2*
X703091Y3395277D1*
X676296Y3384971D1*
X72449Y3215636D2*
X68647Y3217347D1*
X64800Y3220809D1*
X62899Y3224231D1*
Y3231115D1*
X64800Y3234577D1*
X68647Y3238000D1*
X72449Y3239751D1*
X78197Y3241462D1*
X87792D1*
X93496Y3239751D1*
X97343Y3238000D1*
X101145Y3234577D1*
X103091Y3231115D1*
Y3224231D1*
X101145Y3220809D1*
X97343Y3217347D1*
X93496Y3215635D1*
X87792Y3215636D1*
Y3224231D1*
X62899Y3183646D2*
X103091D1*
X62899Y3207762D1*
X103091Y3207761D1*
X62899Y3175772D2*
X103091D1*
Y3163715D1*
X101145Y3158542D1*
X97343Y3155079D1*
X93496Y3153368D1*
X87792Y3151657D1*
X78197D1*
X72449Y3153368D1*
X68647Y3155079D1*
X64800Y3158542D1*
X62899Y3163715D1*
Y3175772D1*
X462943Y3220809D2*
Y3238000D1*
X480143Y3239711D1*
X478241Y3238000D1*
X476296Y3232827D1*
Y3227693D1*
X478241Y3222520D1*
X482044Y3219058D1*
X487792Y3217347D1*
X491595D1*
X497343Y3219058D1*
X501189Y3222520D1*
X503091Y3227693D1*
Y3232827D1*
X501189Y3238000D1*
X499244Y3239711D1*
X495441Y3241462D1*
X499244Y3207762D2*
X501189Y3209473D1*
X503091Y3207762D1*
X501189Y3206011D1*
X499244Y3207762D1*
X462943Y3187790D2*
X464844Y3192963D1*
X470592Y3196426D1*
X480143Y3198137D1*
X485891D1*
X495441Y3196426D1*
X501189Y3192963D1*
X503091Y3187790D1*
Y3184368D1*
X501189Y3179195D1*
X495441Y3175772D1*
X485891Y3174022D1*
X480143D1*
X470592Y3175772D1*
X464844Y3179195D1*
X462943Y3184368D1*
Y3187790D1*
X470592Y3175772D2*
X495441Y3196426D1*
X476296Y3166148D2*
X503091Y3155801D1*
X476296Y3145494D1*
X362943Y3238000D2*
Y3219098D1*
X378241Y3229404D1*
Y3224231D1*
X380143Y3220809D1*
X382044Y3219098D1*
X387792Y3217347D1*
X391595D1*
X397343Y3219098D1*
X401189Y3222520D1*
X403091Y3227693D1*
Y3232866D1*
X401189Y3238000D1*
X399244Y3239711D1*
X395441Y3241462D1*
X399244Y3207762D2*
X401189Y3209473D1*
X403091Y3207762D1*
X401189Y3206011D1*
X399244Y3207762D1*
X362943Y3194675D2*
Y3175772D1*
X378242Y3186079D1*
Y3180906D1*
X380143Y3177484D1*
X382044Y3175772D1*
X387792Y3174022D1*
X391595D1*
X397343Y3175772D1*
X401189Y3179195D1*
X403091Y3184368D1*
Y3189541D1*
X401189Y3194675D1*
X399244Y3196386D1*
X395441Y3198137D1*
X376296Y3166148D2*
X403091Y3155801D1*
X376296Y3145494D1*
X268647Y3217347D2*
X264800Y3220770D1*
X262899Y3225943D1*
Y3232827D1*
X264800Y3238001D1*
X268647Y3241463D1*
X272449D1*
X276296Y3239712D1*
X278197Y3238001D1*
X280099Y3234578D1*
X283945Y3224232D1*
X285847Y3220770D1*
X287792Y3219059D1*
X291595Y3217347D1*
X297343D1*
X301145Y3220770D1*
X303091Y3225943D1*
Y3232827D1*
X301145Y3238001D1*
X297343Y3241463D1*
X262899Y3209473D2*
X303091D1*
Y3197416D1*
X301145Y3192243D1*
X297343Y3188781D1*
X293496Y3187069D1*
X287792Y3185358D1*
X278197D1*
X272449Y3187069D1*
X268647Y3188781D1*
X264800Y3192243D1*
X262899Y3197416D1*
Y3209473D1*
X303091Y3149907D2*
X262899Y3163716D1*
X303091Y3177484D1*
X289693Y3172311D2*
Y3155080D1*
X283017Y3142033D2*
Y3122136D1*
X303091Y3086685D2*
X262899Y3100493D1*
X303091Y3114262D1*
X289693Y3109089D2*
Y3091858D1*
X168647Y3217347D2*
X164800Y3220769D1*
X162899Y3225943D1*
Y3232827D1*
X164800Y3238000D1*
X168647Y3241462D1*
X172449D1*
X176296Y3239711D1*
X178197Y3238000D1*
X180099Y3234578D1*
X183945Y3224231D1*
X185847Y3220769D1*
X187792Y3219058D1*
X191595Y3217347D1*
X197343D1*
X201145Y3220769D1*
X203091Y3225943D1*
Y3232827D1*
X201145Y3238000D1*
X197343Y3241462D1*
X172449Y3183647D2*
X168647Y3185358D1*
X164800Y3188820D1*
X162899Y3192242D1*
Y3199127D1*
X164800Y3202589D1*
X168647Y3206011D1*
X172449Y3207762D1*
X178197Y3209473D1*
X187792D1*
X193496Y3207762D1*
X197343Y3206011D1*
X201145Y3202589D1*
X203091Y3199127D1*
Y3192242D1*
X201145Y3188820D1*
X197343Y3185358D1*
X193496Y3183647D1*
X162899Y3175773D2*
X203091D1*
Y3155120D1*
X183017Y3147246D2*
Y3127349D1*
X203091Y3091897D2*
X162899Y3105706D1*
X203091Y3119475D1*
X189693Y3114301D2*
Y3097071D1*
X2374896Y2325472D2*
X2371049Y2328894D1*
X2369148Y2334068D1*
Y2340952D1*
X2371049Y2346125D1*
X2374896Y2349587D1*
X2378699D1*
X2382545Y2347836D1*
X2384447Y2346125D1*
X2386348Y2342703D1*
X2390195Y2332357D1*
X2392096Y2328894D1*
X2394041Y2327183D1*
X2397844Y2325472D1*
X2403592D1*
X2407394Y2328894D1*
X2409340Y2334068D1*
Y2340952D1*
X2407394Y2346125D1*
X2403592Y2349587D1*
X2369148Y2317598D2*
X2409340D1*
Y2305541D1*
X2407394Y2300367D1*
X2403592Y2296905D1*
X2399745Y2295194D1*
X2394041Y2293483D1*
X2384447D1*
X2378699Y2295194D1*
X2374896Y2296905D1*
X2371049Y2300367D1*
X2369148Y2305541D1*
Y2317598D1*
X2409340Y2258032D2*
X2369148Y2271840D1*
X2409340Y2285609D1*
X2395943Y2280436D2*
Y2263205D1*
X2389266Y2250158D2*
Y2230261D1*
X2409340Y2194809D2*
X2369148Y2208618D1*
X2409340Y2222387D1*
X2395943Y2217213D2*
Y2199983D1*
X2562397Y1679847D2*
X2558551Y1683269D1*
X2556649Y1688443D1*
Y1695327D1*
X2558551Y1700500D1*
X2562397Y1703962D1*
X2566200D1*
X2570047Y1702211D1*
X2571948Y1700500D1*
X2573849Y1697078D1*
X2577696Y1686731D1*
X2579597Y1683269D1*
X2581543Y1681558D1*
X2585345Y1679847D1*
X2591093D1*
X2594896Y1683269D1*
X2596841Y1688443D1*
Y1695327D1*
X2594896Y1700500D1*
X2591093Y1703962D1*
X2566200Y1646147D2*
X2562397Y1647858D1*
X2558551Y1651320D1*
X2556649Y1654742D1*
Y1661627D1*
X2558551Y1665089D1*
X2562397Y1668511D1*
X2566200Y1670262D1*
X2571948Y1671973D1*
X2581543D1*
X2587247Y1670262D1*
X2591093Y1668511D1*
X2594896Y1665089D1*
X2596841Y1661627D1*
Y1654742D1*
X2594896Y1651320D1*
X2591093Y1647858D1*
X2587247Y1646147D1*
X2556649Y1638273D2*
X2596841D1*
Y1617620D1*
X2576767Y1609746D2*
Y1589849D1*
X2596841Y1554397D2*
X2556649Y1568206D1*
X2596841Y1581975D1*
X2583444Y1576801D2*
Y1559571D1*
X3678699Y1215188D2*
X3674896Y1216899D1*
X3671049Y1220361D1*
X3669148Y1223784D1*
Y1230668D1*
X3671049Y1234130D1*
X3674896Y1237552D1*
X3678699Y1239303D1*
X3684447Y1241014D1*
X3694041D1*
X3699745Y1239303D1*
X3703592Y1237552D1*
X3707395Y1234130D1*
X3709340Y1230668D1*
Y1223783D1*
X3707395Y1220361D1*
X3703592Y1216899D1*
X3699745Y1215188D1*
X3694041D1*
Y1223784D1*
X3669148Y1183199D2*
X3709340D1*
X3669148Y1207314D1*
X3709340D1*
X3669148Y1175325D2*
X3709340D1*
Y1163267D1*
X3707395Y1158094D1*
X3703592Y1154632D1*
X3699745Y1152921D1*
X3694041Y1151210D1*
X3684447D1*
X3678699Y1152921D1*
X3674896Y1154632D1*
X3671049Y1158094D1*
X3669148Y1163267D1*
Y1175325D1*
X3762943Y1237552D2*
Y1218650D1*
X3778241Y1228957D1*
Y1223784D1*
X3780143Y1220361D1*
X3782044Y1218650D1*
X3787792Y1216899D1*
X3791595D1*
X3797343Y1218650D1*
X3801189Y1222072D1*
X3803091Y1227246D1*
Y1232419D1*
X3801189Y1237552D1*
X3799244Y1239264D1*
X3795441Y1241014D1*
X3799244Y1207314D2*
X3801189Y1209025D1*
X3803091Y1207314D1*
X3801189Y1205563D1*
X3799244Y1207314D1*
X3762943Y1194227D2*
Y1175325D1*
X3778242Y1185632D1*
Y1180458D1*
X3780143Y1177036D1*
X3782044Y1175325D1*
X3787792Y1173574D1*
X3791595D1*
X3797343Y1175325D1*
X3801189Y1178747D1*
X3803091Y1183920D1*
Y1189094D1*
X3801189Y1194227D1*
X3799244Y1195938D1*
X3795441Y1197689D1*
X3776296Y1165700D2*
X3803091Y1155354D1*
X3776296Y1145047D1*
X3762943Y536516D2*
Y517614D1*
X3778241Y527920D1*
Y522747D1*
X3780143Y519325D1*
X3782044Y517613D1*
X3787792Y515863D1*
X3791595D1*
X3797343Y517613D1*
X3801189Y521036D1*
X3803091Y526209D1*
Y531382D1*
X3801189Y536516D1*
X3799244Y538227D1*
X3795441Y539978D1*
X3799244Y506277D2*
X3801189Y507989D1*
X3803091Y506277D1*
X3801189Y504526D1*
X3799244Y506277D1*
X3762943Y493190D2*
Y474288D1*
X3778242Y484595D1*
Y479422D1*
X3780143Y475999D1*
X3782044Y474288D1*
X3787792Y472537D1*
X3791595D1*
X3797343Y474288D1*
X3801189Y477710D1*
X3803091Y482884D1*
Y488057D1*
X3801189Y493190D1*
X3799244Y494901D1*
X3795441Y496652D1*
X3776296Y464663D2*
X3803091Y454317D1*
X3776296Y444010D1*
X2270845Y1673149D2*
X2266998Y1676571D1*
X2265097Y1681744D1*
Y1688629D1*
X2266998Y1693802D1*
X2270845Y1697264D1*
X2274647D1*
X2278494Y1695513D1*
X2280395Y1693802D1*
X2282297Y1690380D1*
X2286143Y1680033D1*
X2288045Y1676571D1*
X2289990Y1674860D1*
X2293793Y1673149D1*
X2299541D1*
X2303343Y1676571D1*
X2305289Y1681744D1*
Y1688629D1*
X2303343Y1693802D1*
X2299541Y1697264D1*
X2274647Y1639448D2*
X2270845Y1641160D1*
X2266998Y1644622D1*
X2265097Y1648044D1*
Y1654928D1*
X2266998Y1658390D1*
X2270845Y1661813D1*
X2274647Y1663564D1*
X2280395Y1665275D1*
X2289990D1*
X2295694Y1663564D1*
X2299541Y1661813D1*
X2303343Y1658390D1*
X2305289Y1654928D1*
Y1648044D1*
X2303343Y1644622D1*
X2299541Y1641160D1*
X2295694Y1639448D1*
X2265097Y1631574D2*
X2305289D1*
Y1610921D1*
X2285215Y1603047D2*
Y1583150D1*
X2265097Y1575276D2*
X2305289D1*
Y1559757D1*
X2303343Y1554583D1*
X2301442Y1552872D1*
X2297639Y1551161D1*
X2291891D1*
X2288045Y1552872D1*
X2286143Y1554583D1*
X2284242Y1559757D1*
X2282297Y1554583D1*
X2280395Y1552872D1*
X2276593Y1551161D1*
X2272746D1*
X2268944Y1552872D1*
X2266998Y1554583D1*
X2265097Y1559757D1*
Y1575276D1*
X2284242D2*
Y1559757D1*
X2664596Y2325472D2*
X2660749Y2328894D1*
X2658847Y2334068D1*
Y2340952D1*
X2660749Y2346125D1*
X2664596Y2349587D1*
X2668398D1*
X2672245Y2347836D1*
X2674146Y2346125D1*
X2676047Y2342703D1*
X2679894Y2332356D1*
X2681795Y2328894D1*
X2683741Y2327183D1*
X2687543Y2325472D1*
X2693291D1*
X2697094Y2328894D1*
X2699039Y2334068D1*
Y2340952D1*
X2697094Y2346125D1*
X2693291Y2349587D1*
X2658847Y2317598D2*
X2699039D1*
Y2305540D1*
X2697094Y2300367D1*
X2693291Y2296905D1*
X2689445Y2295194D1*
X2683741Y2293483D1*
X2674146D1*
X2668398Y2295194D1*
X2664596Y2296905D1*
X2660749Y2300367D1*
X2658847Y2305540D1*
Y2317598D1*
X2699039Y2258031D2*
X2658847Y2271840D1*
X2699039Y2285609D1*
X2685642Y2280436D2*
Y2263205D1*
X2678966Y2250158D2*
Y2230261D1*
X2658847Y2222387D2*
X2699039Y2222386D1*
Y2206867D1*
X2697094Y2201694D1*
X2695193Y2199982D1*
X2691390Y2198271D1*
X2685642D1*
X2681795Y2199982D1*
X2679894Y2201694D1*
X2677993Y2206867D1*
X2676047Y2201694D1*
X2674146Y2199982D1*
X2670343Y2198271D1*
X2666497D1*
X2662694Y2199982D1*
X2660749Y2201694D1*
X2658847Y2206867D1*
Y2222387D1*
X2677993D2*
Y2206867D1*
X1922449Y1167342D2*
X1918647Y1169053D1*
X1914800Y1172515D1*
X1912899Y1175937D1*
Y1182821D1*
X1914800Y1186284D1*
X1918647Y1189706D1*
X1922449Y1191457D1*
X1928197Y1193168D1*
X1937792D1*
X1943496Y1191457D1*
X1947343Y1189706D1*
X1951145Y1186283D1*
X1953091Y1182821D1*
Y1175937D1*
X1951145Y1172515D1*
X1947343Y1169053D1*
X1943496Y1167342D1*
X1937792D1*
Y1175937D1*
X1912899Y1135352D2*
X1953091D1*
X1912899Y1159468D1*
X1953091D1*
X1912899Y1127478D2*
X1953091D1*
Y1115421D1*
X1951145Y1110248D1*
X1947343Y1106785D1*
X1943496Y1105074D1*
X1937792Y1103363D1*
X1928197D1*
X1922449Y1105074D1*
X1918647Y1106785D1*
X1914800Y1110248D1*
X1912899Y1115421D1*
Y1127478D1*
X1812943Y1195869D2*
Y1176967D1*
X1828241Y1187273D1*
Y1182100D1*
X1830143Y1178678D1*
X1832044Y1176966D1*
X1837792Y1175216D1*
X1841595D1*
X1847343Y1176966D1*
X1851189Y1180389D1*
X1853091Y1185562D1*
Y1190735D1*
X1851189Y1195869D1*
X1849244Y1197580D1*
X1845441Y1199331D1*
X1849244Y1165630D2*
X1851189Y1167342D1*
X1853091Y1165630D1*
X1851189Y1163879D1*
X1849244Y1165630D1*
X1812943Y1152543D2*
Y1133641D1*
X1828242Y1143948D1*
Y1138775D1*
X1830143Y1135352D1*
X1832044Y1133641D1*
X1837792Y1131890D1*
X1841595D1*
X1847343Y1133641D1*
X1851189Y1137063D1*
X1853091Y1142237D1*
Y1147410D1*
X1851189Y1152543D1*
X1849244Y1154254D1*
X1845441Y1156005D1*
X1826296Y1124016D2*
X1853091Y1113670D1*
X1826296Y1103363D1*
X3072449Y1117510D2*
X3068647Y1119221D1*
X3064800Y1122683D1*
X3062899Y1126105D1*
Y1132989D1*
X3064800Y1136452D1*
X3068647Y1139874D1*
X3072449Y1141625D1*
X3078197Y1143336D1*
X3087792D1*
X3093496Y1141625D1*
X3097343Y1139874D1*
X3101145Y1136451D1*
X3103091Y1132989D1*
Y1126105D1*
X3101145Y1122683D1*
X3097343Y1119221D1*
X3093496Y1117510D1*
X3087792D1*
Y1126105D1*
X3062899Y1085520D2*
X3103091D1*
X3062899Y1109636D1*
X3103091Y1109635D1*
X3062899Y1077646D2*
X3103091D1*
Y1065589D1*
X3101145Y1060416D1*
X3097343Y1056953D1*
X3093496Y1055242D1*
X3087792Y1053531D1*
X3078197D1*
X3072449Y1055242D1*
X3068647Y1056953D1*
X3064800Y1060416D1*
X3062899Y1065589D1*
Y1077646D1*
X2756862Y1122683D2*
Y1139874D1*
X2774061Y1141585D1*
X2772160Y1139874D1*
X2770215Y1134701D1*
Y1129567D1*
X2772160Y1124394D1*
X2775963Y1120932D1*
X2781711Y1119221D1*
X2785513D1*
X2791261Y1120932D1*
X2795108Y1124394D1*
X2797009Y1129567D1*
Y1134701D1*
X2795108Y1139874D1*
X2793163Y1141585D1*
X2789360Y1143336D1*
X2770215Y1111347D2*
X2797009Y1101001D1*
X2770215Y1090694D1*
X2878699Y1117511D2*
X2874896Y1119222D1*
X2871049Y1122685D1*
X2869148Y1126107D1*
Y1132991D1*
X2871049Y1136453D1*
X2874896Y1139876D1*
X2878699Y1141626D1*
X2884447Y1143338D1*
X2894041D1*
X2899745Y1141626D1*
X2903592Y1139876D1*
X2907394Y1136453D1*
X2909340Y1132991D1*
Y1126107D1*
X2907394Y1122685D1*
X2903592Y1119222D1*
X2899745Y1117511D1*
X2894041D1*
Y1126107D1*
X2890195Y1109637D2*
Y1094118D1*
X2888293Y1088984D1*
X2886348Y1087233D1*
X2882545Y1085522D1*
X2876797D1*
X2872995Y1087233D1*
X2871049Y1088984D1*
X2869148Y1094118D1*
Y1109637D1*
X2909340D1*
X2869148Y1077648D2*
X2909340D1*
X2869148Y1059428D2*
X2871049Y1062890D1*
X2874896Y1066312D1*
X2878699Y1068063D1*
X2884447Y1069774D1*
X2894041D1*
X2899745Y1068063D1*
X2903592Y1066312D1*
X2907395Y1062890D1*
X2909340Y1059428D1*
Y1052543D1*
X2907395Y1049121D1*
X2903592Y1045659D1*
X2899745Y1043948D1*
X2894041Y1042237D1*
X2884447D1*
X2878699Y1043948D1*
X2874896Y1045659D1*
X2871049Y1049121D1*
X2869148Y1052543D1*
Y1059428D1*
X2869192Y1024016D2*
X2871094Y1029189D1*
X2876842Y1032651D1*
X2886392Y1034363D1*
X2892140D1*
X2901691Y1032651D1*
X2907439Y1029189D1*
X2909340Y1024016D1*
Y1020594D1*
X2907439Y1015421D1*
X2901691Y1011998D1*
X2892140Y1010247D1*
X2886392D1*
X2876842Y1011998D1*
X2871094Y1015421D1*
X2869192Y1020594D1*
Y1024016D1*
X2876842Y1011998D2*
X2901691Y1032651D1*
X2869192Y981720D2*
Y998911D1*
X2886392Y1000622D1*
X2884491Y998911D1*
X2882545Y993738D1*
Y988605D1*
X2884491Y983431D1*
X2888293Y979969D1*
X2894041Y978258D1*
X2897844D1*
X2903592Y979969D1*
X2907439Y983431D1*
X2909340Y988605D1*
Y993738D1*
X2907439Y998911D1*
X2905493Y1000622D1*
X2901691Y1002373D1*
X1372449Y867340D2*
X1368647Y869051D1*
X1364800Y872513D1*
X1362899Y875936D1*
Y882820D1*
X1364800Y886282D1*
X1368647Y889705D1*
X1372449Y891455D1*
X1378197Y893167D1*
X1387792D1*
X1393496Y891455D1*
X1397343Y889704D1*
X1401145Y886282D1*
X1403091Y882820D1*
Y875936D1*
X1401145Y872513D1*
X1397343Y869051D1*
X1393496Y867340D1*
X1387792D1*
Y875936D1*
X1362899Y835351D2*
X1403091D1*
X1362899Y859466D1*
X1403091D1*
X1362899Y827477D2*
X1403091D1*
Y815419D1*
X1401145Y810246D1*
X1397343Y806784D1*
X1393496Y805073D1*
X1387792Y803362D1*
X1378197D1*
X1372449Y805073D1*
X1368647Y806784D1*
X1364800Y810246D1*
X1362899Y815419D1*
Y827477D1*
X1262943Y895867D2*
Y876965D1*
X1278241Y887272D1*
Y882099D1*
X1280143Y878676D1*
X1282044Y876965D1*
X1287792Y875214D1*
X1291595D1*
X1297343Y876965D1*
X1301189Y880387D1*
X1303091Y885561D1*
Y890734D1*
X1301189Y895867D1*
X1299244Y897578D1*
X1295441Y899329D1*
X1299244Y865629D2*
X1301189Y867340D1*
X1303091Y865629D1*
X1301189Y863878D1*
X1299244Y865629D1*
X1262943Y852542D2*
Y833640D1*
X1278242Y843947D1*
Y838773D1*
X1280143Y835351D1*
X1282044Y833640D1*
X1287792Y831889D1*
X1291595D1*
X1297343Y833640D1*
X1301189Y837062D1*
X1303091Y842235D1*
Y847409D1*
X1301189Y852542D1*
X1299244Y854253D1*
X1295441Y856004D1*
X1276296Y824015D2*
X1303091Y813669D1*
X1276296Y803362D1*
X1004142Y1211131D2*
X1005853Y1214933D1*
X1009315Y1218780D1*
X1012738Y1220681D1*
X1019622D1*
X1023084Y1218780D1*
X1026506Y1214933D1*
X1028257Y1211131D1*
X1029968Y1205383D1*
Y1195788D1*
X1028257Y1190084D1*
X1026506Y1186237D1*
X1023084Y1182435D1*
X1019622Y1180489D1*
X1012738D1*
X1009315Y1182435D1*
X1005853Y1186237D1*
X1004142Y1190084D1*
Y1195788D1*
X1012738D1*
X972153Y1220681D2*
Y1180489D1*
X996268Y1220681D1*
Y1180489D1*
X964279Y1220681D2*
Y1180489D1*
X952221D1*
X947048Y1182435D1*
X943586Y1186237D1*
X941875Y1190084D1*
X940164Y1195788D1*
Y1205383D1*
X941875Y1211131D1*
X943586Y1214933D1*
X947048Y1218780D1*
X952221Y1220681D1*
X964279D1*
X1004343Y511131D2*
X1006054Y514933D1*
X1009516Y518780D1*
X1012938Y520681D1*
X1019823D1*
X1023285Y518780D1*
X1026707Y514933D1*
X1028458Y511131D1*
X1030169Y505383D1*
Y495788D1*
X1028458Y490084D1*
X1026707Y486237D1*
X1023285Y482435D1*
X1019823Y480489D1*
X1012938D1*
X1009516Y482435D1*
X1006054Y486237D1*
X1004343Y490084D1*
Y495788D1*
X1012938D1*
X972354Y520681D2*
Y480489D1*
X996469Y520681D1*
Y480489D1*
X964480Y520681D2*
Y480489D1*
X952422D1*
X947249Y482435D1*
X943787Y486237D1*
X942076Y490084D1*
X940364Y495788D1*
Y505383D1*
X942076Y511131D1*
X943787Y514933D1*
X947249Y518780D1*
X952422Y520681D1*
X964480D1*
X972354Y320640D2*
X989545D1*
X991256Y303440D1*
X989545Y305341D1*
X984371Y307287D1*
X979238D1*
X974065Y305341D1*
X970603Y301539D1*
X968892Y295791D1*
Y291988D1*
X970603Y286240D1*
X974065Y282393D1*
X979238Y280492D1*
X984371D1*
X989545Y282393D1*
X991256Y284339D1*
X993007Y288141D1*
X961018Y307287D2*
X950671Y280492D1*
X940364Y307287D1*
X972153Y1020640D2*
X989344D1*
X991055Y1003440D1*
X989344Y1005341D1*
X984171Y1007287D1*
X979037D1*
X973864Y1005341D1*
X970402Y1001539D1*
X968691Y995791D1*
Y991988D1*
X970402Y986240D1*
X973864Y982393D1*
X979037Y980492D1*
X984171D1*
X989344Y982393D1*
X991055Y984339D1*
X992806Y988141D1*
X960817Y1007287D2*
X950470Y980492D1*
X940164Y1007287D1*
X1079618Y409379D2*
X1081329Y413181D1*
X1084791Y417028D1*
X1088213Y418929D1*
X1095097D1*
X1098560Y417028D1*
X1101982Y413181D1*
X1103733Y409379D1*
X1105444Y403631D1*
Y394036D1*
X1103733Y388332D1*
X1101982Y384485D1*
X1098560Y380683D1*
X1095097Y378737D1*
X1088213D1*
X1084791Y380683D1*
X1081329Y384485D1*
X1079618Y388332D1*
Y394036D1*
X1088213D1*
X1071744Y397883D2*
X1056224D1*
X1051090Y399784D1*
X1049339Y401730D1*
X1047628Y405532D1*
Y411280D1*
X1049339Y415083D1*
X1051090Y417028D1*
X1056224Y418929D1*
X1071744D1*
Y378737D1*
X1039754Y418929D2*
Y378737D1*
X1021534Y418929D2*
X1024996Y417028D1*
X1028418Y413181D1*
X1030169Y409379D1*
X1031880Y403631D1*
Y394036D1*
X1030169Y388332D1*
X1028418Y384485D1*
X1024996Y380683D1*
X1021534Y378737D1*
X1014649D1*
X1011227Y380683D1*
X1007765Y384485D1*
X1006054Y388332D1*
X1004343Y394036D1*
Y403631D1*
X1006054Y409379D1*
X1007765Y413181D1*
X1011227Y417028D1*
X1014649Y418929D1*
X1021534D1*
X994718Y409335D2*
Y411236D1*
X993007Y415083D1*
X991296Y416984D1*
X987834Y418885D1*
X980949D1*
X977527Y416984D1*
X975816Y415083D1*
X974065Y411236D1*
Y407433D1*
X975816Y403587D1*
X979238Y397883D1*
X996469Y378737D1*
X972354D1*
X957595D2*
X940364Y418885D1*
X964480D1*
X1063937Y1109376D2*
X1065648Y1113179D1*
X1069110Y1117026D1*
X1072532Y1118927D1*
X1079417D1*
X1082879Y1117026D1*
X1086301Y1113179D1*
X1088052Y1109376D1*
X1089763Y1103628D1*
Y1094033D1*
X1088052Y1088330D1*
X1086301Y1084483D1*
X1082879Y1080680D1*
X1079417Y1078735D1*
X1072532D1*
X1069110Y1080680D1*
X1065648Y1084483D1*
X1063937Y1088330D1*
Y1094033D1*
X1072532D1*
X1056063Y1097880D2*
X1040543D1*
X1035410Y1099781D1*
X1033659Y1101727D1*
X1031948Y1105530D1*
Y1111278D1*
X1033659Y1115080D1*
X1035410Y1117026D1*
X1040543Y1118927D1*
X1056063D1*
Y1078735D1*
X1024074Y1118927D2*
Y1078735D1*
X1005853Y1118927D2*
X1009315Y1117026D1*
X1012738Y1113179D1*
X1014488Y1109376D1*
X1016200Y1103628D1*
Y1094033D1*
X1014488Y1088330D1*
X1012738Y1084483D1*
X1009315Y1080680D1*
X1005853Y1078735D1*
X998969D1*
X995547Y1080680D1*
X992084Y1084483D1*
X990373Y1088330D1*
X988662Y1094033D1*
Y1103628D1*
X990373Y1109376D1*
X992084Y1113179D1*
X995547Y1117026D1*
X998969Y1118927D1*
X1005853D1*
X980788Y1111233D2*
X977326Y1113179D1*
X972153Y1118883D1*
Y1078735D1*
X962528Y1109332D2*
Y1111233D1*
X960817Y1115080D1*
X959106Y1116981D1*
X955643Y1118883D1*
X948759D1*
X945337Y1116981D1*
X943626Y1115080D1*
X941875Y1111233D1*
Y1107431D1*
X943626Y1103584D1*
X947048Y1097880D1*
X964279Y1078735D1*
X940164D1*
X2622449Y323759D2*
X2618647Y325470D1*
X2614800Y328932D1*
X2612899Y332354D1*
Y339239D1*
X2614800Y342701D1*
X2618647Y346123D1*
X2622449Y347874D1*
X2628197Y349585D1*
X2637792D1*
X2643496Y347874D1*
X2647343Y346123D1*
X2651145Y342701D1*
X2653091Y339239D1*
Y332354D1*
X2651145Y328932D1*
X2647343Y325470D1*
X2643496Y323759D1*
X2637792D1*
Y332354D1*
X2612899Y291770D2*
X2653091D1*
X2612899Y315885D1*
X2653091D1*
X2612899Y283896D2*
X2653091D1*
Y271838D1*
X2651145Y266665D1*
X2647343Y263203D1*
X2643496Y261492D1*
X2637792Y259781D1*
X2628197D1*
X2622449Y261492D1*
X2618647Y263203D1*
X2614800Y266665D1*
X2612899Y271838D1*
Y283896D1*
X2713112Y291432D2*
Y308623D1*
X2730312Y310335D1*
X2728411Y308623D1*
X2726465Y303450D1*
Y298317D1*
X2728411Y293144D1*
X2732213Y289681D1*
X2737961Y287970D1*
X2741764D1*
X2747512Y289681D1*
X2751359Y293144D1*
X2753260Y298317D1*
Y303450D1*
X2751359Y308623D1*
X2749413Y310335D1*
X2745611Y312085D1*
X2726465Y280096D2*
X2753260Y269750D1*
X2726465Y259443D1*
X2522449Y383554D2*
X2518647Y385265D1*
X2514800Y388727D1*
X2512899Y392149D1*
Y399034D1*
X2514800Y402496D1*
X2518647Y405918D1*
X2522449Y407669D1*
X2528197Y409380D1*
X2537792D1*
X2543496Y407669D1*
X2547343Y405918D1*
X2551145Y402496D1*
X2553091Y399034D1*
Y392149D1*
X2551145Y388727D1*
X2547343Y385265D1*
X2543496Y383554D1*
X2537792D1*
Y392149D1*
X2533945Y375680D2*
Y360160D1*
X2532044Y355027D1*
X2530099Y353276D1*
X2526296Y351564D1*
X2520548Y351565D1*
X2516745Y353276D1*
X2514800Y355027D1*
X2512899Y360160D1*
Y375680D1*
X2553091D1*
X2512899Y343690D2*
X2553091D1*
X2512899Y325470D2*
X2514800Y328932D1*
X2518647Y332354D1*
X2522449Y334105D1*
X2528197Y335816D1*
X2537792D1*
X2543496Y334105D1*
X2547343Y332354D1*
X2551145Y328932D1*
X2553091Y325470D1*
Y318586D1*
X2551145Y315163D1*
X2547343Y311701D1*
X2543496Y309990D1*
X2537792Y308279D1*
X2528197D1*
X2522449Y309990D1*
X2518647Y311701D1*
X2514800Y315163D1*
X2512899Y318586D1*
Y325470D1*
X2520592Y300405D2*
X2518647Y296943D1*
X2512943Y291770D1*
X2553091D1*
Y277011D2*
X2512943Y259781D1*
Y283896D1*
X2422449Y381803D2*
X2418647Y383514D1*
X2414800Y386976D1*
X2412899Y390398D1*
Y397283D1*
X2414800Y400745D1*
X2418647Y404167D1*
X2422449Y405918D1*
X2428197Y407629D1*
X2437792D1*
X2443496Y405918D1*
X2447343Y404167D1*
X2451145Y400745D1*
X2453091Y397283D1*
Y390398D1*
X2451145Y386976D1*
X2447343Y383514D1*
X2443496Y381803D1*
X2437792D1*
Y390398D1*
X2433945Y373929D2*
Y358409D1*
X2432044Y353276D1*
X2430099Y351525D1*
X2426296Y349814D1*
X2420548D1*
X2416745Y351525D1*
X2414800Y353276D1*
X2412899Y358409D1*
Y373929D1*
X2453091D1*
X2412899Y341940D2*
X2453091D1*
X2412899Y323719D2*
X2414800Y327181D1*
X2418647Y330603D1*
X2422449Y332354D1*
X2428197Y334066D1*
X2437792D1*
X2443496Y332354D1*
X2447343Y330603D1*
X2451145Y327181D1*
X2453091Y323719D1*
Y316835D1*
X2451145Y313412D1*
X2447343Y309950D1*
X2443496Y308239D1*
X2437792Y306528D1*
X2428197D1*
X2422449Y308239D1*
X2418647Y309950D1*
X2414800Y313412D1*
X2412899Y316835D1*
Y323719D1*
X2420592Y298654D2*
X2418647Y295192D1*
X2412943Y290019D1*
X2453091D1*
X2418647Y261492D2*
X2414844Y263203D1*
X2412943Y268376D1*
Y271798D1*
X2414844Y276972D1*
X2420592Y280434D1*
X2430143Y282145D1*
X2439693D1*
X2447343Y280434D1*
X2451189Y276972D1*
X2453091Y271798D1*
Y270087D1*
X2451189Y264954D1*
X2447343Y261492D1*
X2441595Y259781D1*
X2439693D1*
X2433945Y261492D1*
X2430143Y264954D1*
X2428241Y270087D1*
Y271798D1*
X2430143Y276972D1*
X2433945Y280434D1*
X2439693Y282145D1*
X2826465Y306952D2*
X2853260D1*
X2834115D2*
X2828367Y301779D1*
X2826465Y298317D1*
Y293183D1*
X2828367Y289721D1*
X2834115Y288010D1*
X2853260D1*
X2832213Y259443D2*
X2828367Y262905D1*
X2826465Y266367D1*
Y271501D1*
X2828367Y274963D1*
X2832213Y278385D1*
X2837961Y280136D1*
X2841764D1*
X2847512Y278385D1*
X2851314Y274963D1*
X2853260Y271501D1*
Y266367D1*
X2851314Y262905D1*
X2847512Y259443D1*
X3387678Y539978D2*
Y519325D1*
X3383831D1*
X3379984Y521036D1*
X3378083Y522747D1*
X3376182Y526209D1*
Y531382D1*
X3378083Y534805D1*
X3381930Y538267D1*
X3387678Y539978D1*
X3391480D1*
X3397228Y538267D1*
X3401031Y534805D1*
X3402976Y531382D1*
Y526209D1*
X3401031Y522747D1*
X3397228Y519325D1*
X3376182Y511451D2*
X3402977D1*
X3383831D2*
X3378083Y506278D1*
X3376182Y502816D1*
Y497682D1*
X3378083Y494220D1*
X3383831Y492509D1*
X3402976D1*
X3352305Y539978D2*
Y500383D1*
X3276182Y539978D2*
X3302976D1*
X3283831D2*
X3278083Y534805D1*
X3276182Y531343D1*
Y526210D1*
X3278083Y522748D1*
X3283831Y521036D1*
X3302976D1*
X3281930Y492470D2*
X3278083Y495932D1*
X3276182Y499394D1*
Y504527D1*
X3278083Y507989D1*
X3281930Y511411D1*
X3287678Y513162D1*
X3291480D1*
X3297228Y511411D1*
X3301031Y507989D1*
X3302977Y504527D1*
X3302976Y499394D1*
X3301031Y495932D1*
X3297228Y492470D1*
X3176182Y539978D2*
X3202976D1*
X3183831D2*
X3178083Y534805D1*
X3176182Y531343D1*
Y526210D1*
X3178083Y522748D1*
X3183831Y521036D1*
X3202976D1*
X3181930Y492470D2*
X3178083Y495932D1*
X3176182Y499394D1*
Y504527D1*
X3178083Y507989D1*
X3181930Y511411D1*
X3187678Y513162D1*
X3191480D1*
X3197228Y511411D1*
X3201031Y507989D1*
X3202977Y504527D1*
X3202976Y499394D1*
X3201031Y495932D1*
X3197228Y492470D1*
X3076182Y539978D2*
X3102976D1*
X3083831D2*
X3078083Y534805D1*
X3076182Y531343D1*
Y526210D1*
X3078083Y522748D1*
X3083831Y521036D1*
X3102976D1*
X3081930Y492470D2*
X3078083Y495932D1*
X3076182Y499394D1*
Y504527D1*
X3078083Y507989D1*
X3081930Y511411D1*
X3087678Y513162D1*
X3091480D1*
X3097228Y511411D1*
X3101031Y507989D1*
X3102977Y504527D1*
X3102976Y499394D1*
X3101031Y495932D1*
X3097228Y492470D1*
X2976182Y1139978D2*
X3002976D1*
X2983831D2*
X2978083Y1134805D1*
X2976182Y1131343D1*
Y1126210D1*
X2978083Y1122748D1*
X2983831Y1121036D1*
X3002976D1*
X2981930Y1092470D2*
X2978083Y1095932D1*
X2976182Y1099394D1*
Y1104527D1*
X2978083Y1107989D1*
X2981930Y1111411D1*
X2987678Y1113162D1*
X2991480D1*
X2997228Y1111411D1*
X3001031Y1107989D1*
X3002977Y1104527D1*
X3002976Y1099394D1*
X3001031Y1095932D1*
X2997228Y1092470D1*
X962943Y3720809D2*
Y3738000D1*
X980143Y3739711D1*
X978241Y3738000D1*
X976296Y3732827D1*
Y3727693D1*
X978241Y3722520D1*
X982044Y3719058D1*
X987792Y3717347D1*
X991595D1*
X997343Y3719058D1*
X1001189Y3722520D1*
X1003091Y3727693D1*
Y3732827D1*
X1001189Y3738000D1*
X999244Y3739711D1*
X995441Y3741462D1*
X999244Y3707762D2*
X1001189Y3709473D1*
X1003091Y3707762D1*
X1001189Y3706011D1*
X999244Y3707762D1*
X962943Y3687790D2*
X964844Y3692963D1*
X970592Y3696426D1*
X980143Y3698137D1*
X985891D1*
X995441Y3696426D1*
X1001189Y3692963D1*
X1003091Y3687790D1*
Y3684368D1*
X1001189Y3679195D1*
X995441Y3675772D1*
X985891Y3674022D1*
X980143D1*
X970592Y3675772D1*
X964844Y3679195D1*
X962943Y3684368D1*
Y3687790D1*
X970592Y3675772D2*
X995441Y3696426D1*
X976296Y3666148D2*
X1003091Y3655801D1*
X976296Y3645494D1*
X1472449Y927135D2*
X1468647Y928846D1*
X1464800Y932308D1*
X1462899Y935731D1*
Y942615D1*
X1464800Y946077D1*
X1468647Y949499D1*
X1472449Y951250D1*
X1478197Y952961D1*
X1487792D1*
X1493496Y951250D1*
X1497343Y949499D1*
X1501145Y946077D1*
X1503091Y942615D1*
Y935731D1*
X1501145Y932308D1*
X1497343Y928846D1*
X1493496Y927135D1*
X1487792D1*
Y935731D1*
X1483945Y919261D2*
Y903741D1*
X1482044Y898608D1*
X1480099Y896857D1*
X1476296Y895146D1*
X1470548D1*
X1466745Y896857D1*
X1464800Y898608D1*
X1462899Y903741D1*
Y919261D1*
X1503091D1*
X1462899Y887272D2*
X1503091D1*
X1462899Y869051D2*
X1464800Y872513D1*
X1468647Y875936D1*
X1472449Y877687D1*
X1478197Y879398D1*
X1487792D1*
X1493496Y877687D1*
X1497343Y875936D1*
X1501145Y872513D1*
X1503091Y869051D1*
Y862167D1*
X1501145Y858745D1*
X1497343Y855283D1*
X1493496Y853571D1*
X1487792Y851860D1*
X1478197D1*
X1472449Y853572D1*
X1468647Y855283D1*
X1464800Y858745D1*
X1462899Y862167D1*
Y869051D1*
X1472493Y842235D2*
X1470592D1*
X1466745Y840524D1*
X1464844Y838813D1*
X1462943Y835351D1*
Y828467D1*
X1464844Y825044D1*
X1466745Y823333D1*
X1470592Y821582D1*
X1474395D1*
X1478241Y823333D1*
X1483945Y826756D1*
X1503091Y843986D1*
Y819871D1*
X1470592Y811997D2*
X1468647Y808535D1*
X1462943Y803362D1*
X1503091D1*
X1572449Y942615D2*
X1568647Y944326D1*
X1564800Y947788D1*
X1562899Y951210D1*
Y958095D1*
X1564800Y961557D1*
X1568647Y964979D1*
X1572449Y966730D1*
X1578197Y968441D1*
X1587792D1*
X1593496Y966730D1*
X1597343Y964979D1*
X1601145Y961557D1*
X1603091Y958095D1*
Y951210D1*
X1601145Y947788D1*
X1597343Y944326D1*
X1593496Y942615D1*
X1587792D1*
Y951210D1*
X1583945Y934741D2*
Y919221D1*
X1582044Y914088D1*
X1580099Y912337D1*
X1576296Y910626D1*
X1570548D1*
X1566745Y912337D1*
X1564800Y914088D1*
X1562899Y919221D1*
Y934741D1*
X1603091D1*
X1562899Y902752D2*
X1603091D1*
X1562899Y884531D2*
X1564800Y887993D1*
X1568647Y891416D1*
X1572449Y893167D1*
X1578197Y894878D1*
X1587792D1*
X1593496Y893167D1*
X1597343Y891416D1*
X1601145Y887993D1*
X1603091Y884531D1*
Y877647D1*
X1601145Y874225D1*
X1597343Y870763D1*
X1593496Y869051D1*
X1587792Y867340D1*
X1578197D1*
X1572449Y869051D1*
X1568647Y870763D1*
X1564800Y874225D1*
X1562899Y877647D1*
Y884531D1*
X1572493Y857715D2*
X1570592D1*
X1566745Y856004D1*
X1564844Y854293D1*
X1562943Y850831D1*
Y843947D1*
X1564844Y840524D1*
X1566745Y838813D1*
X1570592Y837062D1*
X1574395D1*
X1578242Y838813D1*
X1583945Y842235D1*
X1603091Y859466D1*
Y835351D1*
X1572493Y825726D2*
X1570592D1*
X1566745Y824015D1*
X1564844Y822304D1*
X1562943Y818842D1*
Y811957D1*
X1564844Y808535D1*
X1566745Y806824D1*
X1570592Y805073D1*
X1574395D1*
X1578241Y806824D1*
X1583945Y810246D1*
X1603091Y827477D1*
Y803362D1*
X1672449Y942615D2*
X1668647Y944326D1*
X1664800Y947788D1*
X1662899Y951210D1*
Y958095D1*
X1664800Y961557D1*
X1668647Y964979D1*
X1672449Y966730D1*
X1678197Y968441D1*
X1687792D1*
X1693496Y966730D1*
X1697343Y964979D1*
X1701145Y961557D1*
X1703091Y958095D1*
Y951210D1*
X1701145Y947788D1*
X1697343Y944326D1*
X1693496Y942615D1*
X1687792D1*
Y951210D1*
X1683945Y934741D2*
Y919221D1*
X1682044Y914088D1*
X1680099Y912337D1*
X1676296Y910626D1*
X1670548D1*
X1666745Y912337D1*
X1664800Y914088D1*
X1662899Y919221D1*
Y934741D1*
X1703091D1*
X1662899Y902752D2*
X1703091D1*
X1662899Y884531D2*
X1664800Y887993D1*
X1668647Y891416D1*
X1672449Y893167D1*
X1678197Y894878D1*
X1687792D1*
X1693496Y893167D1*
X1697343Y891416D1*
X1701145Y887993D1*
X1703091Y884531D1*
Y877647D1*
X1701145Y874225D1*
X1697343Y870763D1*
X1693496Y869051D1*
X1687792Y867340D1*
X1678197D1*
X1672449Y869051D1*
X1668647Y870763D1*
X1664800Y874225D1*
X1662899Y877647D1*
Y884531D1*
X1672493Y857715D2*
X1670592D1*
X1666745Y856004D1*
X1664844Y854293D1*
X1662943Y850831D1*
Y843947D1*
X1664844Y840524D1*
X1666745Y838813D1*
X1670592Y837062D1*
X1674395D1*
X1678242Y838813D1*
X1683945Y842235D1*
X1703091Y859466D1*
Y835351D1*
X1662943Y824015D2*
Y805113D1*
X1678241Y815419D1*
Y810246D1*
X1680143Y806824D1*
X1682044Y805113D1*
X1687792Y803362D1*
X1691595D1*
X1697343Y805113D1*
X1701189Y808535D1*
X1703091Y813708D1*
Y818882D1*
X1701189Y824015D1*
X1699244Y825726D1*
X1695441Y827477D1*
X1972449Y925424D2*
X1968647Y927135D1*
X1964800Y930597D1*
X1962899Y934019D1*
Y940904D1*
X1964800Y944366D1*
X1968647Y947788D1*
X1972449Y949539D1*
X1978197Y951250D1*
X1987792D1*
X1993496Y949539D1*
X1997343Y947788D1*
X2001145Y944366D1*
X2003091Y940904D1*
Y934019D1*
X2001145Y930597D1*
X1997343Y927135D1*
X1993496Y925424D1*
X1987792D1*
Y934019D1*
X1983945Y917550D2*
Y902030D1*
X1982044Y896897D1*
X1980099Y895146D1*
X1976296Y893435D1*
X1970548D1*
X1966745Y895146D1*
X1964800Y896897D1*
X1962899Y902030D1*
Y917550D1*
X2003091D1*
X1962899Y885561D2*
X2003091D1*
X1962899Y867340D2*
X1964800Y870802D1*
X1968647Y874225D1*
X1972449Y875976D1*
X1978197Y877687D1*
X1987792D1*
X1993496Y875976D1*
X1997343Y874225D1*
X2001145Y870802D1*
X2003091Y867340D1*
Y860456D1*
X2001145Y857034D1*
X1997343Y853571D1*
X1993496Y851860D1*
X1987792Y850149D1*
X1978197D1*
X1972449Y851860D1*
X1968647Y853572D1*
X1964800Y857034D1*
X1962899Y860456D1*
Y867340D1*
X1970592Y842275D2*
X1968647Y838813D1*
X1962943Y833640D1*
X2003091D1*
X1976296Y803362D2*
X1982044Y805113D1*
X1985891Y808535D1*
X1987792Y813708D1*
Y815419D1*
X1985891Y820593D1*
X1982044Y824015D1*
X1976296Y825766D1*
X1974395D1*
X1968647Y824015D1*
X1964844Y820593D1*
X1962943Y815419D1*
Y813708D1*
X1964844Y808535D1*
X1968647Y805113D1*
X1976296Y803362D1*
X1985891D1*
X1995441Y805113D1*
X2001189Y808535D1*
X2003091Y813708D1*
Y817131D1*
X2001189Y822304D1*
X1997343Y824015D1*
X1622449Y1225425D2*
X1618647Y1227136D1*
X1614800Y1230598D1*
X1612899Y1234021D1*
Y1240905D1*
X1614800Y1244367D1*
X1618647Y1247790D1*
X1622449Y1249540D1*
X1628197Y1251252D1*
X1637792D1*
X1643496Y1249540D1*
X1647343Y1247789D1*
X1651145Y1244367D1*
X1653091Y1240905D1*
Y1234021D1*
X1651145Y1230598D1*
X1647343Y1227136D1*
X1643496Y1225425D1*
X1637792D1*
Y1234021D1*
X1633945Y1217551D2*
Y1202032D1*
X1632044Y1196898D1*
X1630099Y1195147D1*
X1626296Y1193436D1*
X1620548D1*
X1616745Y1195147D1*
X1614800Y1196898D1*
X1612899Y1202032D1*
Y1217551D1*
X1653091D1*
X1612899Y1185562D2*
X1653091D1*
X1612899Y1167342D2*
X1614800Y1170804D1*
X1618647Y1174226D1*
X1622449Y1175977D1*
X1628197Y1177688D1*
X1637792D1*
X1643496Y1175977D1*
X1647343Y1174226D1*
X1651145Y1170804D1*
X1653091Y1167342D1*
Y1160457D1*
X1651145Y1157035D1*
X1647343Y1153573D1*
X1643496Y1151862D1*
X1637792Y1150151D1*
X1628197D1*
X1622449Y1151862D1*
X1618647Y1153573D1*
X1614800Y1157035D1*
X1612899Y1160457D1*
Y1167342D1*
X1620592Y1142277D2*
X1618647Y1138814D1*
X1612943Y1133641D1*
X1653091D1*
X1626296Y1103363D2*
X1632044Y1105114D1*
X1635891Y1108536D1*
X1637792Y1113710D1*
Y1115421D1*
X1635891Y1120594D1*
X1632044Y1124016D1*
X1626296Y1125767D1*
X1624395D1*
X1618647Y1124016D1*
X1614844Y1120594D1*
X1612943Y1115421D1*
Y1113710D1*
X1614844Y1108536D1*
X1618647Y1105114D1*
X1626296Y1103363D1*
X1635891D1*
X1645441Y1105114D1*
X1651189Y1108536D1*
X1653091Y1113710D1*
Y1117132D1*
X1651189Y1122305D1*
X1647343Y1124016D1*
X1522449Y1227136D2*
X1518647Y1228848D1*
X1514800Y1232310D1*
X1512899Y1235732D1*
Y1242616D1*
X1514800Y1246078D1*
X1518647Y1249501D1*
X1522449Y1251252D1*
X1528197Y1252963D1*
X1537792D1*
X1543496Y1251252D1*
X1547343Y1249501D1*
X1551145Y1246078D1*
X1553091Y1242616D1*
Y1235732D1*
X1551145Y1232310D1*
X1547343Y1228848D1*
X1543496Y1227136D1*
X1537792D1*
Y1235732D1*
X1533945Y1219262D2*
Y1203743D1*
X1532044Y1198609D1*
X1530099Y1196858D1*
X1526296Y1195147D1*
X1520548D1*
X1516745Y1196858D1*
X1514800Y1198609D1*
X1512899Y1203743D1*
Y1219262D1*
X1553091D1*
X1512899Y1187273D2*
X1553091D1*
X1512899Y1169053D2*
X1514800Y1172515D1*
X1518647Y1175937D1*
X1522449Y1177688D1*
X1528197Y1179399D1*
X1537792D1*
X1543496Y1177688D1*
X1547343Y1175937D1*
X1551145Y1172515D1*
X1553091Y1169053D1*
Y1162168D1*
X1551145Y1158746D1*
X1547343Y1155284D1*
X1543496Y1153573D1*
X1537792Y1151862D1*
X1528197D1*
X1522449Y1153573D1*
X1518647Y1155284D1*
X1514800Y1158746D1*
X1512899Y1162168D1*
Y1169053D1*
X1522493Y1142237D2*
X1520592D1*
X1516745Y1140526D1*
X1514844Y1138814D1*
X1512943Y1135352D1*
Y1128468D1*
X1514844Y1125046D1*
X1516745Y1123335D1*
X1520592Y1121584D1*
X1524395D1*
X1528241Y1123335D1*
X1533945Y1126757D1*
X1553091Y1143988D1*
Y1119872D1*
X1520592Y1111999D2*
X1518647Y1108536D1*
X1512943Y1103363D1*
X1553091D1*
X1422449Y1242616D2*
X1418647Y1244327D1*
X1414800Y1247790D1*
X1412899Y1251212D1*
Y1258096D1*
X1414800Y1261558D1*
X1418647Y1264981D1*
X1422449Y1266731D1*
X1428197Y1268443D1*
X1437792D1*
X1443496Y1266731D1*
X1447343Y1264981D1*
X1451145Y1261558D1*
X1453091Y1258096D1*
Y1251212D1*
X1451145Y1247789D1*
X1447343Y1244327D1*
X1443496Y1242616D1*
X1437792D1*
Y1251212D1*
X1433945Y1234742D2*
Y1219223D1*
X1432044Y1214089D1*
X1430099Y1212338D1*
X1426296Y1210627D1*
X1420548D1*
X1416745Y1212338D1*
X1414800Y1214089D1*
X1412899Y1219223D1*
Y1234742D1*
X1453091D1*
X1412899Y1202753D2*
X1453091D1*
X1412899Y1184533D2*
X1414800Y1187995D1*
X1418647Y1191417D1*
X1422449Y1193168D1*
X1428197Y1194879D1*
X1437792D1*
X1443496Y1193168D1*
X1447343Y1191417D1*
X1451145Y1187995D1*
X1453091Y1184533D1*
Y1177648D1*
X1451145Y1174226D1*
X1447343Y1170764D1*
X1443496Y1169053D1*
X1437792Y1167342D1*
X1428197D1*
X1422449Y1169053D1*
X1418647Y1170764D1*
X1414800Y1174226D1*
X1412899Y1177648D1*
Y1184533D1*
X1422493Y1157717D2*
X1420592D1*
X1416745Y1156005D1*
X1414844Y1154294D1*
X1412943Y1150832D1*
Y1143948D1*
X1414844Y1140526D1*
X1416745Y1138814D1*
X1420592Y1137064D1*
X1424395D1*
X1428242Y1138814D1*
X1433945Y1142237D1*
X1453091Y1159468D1*
Y1135352D1*
X1412943Y1124016D2*
Y1105114D1*
X1428241Y1115421D1*
Y1110248D1*
X1430143Y1106825D1*
X1432044Y1105114D1*
X1437792Y1103363D1*
X1441595D1*
X1447343Y1105114D1*
X1451189Y1108536D1*
X1453091Y1113710D1*
Y1118883D1*
X1451189Y1124016D1*
X1449244Y1125727D1*
X1445441Y1127478D1*
X1322449Y1242616D2*
X1318647Y1244327D1*
X1314800Y1247790D1*
X1312899Y1251212D1*
Y1258096D1*
X1314800Y1261558D1*
X1318647Y1264981D1*
X1322449Y1266731D1*
X1328197Y1268443D1*
X1337792D1*
X1343496Y1266731D1*
X1347343Y1264981D1*
X1351145Y1261558D1*
X1353091Y1258096D1*
Y1251212D1*
X1351145Y1247789D1*
X1347343Y1244327D1*
X1343496Y1242616D1*
X1337792D1*
Y1251212D1*
X1333945Y1234742D2*
Y1219223D1*
X1332044Y1214089D1*
X1330099Y1212338D1*
X1326296Y1210627D1*
X1320548D1*
X1316745Y1212338D1*
X1314800Y1214089D1*
X1312899Y1219223D1*
Y1234742D1*
X1353091D1*
X1312899Y1202753D2*
X1353091D1*
X1312899Y1184533D2*
X1314800Y1187995D1*
X1318647Y1191417D1*
X1322449Y1193168D1*
X1328197Y1194879D1*
X1337792D1*
X1343496Y1193168D1*
X1347343Y1191417D1*
X1351145Y1187995D1*
X1353091Y1184533D1*
Y1177648D1*
X1351145Y1174226D1*
X1347343Y1170764D1*
X1343496Y1169053D1*
X1337792Y1167342D1*
X1328197D1*
X1322449Y1169053D1*
X1318647Y1170764D1*
X1314800Y1174226D1*
X1312899Y1177648D1*
Y1184533D1*
X1322493Y1157717D2*
X1320592D1*
X1316745Y1156005D1*
X1314844Y1154294D1*
X1312943Y1150832D1*
Y1143948D1*
X1314844Y1140526D1*
X1316745Y1138814D1*
X1320592Y1137064D1*
X1324395D1*
X1328242Y1138814D1*
X1333945Y1142237D1*
X1353091Y1159468D1*
Y1135352D1*
X1322493Y1125727D2*
X1320592D1*
X1316745Y1124016D1*
X1314844Y1122305D1*
X1312943Y1118843D1*
Y1111959D1*
X1314844Y1108536D1*
X1316745Y1106825D1*
X1320592Y1105074D1*
X1324395D1*
X1328241Y1106825D1*
X1333945Y1110248D1*
X1353091Y1127478D1*
Y1103363D1*
X1772449Y927095D2*
X1768647Y928806D1*
X1764800Y932269D1*
X1762899Y935691D1*
Y942575D1*
X1764800Y946037D1*
X1768647Y949460D1*
X1772449Y951210D1*
X1778197Y952922D1*
X1787792D1*
X1793496Y951210D1*
X1797343Y949460D1*
X1801145Y946037D1*
X1803091Y942575D1*
Y935691D1*
X1801145Y932268D1*
X1797343Y928806D1*
X1793496Y927095D1*
X1787792D1*
Y935691D1*
X1783945Y919221D2*
Y903702D1*
X1782044Y898568D1*
X1780099Y896817D1*
X1776296Y895106D1*
X1770548D1*
X1766745Y896817D1*
X1764800Y898568D1*
X1762899Y903702D1*
Y919221D1*
X1803091D1*
X1762899Y887232D2*
X1803091D1*
X1762899Y869012D2*
X1764800Y872474D1*
X1768647Y875896D1*
X1772449Y877647D1*
X1778197Y879358D1*
X1787792D1*
X1793496Y877647D1*
X1797343Y875896D1*
X1801145Y872474D1*
X1803091Y869012D1*
Y862127D1*
X1801145Y858705D1*
X1797343Y855243D1*
X1793496Y853532D1*
X1787792Y851821D1*
X1778197D1*
X1772449Y853532D1*
X1768647Y855243D1*
X1764800Y858705D1*
X1762899Y862127D1*
Y869012D1*
X1770592Y843947D2*
X1768647Y840485D1*
X1762943Y835311D1*
X1803091D1*
X1762943Y818842D2*
X1764844Y823975D1*
X1768647Y825726D1*
X1772493D1*
X1776296Y823975D1*
X1778241Y820553D1*
X1780143Y813669D1*
X1782044Y808495D1*
X1785891Y805073D1*
X1789693Y803362D1*
X1795441D1*
X1799244Y805073D1*
X1801189Y806784D1*
X1803091Y811957D1*
Y818842D1*
X1801189Y823975D1*
X1799244Y825726D1*
X1795441Y827437D1*
X1789693D1*
X1785891Y825726D1*
X1782044Y822264D1*
X1780143Y817131D1*
X1778241Y810246D1*
X1776296Y806784D1*
X1772493Y805073D1*
X1768647D1*
X1764844Y806784D1*
X1762943Y811957D1*
Y818842D1*
X1722449Y1227097D2*
X1718647Y1228808D1*
X1714800Y1232270D1*
X1712899Y1235692D1*
Y1242576D1*
X1714800Y1246039D1*
X1718647Y1249461D1*
X1722449Y1251212D1*
X1728197Y1252923D1*
X1737792D1*
X1743496Y1251212D1*
X1747343Y1249461D1*
X1751145Y1246039D1*
X1753091Y1242576D1*
Y1235692D1*
X1751145Y1232270D1*
X1747343Y1228808D1*
X1743496Y1227097D1*
X1737792D1*
Y1235692D1*
X1733945Y1219223D2*
Y1203703D1*
X1732044Y1198569D1*
X1730099Y1196819D1*
X1726296Y1195107D1*
X1720548D1*
X1716745Y1196819D1*
X1714800Y1198569D1*
X1712899Y1203703D1*
Y1219223D1*
X1753091D1*
X1712899Y1187233D2*
X1753091D1*
X1712899Y1169013D2*
X1714800Y1172475D1*
X1718647Y1175897D1*
X1722449Y1177648D1*
X1728197Y1179359D1*
X1737792D1*
X1743496Y1177648D1*
X1747343Y1175897D1*
X1751145Y1172475D1*
X1753091Y1169013D1*
Y1162129D1*
X1751145Y1158706D1*
X1747343Y1155244D1*
X1743496Y1153533D1*
X1737792Y1151822D1*
X1728197D1*
X1722449Y1153533D1*
X1718647Y1155244D1*
X1714800Y1158706D1*
X1712899Y1162129D1*
Y1169013D1*
X1720592Y1143948D2*
X1718647Y1140486D1*
X1712943Y1135313D1*
X1753091D1*
X1712943Y1118843D2*
X1714844Y1123977D1*
X1718647Y1125727D1*
X1722493D1*
X1726296Y1123977D1*
X1728241Y1120554D1*
X1730143Y1113670D1*
X1732044Y1108497D1*
X1735891Y1105074D1*
X1739693Y1103363D1*
X1745441D1*
X1749244Y1105074D1*
X1751189Y1106785D1*
X1753091Y1111959D1*
Y1118843D1*
X1751189Y1123976D1*
X1749244Y1125727D1*
X1745441Y1127439D1*
X1739693D1*
X1735891Y1125727D1*
X1732044Y1122265D1*
X1730143Y1117132D1*
X1728241Y1110248D1*
X1726296Y1106785D1*
X1722493Y1105074D1*
X1718647D1*
X1714844Y1106785D1*
X1712943Y1111959D1*
Y1118843D1*
X2090372Y2906991D2*
Y2880197D1*
Y2899342D2*
X2085199Y2905090D1*
X2081737Y2906991D1*
X2076603D1*
X2073141Y2905090D1*
X2071430Y2899342D1*
Y2880197D1*
X2042863Y2901243D2*
X2046325Y2905090D1*
X2049787Y2906991D1*
X2054921D1*
X2058383Y2905090D1*
X2061805Y2901243D1*
X2063556Y2895495D1*
Y2891693D1*
X2061805Y2885945D1*
X2058383Y2882142D1*
X2054921Y2880197D1*
X2049787D1*
X2046325Y2882142D1*
X2042863Y2885945D1*
X2090372Y2806991D2*
Y2780197D1*
Y2799342D2*
X2085199Y2805090D1*
X2081737Y2806991D1*
X2076603D1*
X2073141Y2805090D1*
X2071430Y2799342D1*
Y2780197D1*
X2042863Y2801243D2*
X2046325Y2805090D1*
X2049787Y2806991D1*
X2054921D1*
X2058383Y2805090D1*
X2061805Y2801243D1*
X2063556Y2795495D1*
Y2791693D1*
X2061805Y2785945D1*
X2058383Y2782142D1*
X2054921Y2780197D1*
X2049787D1*
X2046325Y2782142D1*
X2042863Y2785945D1*
X2090372Y3106991D2*
Y3080197D1*
Y3099342D2*
X2085199Y3105090D1*
X2081737Y3106991D1*
X2076603D1*
X2073141Y3105090D1*
X2071430Y3099342D1*
Y3080197D1*
X2042863Y3101243D2*
X2046325Y3105090D1*
X2049787Y3106991D1*
X2054921D1*
X2058383Y3105090D1*
X2061805Y3101243D1*
X2063556Y3095495D1*
Y3091693D1*
X2061805Y3085945D1*
X2058383Y3082142D1*
X2054921Y3080197D1*
X2049787D1*
X2046325Y3082142D1*
X2042863Y3085945D1*
X1715592Y3439521D2*
Y3399329D1*
X1727649Y3439521D2*
X1703534D1*
X1671545Y3433773D2*
X1674967Y3437620D1*
X1680140Y3439521D1*
X1687025D1*
X1692198Y3437620D1*
X1695660Y3433773D1*
Y3429971D1*
X1693909Y3426124D1*
X1692198Y3424223D1*
X1688776Y3422321D1*
X1678429Y3418475D1*
X1674967Y3416573D1*
X1673256Y3414628D1*
X1671545Y3410825D1*
Y3405077D1*
X1674967Y3401275D1*
X1680140Y3399329D1*
X1687025D1*
X1692198Y3401275D1*
X1695660Y3405077D1*
X1663671Y3420376D2*
X1648191D1*
X1643018Y3422321D1*
X1641267Y3424223D1*
X1639556Y3428025D1*
Y3431872D1*
X1641267Y3435675D1*
X1643018Y3437620D1*
X1648191Y3439521D1*
X1663671D1*
Y3399329D1*
X1651613Y3420376D2*
X1639556Y3399329D1*
X1631682Y3431828D2*
X1628219Y3433773D1*
X1623046Y3439477D1*
Y3399329D1*
X1613421Y3429927D2*
Y3431828D1*
X1611710Y3435675D1*
X1609999Y3437576D1*
X1606537Y3439477D1*
X1599653D1*
X1596230Y3437576D1*
X1594519Y3435675D1*
X1592768Y3431828D1*
Y3428025D1*
X1594519Y3424179D1*
X1597941Y3418475D1*
X1615172Y3399329D1*
X1591057D1*
X1565952D2*
Y3439477D1*
X1583183Y3412727D1*
X1557357D1*
X1528829Y3439477D2*
X1546021D1*
X1547732Y3422277D1*
X1546021Y3424179D1*
X1540847Y3426124D1*
X1535714D1*
X1530541Y3424179D1*
X1527079Y3420376D1*
X1525367Y3414628D1*
Y3410825D1*
X1527079Y3405077D1*
X1530541Y3401231D1*
X1535714Y3399329D1*
X1540847D1*
X1546021Y3401231D1*
X1547732Y3403176D1*
X1549483Y3406979D1*
X1507147Y3439477D2*
X1512320Y3437576D1*
X1515782Y3431828D1*
X1517493Y3422277D1*
Y3416529D1*
X1515782Y3406979D1*
X1512320Y3401231D1*
X1507147Y3399329D1*
X1503725D1*
X1498551Y3401231D1*
X1495129Y3406979D1*
X1493378Y3416529D1*
Y3422277D1*
X1495129Y3431828D1*
X1498551Y3437576D1*
X1503725Y3439477D1*
X1507147D1*
X1495129Y3431828D2*
X1515782Y3406979D1*
X1445158Y3426124D2*
X1448580Y3424223D1*
X1452043Y3420376D1*
X1453754Y3414628D1*
Y3410825D1*
X1452043Y3405077D1*
X1448580Y3401275D1*
X1445158Y3399329D1*
X1439985D1*
X1436523Y3401275D1*
X1433101Y3405077D1*
X1431350Y3410825D1*
Y3414628D1*
X1433101Y3420376D1*
X1436523Y3424223D1*
X1439985Y3426124D1*
X1445158D1*
X1423476D2*
Y3399329D1*
Y3414628D2*
X1421725Y3420376D1*
X1418302Y3424223D1*
X1414840Y3426124D1*
X1409667D1*
X1363158Y3399329D2*
X1345927Y3439477D1*
X1370043D1*
X1329458D2*
X1334591Y3437576D1*
X1336342Y3433773D1*
Y3429927D1*
X1334591Y3426124D1*
X1331169Y3424179D1*
X1324285Y3422277D1*
X1319111Y3420376D1*
X1315689Y3416529D1*
X1313978Y3412727D1*
Y3406979D1*
X1315689Y3403176D1*
X1317400Y3401231D1*
X1322574Y3399329D1*
X1329458D1*
X1334591Y3401231D1*
X1336342Y3403176D1*
X1338053Y3406979D1*
Y3412727D1*
X1336342Y3416529D1*
X1332880Y3420376D1*
X1327747Y3422277D1*
X1320862Y3424179D1*
X1317400Y3426124D1*
X1315689Y3429927D1*
Y3433773D1*
X1317400Y3437576D1*
X1322574Y3439477D1*
X1329458D1*
X1295758D2*
X1300931Y3437576D1*
X1304393Y3431828D1*
X1306104Y3422277D1*
Y3416529D1*
X1304393Y3406979D1*
X1300931Y3401231D1*
X1295758Y3399329D1*
X1292335D1*
X1287162Y3401231D1*
X1283740Y3406979D1*
X1281989Y3416529D1*
Y3422277D1*
X1283740Y3431828D1*
X1287162Y3437576D1*
X1292335Y3439477D1*
X1295758D1*
X1283740Y3431828D2*
X1304393Y3406979D1*
X1253462Y3439477D2*
X1270653D1*
X1272364Y3422277D1*
X1270653Y3424179D1*
X1265479Y3426124D1*
X1260346D1*
X1255173Y3424179D1*
X1251711Y3420376D1*
X1250000Y3414628D1*
Y3410825D1*
X1251711Y3405077D1*
X1255173Y3401231D1*
X1260346Y3399329D1*
X1265479D1*
X1270653Y3401231D1*
X1272364Y3403176D1*
X1274115Y3406979D1*
X653092Y2902020D2*
Y2861828D1*
X665149Y2902020D2*
X641034D1*
X609045Y2896272D2*
X612467Y2900119D1*
X617640Y2902020D1*
X624525D1*
X629698Y2900119D1*
X633160Y2896272D1*
Y2892469D1*
X631409Y2888623D1*
X629698Y2886721D1*
X626276Y2884820D1*
X615929Y2880973D1*
X612467Y2879072D1*
X610756Y2877127D1*
X609045Y2873324D1*
Y2867576D1*
X612467Y2863774D1*
X617640Y2861828D1*
X624525D1*
X629698Y2863774D1*
X633160Y2867576D1*
X601171Y2882875D2*
X585691D1*
X580518Y2884820D1*
X578767Y2886721D1*
X577056Y2890524D1*
Y2894371D1*
X578767Y2898173D1*
X580518Y2900119D1*
X585691Y2902020D1*
X601171D1*
Y2861828D1*
X589113Y2882875D2*
X577056Y2861828D1*
X569182Y2894327D2*
X565719Y2896272D1*
X560546Y2901976D1*
Y2861828D1*
X550921Y2892425D2*
Y2894327D1*
X549210Y2898173D1*
X547499Y2900075D1*
X544037Y2901976D1*
X537153D1*
X533730Y2900075D1*
X532019Y2898173D1*
X530268Y2894327D1*
Y2890524D1*
X532019Y2886677D1*
X535441Y2880973D1*
X552672Y2861828D1*
X528557D1*
X503452D2*
Y2901976D1*
X520683Y2875225D1*
X494857D1*
X483521Y2901976D2*
X464618D1*
X474925Y2886677D1*
X469752D1*
X466329Y2884776D1*
X464618Y2882875D1*
X462867Y2877127D1*
Y2873324D1*
X464618Y2867576D1*
X468041Y2863729D1*
X473214Y2861828D1*
X478387D1*
X483521Y2863729D1*
X485232Y2865675D1*
X486983Y2869477D1*
X451531Y2901976D2*
X432629D1*
X442936Y2886677D1*
X437763D1*
X434340Y2884776D1*
X432629Y2882875D1*
X430878Y2877127D1*
Y2873324D1*
X432629Y2867576D1*
X436051Y2863729D1*
X441225Y2861828D1*
X446398D1*
X451531Y2863729D1*
X453242Y2865675D1*
X454993Y2869477D1*
X382658Y2888623D2*
X386080Y2886721D1*
X389543Y2882875D1*
X391254Y2877127D1*
Y2873324D1*
X389543Y2867576D1*
X386080Y2863774D1*
X382658Y2861828D1*
X377485D1*
X374023Y2863774D1*
X370601Y2867576D1*
X368850Y2873324D1*
Y2877127D1*
X370601Y2882875D1*
X374023Y2886721D1*
X377485Y2888623D1*
X382658D1*
X360976D2*
Y2861828D1*
Y2877127D2*
X359225Y2882875D1*
X355802Y2886721D1*
X352340Y2888623D1*
X347167D1*
X300658Y2861828D2*
X283427Y2901976D1*
X307543D1*
X266958D2*
X272091Y2900075D1*
X273842Y2896272D1*
Y2892425D1*
X272091Y2888623D1*
X268669Y2886677D1*
X261785Y2884776D1*
X256611Y2882875D1*
X253189Y2879028D1*
X251478Y2875225D1*
Y2869477D1*
X253189Y2865675D1*
X254900Y2863729D1*
X260074Y2861828D1*
X266958D1*
X272091Y2863729D1*
X273842Y2865675D1*
X275553Y2869477D1*
Y2875225D1*
X273842Y2879028D1*
X270380Y2882875D1*
X265247Y2884776D1*
X258362Y2886677D1*
X254900Y2888623D1*
X253189Y2892425D1*
Y2896272D1*
X254900Y2900075D1*
X260074Y2901976D1*
X266958D1*
X240142D2*
X221240D1*
X231546Y2886677D1*
X226373D1*
X222951Y2884776D1*
X221240Y2882875D1*
X219489Y2877127D1*
Y2873324D1*
X221240Y2867576D1*
X224662Y2863729D1*
X229835Y2861828D1*
X235008D1*
X240142Y2863729D1*
X241853Y2865675D1*
X243604Y2869477D1*
X208153Y2901976D2*
X189251D1*
X199557Y2886677D1*
X194384D1*
X190962Y2884776D1*
X189251Y2882875D1*
X187500Y2877127D1*
Y2873324D1*
X189251Y2867576D1*
X192673Y2863729D1*
X197846Y2861828D1*
X203019D1*
X208153Y2863729D1*
X209864Y2865675D1*
X211615Y2869477D1*
X561062Y3772886D2*
D71*
X562202Y3775771D1*
X565651Y3777197D1*
X569100D1*
X572549Y3775771D1*
X573690Y3772886D1*
X572549Y3770034D1*
X570241Y3768575D1*
X564510Y3767149D1*
X562202Y3765723D1*
X561062Y3762838D1*
Y3761412D1*
X562202Y3758560D1*
X565651Y3757101D1*
X569100D1*
X572549Y3758560D1*
X573690Y3761412D1*
X547920Y3777197D2*
X550202Y3775771D1*
X552510Y3772886D1*
X553651Y3768575D1*
Y3765723D1*
X552510Y3761412D1*
X550202Y3758560D1*
X547920Y3757101D1*
X544472D1*
X542164Y3758560D1*
X539882Y3761412D1*
X538715Y3765723D1*
Y3768575D1*
X539882Y3772886D1*
X542164Y3775771D1*
X544472Y3777197D1*
X547920D1*
X531304Y3787245D2*
Y3757101D1*
X510124Y3787245D2*
Y3757101D1*
Y3772886D2*
X512406Y3775771D1*
X514714Y3777197D1*
X518163D1*
X520444Y3775771D1*
X522752Y3772886D1*
X523893Y3768575D1*
Y3765723D1*
X522752Y3761412D1*
X520444Y3758560D1*
X518163Y3757101D1*
X514714D1*
X512406Y3758560D1*
X510124Y3761412D1*
X502714Y3768575D2*
X488945D1*
Y3771460D1*
X490086Y3774345D1*
X491226Y3775771D1*
X493534Y3777197D1*
X496983D1*
X499265Y3775771D1*
X501573Y3772886D1*
X502714Y3768575D1*
Y3765723D1*
X501573Y3761412D1*
X499265Y3758560D1*
X496983Y3757101D1*
X493534D1*
X491226Y3758560D1*
X488945Y3761412D1*
X481534Y3777197D2*
Y3757101D1*
Y3768575D2*
X480367Y3772886D1*
X478085Y3775771D1*
X475777Y3777197D1*
X472328D1*
X438140Y3787245D2*
Y3762838D1*
X436999Y3758560D1*
X434691Y3757101D1*
X432410D1*
X441589Y3777197D2*
X433551D1*
X419269D2*
X421550Y3775771D1*
X423858Y3772886D1*
X424999Y3768575D1*
Y3765723D1*
X423858Y3761412D1*
X421550Y3758560D1*
X419269Y3757101D1*
X415820D1*
X413512Y3758560D1*
X411230Y3761412D1*
X410063Y3765723D1*
Y3768575D1*
X411230Y3772886D1*
X413512Y3775771D1*
X415820Y3777197D1*
X419269D1*
X379324D2*
Y3762838D1*
X378183Y3758560D1*
X375875Y3757101D1*
X372426D1*
X370144Y3758560D1*
X366696Y3762838D1*
Y3777197D2*
Y3757101D1*
X346657Y3772886D2*
X347798Y3775771D1*
X351246Y3777197D1*
X354695D1*
X358144Y3775771D1*
X359285Y3772886D1*
X358144Y3770034D1*
X355836Y3768575D1*
X350106Y3767149D1*
X347798Y3765723D1*
X346657Y3762838D1*
Y3761412D1*
X347798Y3758560D1*
X351246Y3757101D1*
X354695D1*
X358144Y3758560D1*
X359285Y3761412D1*
X339246Y3768575D2*
X325477D1*
Y3771460D1*
X326618Y3774345D1*
X327759Y3775771D1*
X330067Y3777197D1*
X333516D1*
X335797Y3775771D1*
X338105Y3772886D1*
X339246Y3768575D1*
Y3765723D1*
X338105Y3761412D1*
X335797Y3758560D1*
X333516Y3757101D1*
X330067D1*
X327759Y3758560D1*
X325477Y3761412D1*
X289008Y3777197D2*
X291289Y3775771D1*
X293597Y3772886D1*
X294738Y3768575D1*
Y3765723D1*
X293597Y3761412D1*
X291289Y3758560D1*
X289008Y3757101D1*
X285559D1*
X283251Y3758560D1*
X280969Y3761412D1*
X279802Y3765723D1*
Y3768575D1*
X280969Y3772886D1*
X283251Y3775771D1*
X285559Y3777197D1*
X289008D1*
X272391D2*
Y3757101D1*
Y3771460D2*
X268942Y3775771D1*
X266634Y3777197D1*
X263212D1*
X260904Y3775771D1*
X259763Y3771460D1*
Y3757101D1*
X252352Y3787245D2*
Y3757101D1*
Y3772886D2*
X250044Y3775771D1*
X247763Y3777197D1*
X244314D1*
X242032Y3775771D1*
X239724Y3772886D1*
X238583Y3768575D1*
Y3765723D1*
X239724Y3761412D1*
X242032Y3758560D1*
X244314Y3757101D1*
X247763D1*
X250044Y3758560D1*
X252352Y3761412D1*
X225442Y3777197D2*
X227724Y3775771D1*
X230032Y3772886D1*
X231173Y3768575D1*
Y3765723D1*
X230032Y3761412D1*
X227724Y3758560D1*
X225442Y3757101D1*
X221993D1*
X219685Y3758560D1*
X217404Y3761412D1*
X216237Y3765723D1*
Y3768575D1*
X217404Y3772886D1*
X219685Y3775771D1*
X221993Y3777197D1*
X225442D1*
X195057D2*
Y3757101D1*
Y3772886D2*
X197339Y3775771D1*
X199647Y3777197D1*
X203069D1*
X205377Y3775771D1*
X207658Y3772886D1*
X208826Y3768575D1*
Y3765723D1*
X207658Y3761412D1*
X205377Y3758560D1*
X203069Y3757101D1*
X199647D1*
X197339Y3758560D1*
X195057Y3761412D1*
X187646Y3777197D2*
Y3757101D1*
Y3768575D2*
X186479Y3772886D1*
X184197Y3775771D1*
X181889Y3777197D1*
X178440D1*
X157261Y3787245D2*
Y3757101D1*
Y3772886D2*
X159542Y3775771D1*
X161850Y3777197D1*
X165299D1*
X167581Y3775771D1*
X169889Y3772886D1*
X171030Y3768575D1*
Y3765723D1*
X169889Y3761412D1*
X167581Y3758560D1*
X165299Y3757101D1*
X161850D1*
X159542Y3758560D1*
X157261Y3761412D1*
X124214Y3787212D2*
X111612D1*
X118483Y3775738D1*
X115034D1*
X112753Y3774312D1*
X111612Y3772886D1*
X110445Y3768575D1*
Y3765723D1*
X111612Y3761412D1*
X113894Y3758527D1*
X117342Y3757101D1*
X120791D1*
X124214Y3758527D1*
X125354Y3759986D1*
X126522Y3762838D1*
X101893Y3759986D2*
X103034Y3758527D1*
X101893Y3757101D1*
X100726Y3758527D1*
X101893Y3759986D1*
X91007Y3787212D2*
X78406D1*
X85277Y3775738D1*
X81828D1*
X79546Y3774312D1*
X78406Y3772886D1*
X77238Y3768575D1*
Y3765723D1*
X78406Y3761412D1*
X80687Y3758527D1*
X84136Y3757101D1*
X87585D1*
X91007Y3758527D1*
X92148Y3759986D1*
X93315Y3762838D1*
X69827Y3777197D2*
X62930Y3757101D1*
X56059Y3777197D1*
X634868Y2827021D2*
D70*
X638330Y2825120D1*
X641753Y2821273D1*
X643504Y2817471D1*
X645215Y2811723D1*
Y2802128D1*
X643504Y2796424D1*
X641753Y2792577D1*
X638330Y2788775D1*
X634868Y2786829D1*
X627984D1*
X624562Y2788775D1*
X621100Y2792577D1*
X619388Y2796424D1*
X617677Y2802128D1*
Y2811723D1*
X619388Y2817471D1*
X621100Y2821273D1*
X624562Y2825120D1*
X627984Y2827021D1*
X634868D1*
X609803Y2813624D2*
Y2773432D1*
Y2807876D2*
X606341Y2811679D1*
X602919Y2813624D1*
X597746D1*
X594284Y2811679D1*
X590861Y2807876D1*
X589110Y2802128D1*
Y2798281D1*
X590861Y2792577D1*
X594284Y2788731D1*
X597746Y2786829D1*
X602919D1*
X606341Y2788731D1*
X609803Y2792577D1*
X576063Y2827021D2*
Y2794479D1*
X574352Y2788775D1*
X570890Y2786829D1*
X567468D1*
X581236Y2813624D2*
X569179D1*
X559594Y2827021D2*
X557882Y2825120D1*
X556132Y2827021D1*
X557882Y2828967D1*
X559594Y2827021D1*
X557882Y2813624D2*
Y2786829D1*
X539662Y2813624D2*
X543084Y2811723D1*
X546546Y2807876D1*
X548257Y2802128D1*
Y2798325D1*
X546546Y2792577D1*
X543084Y2788775D1*
X539662Y2786829D1*
X534489D1*
X531027Y2788775D1*
X527604Y2792577D1*
X525853Y2798325D1*
Y2802128D1*
X527604Y2807876D1*
X531027Y2811723D1*
X534489Y2813624D1*
X539662D1*
X517979D2*
Y2786829D1*
Y2805975D2*
X512806Y2811723D1*
X509344Y2813624D1*
X504211D1*
X500749Y2811723D1*
X499037Y2805975D1*
Y2786829D1*
X470510Y2813624D2*
Y2786829D1*
Y2807876D2*
X473933Y2811723D1*
X477395Y2813624D1*
X482528D1*
X485990Y2811723D1*
X489412Y2807876D1*
X491163Y2802128D1*
Y2798325D1*
X489412Y2792577D1*
X485990Y2788775D1*
X482528Y2786829D1*
X477395D1*
X473933Y2788775D1*
X470510Y2792577D1*
X462636Y2827021D2*
Y2786829D1*
X419550Y2826977D2*
X400648D1*
X410954Y2811679D1*
X405781D1*
X402359Y2809777D1*
X400648Y2807876D1*
X398897Y2802128D1*
Y2798325D1*
X400648Y2792577D1*
X404070Y2788731D1*
X409243Y2786829D1*
X414416D1*
X419550Y2788731D1*
X421261Y2790676D1*
X423012Y2794479D1*
X389311Y2790676D2*
X391023Y2788731D1*
X389311Y2786829D1*
X387561Y2788731D1*
X389311Y2790676D1*
X376224Y2826977D2*
X357322D1*
X367629Y2811679D1*
X362456D1*
X359033Y2809777D1*
X357322Y2807876D1*
X355571Y2802128D1*
Y2798325D1*
X357322Y2792577D1*
X360745Y2788731D1*
X365918Y2786829D1*
X371091D1*
X376224Y2788731D1*
X377936Y2790676D1*
X379686Y2794479D1*
X347697Y2813624D2*
X337351Y2786829D1*
X327044Y2813624D1*
X287420Y2807876D2*
X271940D1*
X266767Y2809821D1*
X265016Y2811723D1*
X263304Y2815525D1*
Y2819372D1*
X265016Y2823175D1*
X266767Y2825120D1*
X271940Y2827021D1*
X287420D1*
Y2786829D1*
X275362Y2807876D2*
X263304Y2786829D1*
X255430Y2802128D2*
X234777D1*
Y2805975D1*
X236488Y2809821D1*
X238200Y2811723D1*
X241662Y2813624D1*
X246835D1*
X250257Y2811723D1*
X253719Y2807876D1*
X255430Y2802128D1*
Y2798325D1*
X253719Y2792577D1*
X250257Y2788775D1*
X246835Y2786829D1*
X241662D1*
X238200Y2788775D1*
X234777Y2792577D1*
X206250Y2811723D2*
Y2781081D1*
X207961Y2775377D1*
X209673Y2773432D1*
X213135Y2771531D1*
X218308D1*
X221730Y2773432D1*
X206250Y2805975D2*
X209673Y2809777D1*
X213135Y2811723D1*
X218308D1*
X221730Y2809777D1*
X225192Y2805975D1*
X226903Y2800227D1*
Y2796380D1*
X225192Y2790676D1*
X221730Y2786829D1*
X218308Y2784928D1*
X213135D1*
X209673Y2786829D1*
X206250Y2790676D1*
X698368Y390630D2*
X700079Y394432D1*
X703541Y398279D1*
X706964Y400180D1*
X713848D1*
X717310Y398279D1*
X720732Y394432D1*
X722483Y390630D1*
X724195Y384882D1*
Y375287D1*
X722483Y369583D1*
X720732Y365736D1*
X717310Y361934D1*
X713848Y359988D1*
X706964D1*
X703541Y361934D1*
X700079Y365736D1*
X698368Y369583D1*
Y375287D1*
X706964D1*
X690494Y379133D2*
X674975D1*
X669841Y381035D1*
X668090Y382980D1*
X666379Y386783D1*
Y392531D1*
X668090Y396333D1*
X669841Y398279D1*
X674975Y400180D1*
X690494D1*
Y359988D1*
X658505Y400180D2*
Y359988D1*
X640285Y400180D2*
X643747Y398279D1*
X647169Y394432D1*
X648920Y390630D1*
X650631Y384882D1*
Y375287D1*
X648920Y369583D1*
X647169Y365736D1*
X643747Y361934D1*
X640285Y359988D1*
X633400D1*
X629978Y361934D1*
X626516Y365736D1*
X624805Y369583D1*
X623093Y375287D1*
Y384882D1*
X624805Y390630D1*
X626516Y394432D1*
X629978Y398279D1*
X633400Y400180D1*
X640285D1*
X613469Y390585D2*
Y392487D1*
X611757Y396333D1*
X610046Y398235D1*
X606584Y400136D1*
X599700D1*
X596277Y398235D1*
X594566Y396333D1*
X592815Y392487D1*
Y388684D1*
X594566Y384837D1*
X597989Y379133D1*
X615219Y359988D1*
X591104D1*
X576346D2*
X559115Y400136D1*
X583230D1*
X682688Y1084376D2*
X684399Y1088179D1*
X687861Y1092026D1*
X691283Y1093927D1*
X698167D1*
X701630Y1092026D1*
X705052Y1088179D1*
X706803Y1084376D1*
X708514Y1078628D1*
Y1069033D1*
X706803Y1063330D1*
X705052Y1059483D1*
X701630Y1055680D1*
X698167Y1053735D1*
X691283D1*
X687861Y1055680D1*
X684399Y1059483D1*
X682688Y1063330D1*
Y1069033D1*
X691283D1*
X674814Y1072880D2*
X659294D1*
X654160Y1074781D1*
X652409Y1076727D1*
X650698Y1080530D1*
Y1086278D1*
X652409Y1090080D1*
X654160Y1092026D1*
X659294Y1093927D1*
X674814D1*
Y1053735D1*
X642824Y1093927D2*
Y1053735D1*
X624604Y1093927D2*
X628066Y1092026D1*
X631488Y1088179D1*
X633239Y1084376D1*
X634950Y1078628D1*
Y1069033D1*
X633239Y1063330D1*
X631488Y1059483D1*
X628066Y1055680D1*
X624604Y1053735D1*
X617719D1*
X614297Y1055680D1*
X610835Y1059483D1*
X609124Y1063330D1*
X607413Y1069033D1*
Y1078628D1*
X609124Y1084376D1*
X610835Y1088179D1*
X614297Y1092026D1*
X617719Y1093927D1*
X624604D1*
X599539Y1086233D2*
X596077Y1088179D1*
X590903Y1093883D1*
Y1053735D1*
X581279Y1084332D2*
Y1086233D1*
X579567Y1090080D1*
X577856Y1091981D1*
X574394Y1093883D1*
X567510D1*
X564087Y1091981D1*
X562376Y1090080D1*
X560625Y1086233D1*
Y1082431D1*
X562376Y1078584D1*
X565799Y1072880D1*
X583029Y1053735D1*
X558914D1*
X1617240Y3324329D2*
Y3364521D1*
X1631008Y3324329D1*
X1644777Y3364521D1*
Y3324329D1*
X1588712Y3351124D2*
Y3324329D1*
Y3345376D2*
X1592135Y3349223D1*
X1595597Y3351124D1*
X1600730D1*
X1604192Y3349223D1*
X1607615Y3345376D1*
X1609366Y3339628D1*
Y3335825D1*
X1607615Y3330077D1*
X1604192Y3326275D1*
X1600730Y3324329D1*
X1595597D1*
X1592135Y3326275D1*
X1588712Y3330077D1*
X1580838Y3364521D2*
X1579127Y3362620D1*
X1577376Y3364521D1*
X1579127Y3366467D1*
X1580838Y3364521D1*
X1579127Y3351124D2*
Y3324329D1*
X1569502Y3351124D2*
Y3324329D1*
Y3343475D2*
X1564329Y3349223D1*
X1560867Y3351124D1*
X1555734D1*
X1552271Y3349223D1*
X1550560Y3343475D1*
Y3324329D1*
X1490283Y3364477D2*
X1507474D1*
X1509185Y3347277D1*
X1507474Y3349179D1*
X1502301Y3351124D1*
X1497167D1*
X1491994Y3349179D1*
X1488532Y3345376D1*
X1486821Y3339628D1*
Y3335825D1*
X1488532Y3330077D1*
X1491994Y3326231D1*
X1497167Y3324329D1*
X1502301D1*
X1507474Y3326231D1*
X1509185Y3328176D1*
X1510936Y3331979D1*
X1478947Y3351124D2*
X1468600Y3324329D1*
X1458294Y3351124D1*
X1418669Y3345376D2*
X1403189D1*
X1398016Y3347321D1*
X1396265Y3349223D1*
X1394554Y3353025D1*
Y3356872D1*
X1396265Y3360675D1*
X1398016Y3362620D1*
X1403189Y3364521D1*
X1418669D1*
Y3324329D1*
X1406611Y3345376D2*
X1394554Y3324329D1*
X1386680Y3339628D2*
X1366027D1*
Y3343475D1*
X1367738Y3347321D1*
X1369449Y3349223D1*
X1372911Y3351124D1*
X1378084D1*
X1381507Y3349223D1*
X1384969Y3345376D1*
X1386680Y3339628D1*
Y3335825D1*
X1384969Y3330077D1*
X1381507Y3326275D1*
X1378084Y3324329D1*
X1372911D1*
X1369449Y3326275D1*
X1366027Y3330077D1*
X1337500Y3349223D2*
Y3318581D1*
X1339211Y3312877D1*
X1340922Y3310932D1*
X1344384Y3309031D1*
X1349557D1*
X1352979Y3310932D1*
X1337500Y3343475D2*
X1340922Y3347277D1*
X1344384Y3349223D1*
X1349557D1*
X1352979Y3347277D1*
X1356442Y3343475D1*
X1358153Y3337727D1*
Y3333880D1*
X1356442Y3328176D1*
X1352979Y3324329D1*
X1349557Y3322428D1*
X1344384D1*
X1340922Y3324329D1*
X1337500Y3328176D1*
X1744376Y2733272D2*
X1730608Y2693080D1*
X1716839Y2733272D1*
X1700369Y2719875D2*
X1703792Y2717973D1*
X1707254Y2714127D1*
X1708965Y2708379D1*
Y2704576D1*
X1707254Y2698828D1*
X1703792Y2695025D1*
X1700369Y2693080D1*
X1695196D1*
X1691734Y2695025D1*
X1688312Y2698828D1*
X1686561Y2704576D1*
Y2708379D1*
X1688312Y2714127D1*
X1691734Y2717973D1*
X1695196Y2719875D1*
X1700369D1*
X1678687Y2733272D2*
Y2693080D1*
X1665640Y2733272D2*
Y2700729D1*
X1663928Y2695025D1*
X1660466Y2693080D1*
X1657044D1*
X1670813Y2719875D2*
X1658755D1*
X1628517D2*
Y2693080D1*
Y2714127D2*
X1631939Y2717973D1*
X1635401Y2719875D1*
X1640535D1*
X1643997Y2717973D1*
X1647419Y2714127D1*
X1649170Y2708379D1*
Y2704576D1*
X1647419Y2698828D1*
X1643997Y2695025D1*
X1640535Y2693080D1*
X1635401D1*
X1631939Y2695025D1*
X1628517Y2698828D1*
X1599990Y2717973D2*
Y2687332D1*
X1601701Y2681628D1*
X1603412Y2679683D1*
X1606874Y2677781D1*
X1612047D1*
X1615470Y2679683D1*
X1599990Y2712225D2*
X1603412Y2716028D1*
X1606874Y2717973D1*
X1612047D1*
X1615470Y2716028D1*
X1618932Y2712225D1*
X1620643Y2706477D1*
Y2702631D1*
X1618932Y2696927D1*
X1615470Y2693080D1*
X1612047Y2691179D1*
X1606874D1*
X1603412Y2693080D1*
X1599990Y2696927D1*
X1592116Y2708379D2*
X1571463D1*
Y2712225D1*
X1573174Y2716072D1*
X1574885Y2717973D1*
X1578347Y2719875D1*
X1583520D1*
X1586943Y2717973D1*
X1590405Y2714127D1*
X1592116Y2708379D1*
Y2704576D1*
X1590405Y2698828D1*
X1586943Y2695025D1*
X1583520Y2693080D1*
X1578347D1*
X1574885Y2695025D1*
X1571463Y2698828D1*
X1511185Y2733272D2*
Y2693080D1*
Y2714127D2*
X1514607Y2717973D1*
X1518069Y2719875D1*
X1523243D1*
X1526665Y2717973D1*
X1530127Y2714127D1*
X1531838Y2708379D1*
Y2704576D1*
X1530127Y2698828D1*
X1526665Y2695025D1*
X1523243Y2693080D1*
X1518069D1*
X1514607Y2695025D1*
X1511185Y2698828D1*
X1503311Y2733272D2*
X1501600Y2731371D1*
X1499849Y2733272D1*
X1501600Y2735217D1*
X1503311Y2733272D1*
X1501600Y2719875D2*
Y2693080D1*
X1491975Y2719875D2*
X1481628Y2693080D1*
X1471322Y2719875D1*
X1463448Y2733272D2*
X1461737Y2731371D1*
X1459986Y2733272D1*
X1461737Y2735217D1*
X1463448Y2733272D1*
X1461737Y2719875D2*
Y2693080D1*
X1431459Y2733272D2*
Y2693080D1*
Y2714127D2*
X1434881Y2717973D1*
X1438343Y2719875D1*
X1443516D1*
X1446938Y2717973D1*
X1450401Y2714127D1*
X1452112Y2708379D1*
Y2704576D1*
X1450401Y2698828D1*
X1446938Y2695025D1*
X1443516Y2693080D1*
X1438343D1*
X1434881Y2695025D1*
X1431459Y2698828D1*
X1423585Y2708379D2*
X1402931D1*
Y2712225D1*
X1404643Y2716072D1*
X1406354Y2717973D1*
X1409816Y2719875D1*
X1414989D1*
X1418411Y2717973D1*
X1421873Y2714127D1*
X1423585Y2708379D1*
Y2704576D1*
X1421873Y2698828D1*
X1418411Y2695025D1*
X1414989Y2693080D1*
X1409816D1*
X1406354Y2695025D1*
X1402931Y2698828D1*
X1395057Y2719875D2*
Y2693080D1*
Y2708379D2*
X1393307Y2714127D1*
X1389884Y2717973D1*
X1386422Y2719875D1*
X1381249D1*
X1612211Y2802023D2*
X1598442Y2761831D1*
X1584673Y2802023D1*
X1576799Y2781905D2*
X1556902D1*
X1549028Y2802023D2*
X1547317Y2800121D1*
X1545566Y2802023D1*
X1547317Y2803968D1*
X1549028Y2802023D1*
X1547317Y2788625D2*
Y2761831D1*
X1537692Y2788625D2*
Y2761831D1*
Y2780976D2*
X1532519Y2786724D1*
X1529057Y2788625D1*
X1523923D1*
X1520461Y2786724D1*
X1518750Y2780976D1*
Y2761831D1*
X1614251Y2648721D2*
X1615963Y2652524D1*
X1619425Y2656371D1*
X1622847Y2658272D1*
X1629731D1*
X1633193Y2656371D1*
X1636616Y2652524D1*
X1638367Y2648721D1*
X1640078Y2642973D1*
Y2633379D1*
X1638367Y2627675D1*
X1636616Y2623828D1*
X1633193Y2620025D1*
X1629731Y2618080D1*
X1622847D1*
X1619425Y2620025D1*
X1615963Y2623828D1*
X1614251Y2627675D1*
Y2633379D1*
X1622847D1*
X1606377Y2637225D2*
X1590858D1*
X1585724Y2639127D1*
X1583973Y2641072D1*
X1582262Y2644875D1*
Y2650623D1*
X1583973Y2654425D1*
X1585724Y2656371D1*
X1590858Y2658272D1*
X1606377D1*
Y2618080D1*
X1574388Y2658272D2*
Y2618080D1*
X1556168Y2658272D2*
X1559630Y2656371D1*
X1563052Y2652524D1*
X1564803Y2648721D1*
X1566514Y2642973D1*
Y2633379D1*
X1564803Y2627675D1*
X1563052Y2623828D1*
X1559630Y2620025D1*
X1556168Y2618080D1*
X1549283D1*
X1545861Y2620025D1*
X1542399Y2623828D1*
X1540688Y2627675D1*
X1538977Y2633379D1*
Y2642973D1*
X1540688Y2648721D1*
X1542399Y2652524D1*
X1545861Y2656371D1*
X1549283Y2658272D1*
X1556168D1*
X1527641Y2658228D2*
X1508738D1*
X1519045Y2642929D1*
X1513872D1*
X1510450Y2641028D1*
X1508738Y2639127D1*
X1506987Y2633379D1*
Y2629576D1*
X1508738Y2623828D1*
X1512161Y2619981D1*
X1517334Y2618080D1*
X1522507D1*
X1527641Y2619981D1*
X1529352Y2621927D1*
X1531103Y2625729D1*
X1497363Y2648677D2*
Y2650578D1*
X1495651Y2654425D1*
X1493940Y2656327D1*
X1490478Y2658228D1*
X1483594D1*
X1480171Y2656327D1*
X1478460Y2654425D1*
X1476709Y2650578D1*
Y2646776D1*
X1478460Y2642929D1*
X1481883Y2637225D1*
X1499113Y2618080D1*
X1474998D1*
X3372448Y2034491D2*
X3368645Y2036202D1*
X3364799Y2039664D1*
X3362897Y2043086D1*
Y2049971D1*
X3364799Y2053433D1*
X3368645Y2056855D1*
X3372448Y2058606D1*
X3378196Y2060317D1*
X3387791D1*
X3393495Y2058606D1*
X3397341Y2056855D1*
X3401144Y2053433D1*
X3403089Y2049971D1*
Y2043086D1*
X3401144Y2039664D1*
X3397341Y2036202D1*
X3393495Y2034491D1*
X3387791D1*
Y2043086D1*
X3383944Y2026617D2*
Y2011097D1*
X3382043Y2005964D1*
X3380097Y2004213D1*
X3376295Y2002502D1*
X3370547D1*
X3366744Y2004213D1*
X3364799Y2005964D1*
X3362897Y2011097D1*
Y2026617D1*
X3403089D1*
X3362897Y1994628D2*
X3403089D1*
X3362897Y1976407D2*
X3364799Y1979869D1*
X3368645Y1983291D1*
X3372448Y1985042D1*
X3378196Y1986753D1*
X3387791D1*
X3393495Y1985042D1*
X3397341Y1983291D1*
X3401144Y1979869D1*
X3403089Y1976407D1*
Y1969523D1*
X3401144Y1966100D1*
X3397341Y1962638D1*
X3393495Y1960927D1*
X3387791Y1959216D1*
X3378196D1*
X3372448Y1960927D1*
X3368645Y1962638D1*
X3364799Y1966100D1*
X3362897Y1969523D1*
Y1976407D1*
X3362942Y1947880D2*
Y1928978D1*
X3378240Y1939284D1*
Y1934111D1*
X3380141Y1930689D1*
X3382043Y1928978D1*
X3387791Y1927227D1*
X3391593D1*
X3397341Y1928978D1*
X3401188Y1932400D1*
X3403089Y1937573D1*
Y1942746D1*
X3401188Y1947880D1*
X3399243Y1949591D1*
X3395440Y1951342D1*
X3383015Y1887602D2*
Y1867705D1*
X3362897Y1828081D2*
X3403089D1*
X3376295Y1820207D2*
X3403089D1*
X3383944D2*
X3378196Y1815034D1*
X3376295Y1811571D1*
Y1806438D1*
X3378196Y1802976D1*
X3383944Y1801265D1*
X3403089D1*
X3362897Y1788218D2*
X3395440D1*
X3401144Y1786506D1*
X3403089Y1783044D1*
Y1779622D1*
X3376295Y1793391D2*
Y1781333D1*
X3387791Y1771748D2*
Y1751095D1*
X3383944D1*
X3380097Y1752806D1*
X3378196Y1754517D1*
X3376295Y1757979D1*
Y1763153D1*
X3378196Y1766575D1*
X3382043Y1770037D1*
X3387791Y1771748D1*
X3391593D1*
X3397341Y1770037D1*
X3401144Y1766575D1*
X3403089Y1763153D1*
Y1757979D1*
X3401144Y1754517D1*
X3397341Y1751095D1*
X3376295Y1743221D2*
X3403089D1*
X3387791D2*
X3382043Y1741470D1*
X3378196Y1738048D1*
X3376295Y1734586D1*
Y1729412D1*
Y1721538D2*
X3403089D1*
X3383944D2*
X3378196Y1716365D1*
X3376295Y1712903D1*
Y1707770D1*
X3378196Y1704308D1*
X3383944Y1702596D1*
X3403089D1*
X3376295Y1674069D2*
X3403089D1*
X3382043D2*
X3378196Y1677492D1*
X3376295Y1680954D1*
Y1686087D1*
X3378196Y1689549D1*
X3382043Y1692971D1*
X3387791Y1694722D1*
X3391593D1*
X3397341Y1692971D1*
X3401144Y1689549D1*
X3403089Y1686087D1*
Y1680954D1*
X3401144Y1677492D1*
X3397341Y1674069D1*
X3362897Y1666195D2*
X3403089D1*
X3362897Y1626571D2*
X3391593D1*
X3397341Y1624860D1*
X3401144Y1621398D1*
X3403089Y1616224D1*
Y1612802D1*
X3401144Y1607629D1*
X3397341Y1604167D1*
X3391593Y1602456D1*
X3362897D1*
X3382043Y1575640D2*
X3378196Y1577351D1*
X3376295Y1582524D1*
Y1587697D1*
X3378196Y1592870D1*
X3382043Y1594582D1*
X3385845Y1592870D1*
X3387791Y1589408D1*
X3389692Y1580813D1*
X3391593Y1577351D1*
X3395440Y1575640D1*
X3397341D1*
X3401144Y1577351D1*
X3403089Y1582524D1*
Y1587697D1*
X3401144Y1592870D1*
X3397341Y1594582D1*
X3387791Y1567766D2*
Y1547113D1*
X3383944D1*
X3380097Y1548824D1*
X3378196Y1550535D1*
X3376295Y1553997D1*
Y1559170D1*
X3378196Y1562592D1*
X3382043Y1566055D1*
X3387791Y1567766D1*
X3391593D1*
X3397341Y1566054D1*
X3401144Y1562592D1*
X3403089Y1559170D1*
Y1553997D1*
X3401144Y1550535D1*
X3397341Y1547113D1*
X3472448Y2019011D2*
X3468645Y2020722D1*
X3464799Y2024184D1*
X3462897Y2027606D1*
Y2034491D1*
X3464799Y2037953D1*
X3468645Y2041375D1*
X3472448Y2043126D1*
X3478196Y2044837D1*
X3487791D1*
X3493495Y2043126D1*
X3497341Y2041375D1*
X3501144Y2037953D1*
X3503089Y2034491D1*
Y2027606D1*
X3501144Y2024184D1*
X3497341Y2020722D1*
X3493495Y2019011D1*
X3487791D1*
Y2027606D1*
X3483944Y2011137D2*
Y1995617D1*
X3482043Y1990484D1*
X3480097Y1988733D1*
X3476295Y1987022D1*
X3470547D1*
X3466744Y1988733D1*
X3464799Y1990484D1*
X3462897Y1995617D1*
Y2011137D1*
X3503089D1*
X3462897Y1979148D2*
X3503089D1*
X3462897Y1960927D2*
X3464799Y1964389D1*
X3468645Y1967812D1*
X3472448Y1969562D1*
X3478196Y1971274D1*
X3487791D1*
X3493495Y1969562D1*
X3497341Y1967812D1*
X3501144Y1964389D1*
X3503089Y1960927D1*
Y1954043D1*
X3501144Y1950620D1*
X3497341Y1947158D1*
X3493495Y1945447D1*
X3487791Y1943736D1*
X3478196D1*
X3472448Y1945447D1*
X3468645Y1947158D1*
X3464799Y1950620D1*
X3462897Y1954043D1*
Y1960927D1*
X3470591Y1935862D2*
X3468645Y1932400D1*
X3462942Y1927227D1*
X3503089D1*
X3483015Y1887602D2*
Y1867705D1*
X3462897Y1828081D2*
X3503089D1*
X3476295Y1820207D2*
X3503089D1*
X3483944D2*
X3478196Y1815034D1*
X3476295Y1811571D1*
Y1806438D1*
X3478196Y1802976D1*
X3483944Y1801265D1*
X3503089D1*
X3462897Y1788218D2*
X3495440D1*
X3501144Y1786506D1*
X3503089Y1783044D1*
Y1779622D1*
X3476295Y1793391D2*
Y1781333D1*
X3487791Y1771748D2*
Y1751095D1*
X3483944D1*
X3480097Y1752806D1*
X3478196Y1754517D1*
X3476295Y1757979D1*
Y1763153D1*
X3478196Y1766575D1*
X3482043Y1770037D1*
X3487791Y1771748D1*
X3491593D1*
X3497341Y1770037D1*
X3501144Y1766575D1*
X3503089Y1763153D1*
Y1757979D1*
X3501144Y1754517D1*
X3497341Y1751095D1*
X3476295Y1743221D2*
X3503089D1*
X3487791D2*
X3482043Y1741470D1*
X3478196Y1738048D1*
X3476295Y1734586D1*
Y1729412D1*
Y1721538D2*
X3503089D1*
X3483944D2*
X3478196Y1716365D1*
X3476295Y1712903D1*
Y1707770D1*
X3478196Y1704308D1*
X3483944Y1702596D1*
X3503089D1*
X3476295Y1674069D2*
X3503089D1*
X3482043D2*
X3478196Y1677492D1*
X3476295Y1680954D1*
Y1686087D1*
X3478196Y1689549D1*
X3482043Y1692971D1*
X3487791Y1694722D1*
X3491593D1*
X3497341Y1692971D1*
X3501144Y1689549D1*
X3503089Y1686087D1*
Y1680954D1*
X3501144Y1677492D1*
X3497341Y1674069D1*
X3462897Y1666195D2*
X3503089D1*
X3462897Y1626571D2*
X3491593D1*
X3497341Y1624860D1*
X3501144Y1621398D1*
X3503089Y1616224D1*
Y1612802D1*
X3501144Y1607629D1*
X3497341Y1604167D1*
X3491593Y1602456D1*
X3462897D1*
X3482043Y1575640D2*
X3478196Y1577351D1*
X3476295Y1582524D1*
Y1587697D1*
X3478196Y1592870D1*
X3482043Y1594582D1*
X3485845Y1592870D1*
X3487791Y1589408D1*
X3489692Y1580813D1*
X3491593Y1577351D1*
X3495440Y1575640D1*
X3497341D1*
X3501144Y1577351D1*
X3503089Y1582524D1*
Y1587697D1*
X3501144Y1592870D1*
X3497341Y1594582D1*
X3487791Y1567766D2*
Y1547113D1*
X3483944D1*
X3480097Y1548824D1*
X3478196Y1550535D1*
X3476295Y1553997D1*
Y1559170D1*
X3478196Y1562592D1*
X3482043Y1566055D1*
X3487791Y1567766D1*
X3491593D1*
X3497341Y1566054D1*
X3501144Y1562592D1*
X3503089Y1559170D1*
Y1553997D1*
X3501144Y1550535D1*
X3497341Y1547113D1*
X2668533Y790863D2*
X2664686Y794285D1*
X2662784Y799459D1*
Y806343D1*
X2664686Y811516D1*
X2668533Y814978D1*
X2672335D1*
X2676182Y813227D1*
X2678083Y811516D1*
X2679984Y808094D1*
X2683831Y797747D1*
X2685732Y794285D1*
X2687678Y792574D1*
X2691480Y790863D1*
X2697228D1*
X2701031Y794285D1*
X2702976Y799459D1*
Y806343D1*
X2701031Y811516D1*
X2697228Y814978D1*
X2662784Y782989D2*
X2702976D1*
Y770931D1*
X2701031Y765758D1*
X2697228Y762296D1*
X2693382Y760585D1*
X2687678Y758874D1*
X2678083D1*
X2672335Y760585D1*
X2668533Y762296D1*
X2664686Y765758D1*
X2662784Y770931D1*
Y782989D1*
X2702976Y723423D2*
X2662785Y737231D1*
X2702976Y751000D1*
X2689579Y745827D2*
Y728596D1*
X2682903Y715549D2*
Y695652D1*
X2662784Y687778D2*
X2702977D1*
Y672258D1*
X2701031Y667085D1*
X2699130Y665374D1*
X2695327Y663662D1*
X2689579D1*
X2685732Y665374D1*
X2683831Y667085D1*
X2681930Y672258D1*
X2679984Y667085D1*
X2678083Y665374D1*
X2674281Y663662D1*
X2670434D1*
X2666631Y665374D1*
X2664686Y667085D1*
X2662784Y672258D1*
Y687778D1*
X2681930D2*
Y672258D1*
X2562282Y790864D2*
X2558435Y794286D1*
X2556534Y799460D1*
Y806344D1*
X2558435Y811517D1*
X2562282Y814979D1*
X2566084D1*
X2569931Y813228D1*
X2571832Y811517D1*
X2573734Y808095D1*
X2577580Y797748D1*
X2579482Y794286D1*
X2581427Y792575D1*
X2585230Y790864D1*
X2590978D1*
X2594780Y794286D1*
X2596726Y799459D1*
Y806344D1*
X2594780Y811517D1*
X2590978Y814979D1*
X2566084Y757164D2*
X2562282Y758875D1*
X2558435Y762337D1*
X2556534Y765759D1*
Y772644D1*
X2558435Y776106D1*
X2562282Y779528D1*
X2566084Y781279D1*
X2571832Y782990D1*
X2581427D1*
X2587131Y781279D1*
X2590978Y779528D1*
X2594780Y776106D1*
X2596726Y772643D1*
Y765759D1*
X2594780Y762337D1*
X2590978Y758875D1*
X2587131Y757164D1*
X2556534Y749290D2*
X2596726D1*
Y728636D1*
X2576652Y720762D2*
Y700865D1*
X2556534Y692992D2*
X2596726Y692991D1*
Y677472D1*
X2594780Y672299D1*
X2592879Y670587D1*
X2589076Y668876D1*
X2583328D1*
X2579482Y670587D1*
X2577580Y672299D1*
X2575679Y677472D1*
X2573734Y672299D1*
X2571832Y670587D1*
X2568030Y668876D1*
X2564183D1*
X2560381Y670587D1*
X2558435Y672299D1*
X2556534Y677472D1*
Y692992D1*
X2575679Y692991D2*
Y677472D1*
X2772449Y726651D2*
X2768647Y728362D1*
X2764800Y731825D1*
X2762899Y735247D1*
Y742131D1*
X2764800Y745593D1*
X2768647Y749016D1*
X2772449Y750766D1*
X2778197Y752478D1*
X2787792D1*
X2793496Y750766D1*
X2797343Y749015D1*
X2801145Y745593D1*
X2803091Y742131D1*
Y735247D1*
X2801145Y731824D1*
X2797343Y728362D1*
X2793496Y726651D1*
X2787792D1*
Y735247D1*
X2762899Y694662D2*
X2803091D1*
X2762899Y718777D1*
X2803091D1*
X2762899Y686788D2*
X2803091D1*
Y674730D1*
X2801145Y669557D1*
X2797343Y666095D1*
X2793496Y664384D1*
X2787792Y662673D1*
X2778197D1*
X2772449Y664384D1*
X2768647Y666095D1*
X2764800Y669557D1*
X2762899Y674731D1*
Y686788D1*
X2462943Y755265D2*
Y736363D1*
X2478241Y746669D1*
Y741496D1*
X2480143Y738074D1*
X2482044Y736363D1*
X2487792Y734612D1*
X2491595D1*
X2497343Y736363D1*
X2501189Y739785D1*
X2503091Y744958D1*
Y750132D1*
X2501189Y755265D1*
X2499244Y756976D1*
X2495441Y758727D1*
X2499244Y725027D2*
X2501189Y726738D1*
X2503091Y725027D1*
X2501189Y723276D1*
X2499244Y725027D1*
X2462943Y711940D2*
Y693038D1*
X2478242Y703344D1*
Y698171D1*
X2480143Y694749D1*
X2482044Y693038D1*
X2487792Y691287D1*
X2491595D1*
X2497343Y693038D1*
X2501189Y696460D1*
X2503091Y701633D1*
Y706806D1*
X2501189Y711940D1*
X2499244Y713651D1*
X2495441Y715402D1*
X2476296Y683413D2*
X2503091Y673066D1*
X2476296Y662760D1*
M02*
