G04 DipTrace 3.3.1.3*
G04 Bottom.GBL*
%MOIN*%
G04 #@! TF.FileFunction,Copper,L2,Bot*
G04 #@! TF.Part,Single*
G04 #@! TA.AperFunction,Conductor*
%ADD13C,0.03937*%
G04 #@! TA.AperFunction,CopperBalancing*
%ADD14C,0.019685*%
%ADD15C,0.012992*%
%ADD16C,0.025*%
G04 #@! TA.AperFunction,ComponentPad*
%ADD18R,0.066929X0.066929*%
%ADD19C,0.066929*%
%ADD20C,0.059055*%
%ADD24R,0.059055X0.059055*%
%ADD25C,0.059055*%
%ADD26R,0.074803X0.074803*%
%ADD27C,0.074803*%
%ADD28C,0.070866*%
%ADD29C,0.07*%
%ADD30C,0.07*%
%ADD31C,0.051181*%
%ADD34R,0.063X0.046*%
%ADD35R,0.008X0.025*%
%ADD36R,0.046X0.063*%
G04 #@! TA.AperFunction,ViaPad*
%ADD37C,0.027559*%
%FSLAX26Y26*%
G04*
G70*
G90*
G75*
G01*
G04 Bottom*
%LPD*%
X2484252Y3800000D2*
D13*
Y3875000D1*
X2884252D1*
X3284252D1*
X3659252D1*
X3684252Y3850000D1*
Y3800000D1*
X2884252D2*
Y3875000D1*
X3284252Y3800000D2*
Y3875000D1*
X3184252Y2215000D2*
D14*
X3599252D1*
X3784252Y2400000D1*
X1584252Y3800000D2*
D13*
X1684252D1*
Y3875000D1*
X2484252D1*
X1834252Y1050000D2*
D15*
X1837500D1*
Y706249D1*
X1806251Y675000D1*
X1309252D1*
X1284252Y700000D1*
Y750000D1*
X2284252Y2850000D2*
D13*
X2209252D1*
X2184252Y2875000D1*
Y3300000D1*
X2084252Y3400000D1*
X1984252D1*
X3331249Y1762500D2*
D15*
X3184252Y1909497D1*
Y2215000D1*
X1684252Y3875000D2*
D14*
X1580757D1*
X1555757Y3900000D1*
X434252D1*
X312500Y3778248D1*
Y3691251D1*
X2484005Y600000D2*
D15*
X2393749D1*
X2784252Y1200000D2*
Y1181249D1*
X2662500D1*
X2393749Y1450000D1*
X2334252D1*
X2159252Y2225000D2*
X1984252Y2400000D1*
X884252Y300000D2*
D14*
X984252D1*
X1084252Y400000D1*
Y750000D1*
X715501Y637500D2*
D15*
Y543751D1*
X884252Y1000000D2*
X715503Y1168749D1*
Y1256249D1*
X400000Y3712500D2*
D14*
Y3693751D1*
X2606249Y1768751D2*
D15*
X2368751D1*
X514173Y300157D2*
X520580Y293751D1*
X655503D1*
X256251Y3775000D2*
X162500Y3681251D1*
Y3525000D1*
X3384252Y600000D2*
Y320433D1*
X2684252Y1500000D2*
X2675000D1*
Y1243751D1*
X2784252Y1500000D2*
Y1290501D1*
X2706251Y1212500D1*
X984252Y3500000D2*
D13*
Y3596752D1*
X1087500Y3700000D1*
Y3803248D1*
X1084252Y3800000D1*
X3184252Y2275000D2*
D15*
Y2400000D1*
X2743751Y2343751D2*
X2562500D1*
X2531249Y2375001D1*
Y2481252D1*
X2493751Y2518751D1*
X1862500Y2625000D2*
Y2618749D1*
X1853003D1*
X2884252Y1200000D2*
Y1500000D1*
X568751Y3100000D2*
D14*
Y3250000D1*
X684252Y3365501D1*
Y3800000D1*
X1534252Y1050000D2*
D15*
Y925000D1*
X1484252Y875000D1*
Y750000D1*
X3684252Y1500000D2*
Y1550000D1*
X3509252Y1725000D1*
X2334252D1*
X3584252Y1500000D2*
Y1575000D1*
X3484252Y1675000D1*
X2278003D1*
X1734252Y1337500D2*
Y1050000D1*
X1784252Y750000D2*
X1781249D1*
Y868751D1*
X1734252Y915748D1*
Y1050000D1*
X2784252Y2400000D2*
Y2200000D1*
X1300000Y1150000D2*
X1503001D1*
X1784252Y3800000D2*
Y3687500D1*
X1671752Y3575000D1*
X1290503D1*
X2634252Y2200000D2*
X2496752Y2062500D1*
X514173Y1000157D2*
X526831Y987500D1*
X655503D1*
X434252Y500000D2*
X478003Y543751D1*
X655501D1*
X434252Y1200000D2*
X490501Y1256249D1*
X655503D1*
X319980Y3525000D2*
D14*
Y3455020D1*
X387500Y3387500D1*
Y3303248D1*
X384252Y3300000D1*
X319980Y3525000D2*
X312500Y3532480D1*
Y3631251D1*
X384252Y3300000D2*
D13*
Y3153001D1*
X343751Y3112500D1*
Y2964370D1*
X3484252Y1500000D2*
D15*
X3487500Y1496752D1*
Y1406249D1*
X3384252Y1500000D2*
X3381251Y1496999D1*
Y1406249D1*
X3584252Y1300000D2*
X3534252Y1350000D1*
Y1550000D1*
X3459252Y1625000D1*
X2565501D1*
X2359252D1*
X2781249Y418751D2*
X2749999D1*
X2568749Y600000D1*
X2584005D1*
X2684005D2*
Y547245D1*
X2762500Y468751D1*
X2475000Y2643751D2*
X2587500D1*
X2687500Y2543751D1*
Y2403248D1*
X2684252Y2400000D1*
D37*
X3331249Y1762500D3*
X2393749Y600000D3*
X2334252Y1450000D3*
X2159252Y2225000D3*
X715501Y637500D3*
X400000Y3712500D3*
X2606249Y1768751D3*
X256251Y3775000D3*
X2675000Y1243751D3*
X2706251Y1212500D3*
X2743751Y2343751D3*
X2334252Y1725000D3*
X2278003Y1675000D3*
X1734252Y1337500D3*
X2784252Y2200000D3*
X1503001Y1150000D3*
X1290503Y3575000D3*
X2634252Y2200000D3*
X2496752Y2062500D3*
X2359252Y1625000D3*
X2781249Y418751D3*
X2565501Y1625000D3*
X2762500Y468751D3*
X2475000Y2643751D3*
X2493751Y2518751D3*
X2368751Y1768751D3*
X1300000Y1150000D3*
D20*
X3787500Y2662500D3*
D37*
X568751Y3100000D3*
X42577Y3868143D2*
D16*
X350164D1*
X3727919D2*
X3886444D1*
X42577Y3843274D2*
X325297D1*
X429731D2*
X622992D1*
X745512D2*
X922983D1*
X1126530D2*
X1241993D1*
X1326513D2*
X1341967D1*
X1426522D2*
X1441976D1*
X1526531D2*
X1541986D1*
X3826529D2*
X3886336D1*
X42577Y3818406D2*
X300429D1*
X404864D2*
X622992D1*
X745512D2*
X922983D1*
X1142571D2*
X1225917D1*
X2245543D2*
X2322969D1*
X2642566D2*
X2722970D1*
X3042567D2*
X3122971D1*
X3442568D2*
X3522972D1*
X3842568D2*
X3886264D1*
X42577Y3793537D2*
X219331D1*
X379996D2*
X622992D1*
X745512D2*
X922983D1*
X1145155D2*
X1223335D1*
X2245543D2*
X2322969D1*
X2645185D2*
X2722970D1*
X3045186D2*
X3122971D1*
X3445188D2*
X3522972D1*
X3845189D2*
X3886156D1*
X42577Y3768668D2*
X202429D1*
X355129D2*
X622992D1*
X745512D2*
X922983D1*
X1136471D2*
X1232018D1*
X2245543D2*
X2322969D1*
X2636466D2*
X2722970D1*
X3036466D2*
X3122971D1*
X3436467D2*
X3522972D1*
X3836469D2*
X3886084D1*
X42577Y3743799D2*
X177562D1*
X350140D2*
X622992D1*
X745512D2*
X922983D1*
X1134999D2*
X1264529D1*
X1303942D2*
X1364538D1*
X1403951D2*
X1464547D1*
X1503961D2*
X1564556D1*
X1603970D2*
X1664530D1*
X1703944D2*
X1749934D1*
X1818558D2*
X1864549D1*
X1903962D2*
X1964558D1*
X2003971D2*
X2064531D1*
X2103944D2*
X2122987D1*
X2245543D2*
X2322969D1*
X2445526D2*
X2464533D1*
X2503945D2*
X2564542D1*
X2603954D2*
X2722970D1*
X2845526D2*
X2864533D1*
X2903946D2*
X2964542D1*
X3003955D2*
X3122971D1*
X3245528D2*
X3264534D1*
X3303948D2*
X3364543D1*
X3403957D2*
X3522972D1*
X3645529D2*
X3664535D1*
X3703949D2*
X3764545D1*
X3803958D2*
X3886012D1*
X42577Y3718930D2*
X152693D1*
X371815D2*
X646604D1*
X721900D2*
X1040001D1*
X1134999D2*
X1749934D1*
X1818558D2*
X3885904D1*
X42577Y3694062D2*
X130875D1*
X371815D2*
X646604D1*
X721900D2*
X1015421D1*
X1134605D2*
X1743332D1*
X1818558D2*
X3885833D1*
X42577Y3669193D2*
X128185D1*
X371815D2*
X646604D1*
X721900D2*
X990554D1*
X1122799D2*
X1718465D1*
X1812780D2*
X3885726D1*
X42577Y3644324D2*
X128185D1*
X371815D2*
X646604D1*
X721900D2*
X965685D1*
X1097967D2*
X1693596D1*
X1788558D2*
X3885654D1*
X42577Y3619455D2*
X128185D1*
X371815D2*
X646604D1*
X721900D2*
X942899D1*
X1073098D2*
X1668728D1*
X1763690D2*
X3885546D1*
X42577Y3594587D2*
X128185D1*
X371815D2*
X646604D1*
X721900D2*
X936762D1*
X1048231D2*
X1254159D1*
X1738823D2*
X3885474D1*
X42577Y3569718D2*
X105147D1*
X432961D2*
X646604D1*
X721900D2*
X936762D1*
X1031760D2*
X1249278D1*
X1713955D2*
X3885366D1*
X42577Y3544849D2*
X105147D1*
X452339D2*
X646604D1*
X721900D2*
X819028D1*
X1130585D2*
X1263130D1*
X1684386D2*
X3885295D1*
X42577Y3519980D2*
X105147D1*
X455819D2*
X646604D1*
X721900D2*
X819028D1*
X1146196D2*
X1319037D1*
X1646206D2*
X3885188D1*
X42577Y3495112D2*
X105147D1*
X447207D2*
X646604D1*
X721900D2*
X819028D1*
X1149281D2*
X1319037D1*
X1649291D2*
X3885115D1*
X42577Y3470243D2*
X105147D1*
X219845D2*
X235765D1*
X246718D2*
X282343D1*
X357640D2*
X393226D1*
X404188D2*
X646604D1*
X721900D2*
X819028D1*
X1141961D2*
X1319037D1*
X1641971D2*
X3885008D1*
X42577Y3445374D2*
X283671D1*
X381825D2*
X646604D1*
X721900D2*
X819028D1*
X1017550D2*
X1050946D1*
X1117559D2*
X1319037D1*
X1517560D2*
X1550957D1*
X1617570D2*
X1922969D1*
X2045525D2*
X3884936D1*
X42577Y3420505D2*
X302295D1*
X406694D2*
X646604D1*
X721900D2*
X1922969D1*
X2129888D2*
X3884828D1*
X42577Y3395636D2*
X327163D1*
X424205D2*
X646604D1*
X721900D2*
X1922969D1*
X2154756D2*
X3884756D1*
X42577Y3370768D2*
X349841D1*
X425138D2*
X637310D1*
X721900D2*
X1922969D1*
X2179623D2*
X3884648D1*
X223470Y3345899D2*
X245024D1*
X323479D2*
X345033D1*
X425138D2*
X445042D1*
X523461D2*
X612442D1*
X715944D2*
X1922969D1*
X2045525D2*
X2072210D1*
X2204492D2*
X3884577D1*
X541655Y3321030D2*
X587573D1*
X692009D2*
X1248453D1*
X1282555D2*
X1926879D1*
X2041650D2*
X2097079D1*
X2226525D2*
X3884470D1*
X545386Y3296161D2*
X562706D1*
X718060D2*
X1212963D1*
X1318045D2*
X1923112D1*
X2045417D2*
X2121946D1*
X2231764D2*
X3884398D1*
X727678Y3271293D2*
X1203346D1*
X1327661D2*
X1388545D1*
X1579928D2*
X1930467D1*
X2038025D2*
X2136766D1*
X2231764D2*
X3884290D1*
X210909Y3246424D2*
X257583D1*
X310919D2*
X336744D1*
X431741D2*
X457566D1*
X510937D2*
X531092D1*
X726135D2*
X1204890D1*
X1326118D2*
X1377636D1*
X1590871D2*
X1945719D1*
X2022810D2*
X2136766D1*
X2231764D2*
X3884218D1*
X42577Y3221555D2*
X336744D1*
X431741D2*
X531092D1*
X712283D2*
X1218705D1*
X1312268D2*
X1379286D1*
X1589222D2*
X1927059D1*
X2041434D2*
X2136766D1*
X2231764D2*
X3884110D1*
X42577Y3196686D2*
X336744D1*
X431741D2*
X531092D1*
X606390D2*
X1395112D1*
X1473387D2*
X1495121D1*
X1573396D2*
X1923076D1*
X2045417D2*
X2136766D1*
X2231764D2*
X3884039D1*
X42577Y3171818D2*
X336744D1*
X431741D2*
X531092D1*
X606390D2*
X1930181D1*
X2038348D2*
X2136766D1*
X2231764D2*
X3883932D1*
X42577Y3146949D2*
X312055D1*
X431346D2*
X531092D1*
X606390D2*
X1946400D1*
X2022129D2*
X2136766D1*
X2231764D2*
X3883860D1*
X42577Y3122080D2*
X297270D1*
X419433D2*
X531092D1*
X606390D2*
X1927274D1*
X2041219D2*
X2136766D1*
X2231764D2*
X3883752D1*
X42577Y3097211D2*
X296266D1*
X394601D2*
X527252D1*
X610228D2*
X765524D1*
X848643D2*
X1923039D1*
X2045453D2*
X2136766D1*
X2345517D2*
X3324568D1*
X3407689D2*
X3883680D1*
X42577Y3072343D2*
X296266D1*
X391264D2*
X538627D1*
X598890D2*
X720238D1*
X893929D2*
X1557954D1*
X1635584D2*
X1657928D1*
X1735556D2*
X1929894D1*
X2038598D2*
X2136766D1*
X2345517D2*
X3279319D1*
X3452974D2*
X3883572D1*
X42577Y3047474D2*
X296266D1*
X391264D2*
X697524D1*
X916644D2*
X1541878D1*
X1751633D2*
X1947083D1*
X2021411D2*
X2136766D1*
X2345517D2*
X3256568D1*
X3475724D2*
X3883500D1*
X42577Y3022605D2*
X296266D1*
X391264D2*
X417986D1*
X608972D2*
X683852D1*
X930316D2*
X1540084D1*
X1753391D2*
X1927490D1*
X2041003D2*
X2136766D1*
X2345517D2*
X3242896D1*
X3489361D2*
X3883392D1*
X42577Y2997736D2*
X288156D1*
X608972D2*
X676315D1*
X937852D2*
X1550849D1*
X1742663D2*
X1923004D1*
X2045488D2*
X2136766D1*
X2345517D2*
X3235361D1*
X3496896D2*
X3883322D1*
X42577Y2972867D2*
X279113D1*
X608972D2*
X673840D1*
X940328D2*
X1929606D1*
X2038886D2*
X2136766D1*
X2340887D2*
X3232885D1*
X3499373D2*
X3883214D1*
X42577Y2947999D2*
X280728D1*
X608972D2*
X676136D1*
X938031D2*
X1947836D1*
X2020657D2*
X2136766D1*
X2345480D2*
X3235217D1*
X3497076D2*
X3883142D1*
X42577Y2923130D2*
X294005D1*
X608972D2*
X683492D1*
X930675D2*
X1927705D1*
X2040787D2*
X2136766D1*
X2339021D2*
X3242573D1*
X3489719D2*
X3883034D1*
X42577Y2898261D2*
X696913D1*
X917255D2*
X1923004D1*
X2045488D2*
X2136766D1*
X2320290D2*
X3255993D1*
X3476299D2*
X3882962D1*
X42577Y2873392D2*
X719234D1*
X894934D2*
X1929356D1*
X2039173D2*
X2136802D1*
X2340672D2*
X3278314D1*
X3453979D2*
X3882891D1*
X42577Y2848524D2*
X762904D1*
X851262D2*
X1224231D1*
X1281765D2*
X1824251D1*
X1881749D2*
X1948589D1*
X2019903D2*
X2145378D1*
X2345517D2*
X3321949D1*
X3410344D2*
X3882783D1*
X42577Y2823655D2*
X1197640D1*
X1308391D2*
X1797625D1*
X1908375D2*
X1927955D1*
X2040572D2*
X2169457D1*
X2339308D2*
X3882711D1*
X42577Y2798786D2*
X1189962D1*
X1316035D2*
X1789982D1*
X2045525D2*
X2248976D1*
X2319537D2*
X3882604D1*
X42577Y2773917D2*
X1193084D1*
X1312913D2*
X1793104D1*
X1912933D2*
X1929068D1*
X2039424D2*
X2228055D1*
X2340457D2*
X3882531D1*
X42577Y2749049D2*
X1209375D1*
X1296622D2*
X1809358D1*
X1896642D2*
X1952465D1*
X2016064D2*
X2222996D1*
X2345517D2*
X3882424D1*
X42577Y2724180D2*
X2228953D1*
X2339559D2*
X3882352D1*
X42577Y2699311D2*
X2251990D1*
X2316522D2*
X3744341D1*
X3830655D2*
X3882244D1*
X42577Y2674442D2*
X1226240D1*
X1279756D2*
X1826260D1*
X1879740D2*
X2448277D1*
X2598357D2*
X3731495D1*
X3843538D2*
X3882173D1*
X42577Y2649573D2*
X1198143D1*
X1307853D2*
X1798163D1*
X1907837D2*
X2433852D1*
X2629146D2*
X3731710D1*
X3843286D2*
X3882066D1*
X42577Y2624705D2*
X1190034D1*
X1315963D2*
X1790052D1*
X1915946D2*
X2438373D1*
X2654013D2*
X3745274D1*
X3829722D2*
X3881993D1*
X42577Y2599836D2*
X1192761D1*
X1313236D2*
X1792781D1*
X1913219D2*
X2583919D1*
X2678881D2*
X3881886D1*
X42577Y2574967D2*
X1208407D1*
X1297626D2*
X1808390D1*
X1897610D2*
X2608786D1*
X2703748D2*
X3881814D1*
X42577Y2550098D2*
X2467906D1*
X2519591D2*
X2633655D1*
X2721152D2*
X3881706D1*
X42577Y2525230D2*
X2452690D1*
X2534806D2*
X2653176D1*
X2721798D2*
X3881635D1*
X42577Y2500361D2*
X2456745D1*
X2559171D2*
X2653176D1*
X2721798D2*
X3881528D1*
X42577Y2475492D2*
X2489543D1*
X2565558D2*
X2653176D1*
X2721798D2*
X3881455D1*
X42577Y2450623D2*
X1960682D1*
X2007846D2*
X2060656D1*
X2107820D2*
X2160665D1*
X2207829D2*
X2260675D1*
X2307839D2*
X2360684D1*
X2407848D2*
X2460656D1*
X2607829D2*
X2653176D1*
X2721798D2*
X2760684D1*
X2807848D2*
X2860657D1*
X2907822D2*
X2960667D1*
X3007831D2*
X3060676D1*
X3107840D2*
X3160685D1*
X3207849D2*
X3260659D1*
X3307823D2*
X3360668D1*
X3407832D2*
X3460677D1*
X3507841D2*
X3560651D1*
X3607850D2*
X3660660D1*
X3707824D2*
X3760669D1*
X3807833D2*
X3881348D1*
X42577Y2425755D2*
X1933339D1*
X3835177D2*
X3881276D1*
X42577Y2400886D2*
X1926915D1*
X3841600D2*
X3881168D1*
X42577Y2376017D2*
X1932441D1*
X42577Y2351148D2*
X1956843D1*
X2111659D2*
X2156825D1*
X2211668D2*
X2256835D1*
X2311677D2*
X2356844D1*
X2411651D2*
X2456853D1*
X2818542D2*
X2856854D1*
X2911661D2*
X2956827D1*
X3011671D2*
X3056836D1*
X3111680D2*
X3149955D1*
X42577Y2326280D2*
X2010490D1*
X2105451D2*
X2532497D1*
X2818542D2*
X3149955D1*
X42577Y2301411D2*
X2035357D1*
X2130319D2*
X2749955D1*
X2818542D2*
X3124945D1*
X42577Y2276542D2*
X2060224D1*
X2155186D2*
X2749955D1*
X2818542D2*
X3124945D1*
X42577Y2251673D2*
X2085093D1*
X2190318D2*
X2749955D1*
X2818542D2*
X3124945D1*
X42577Y2226804D2*
X2109961D1*
X2200795D2*
X2603297D1*
X2665209D2*
X2749955D1*
X2818542D2*
X3124945D1*
X42577Y2201936D2*
X2125176D1*
X2193295D2*
X2588692D1*
X2675794D2*
X2742706D1*
X2825790D2*
X3124945D1*
X42577Y2177067D2*
X2563824D1*
X2668403D2*
X2750098D1*
X2818398D2*
X3124945D1*
X42577Y2152198D2*
X2538955D1*
X2633917D2*
X3149955D1*
X42577Y2127329D2*
X2514088D1*
X2609050D2*
X3149955D1*
X42577Y2102461D2*
X2489220D1*
X2584182D2*
X3149955D1*
X42577Y2077592D2*
X2458181D1*
X2559315D2*
X3149955D1*
X42577Y2052723D2*
X2456386D1*
X2537102D2*
X3149955D1*
X42577Y2027854D2*
X2476159D1*
X2517366D2*
X3149955D1*
X42577Y2002986D2*
X3149955D1*
X42577Y1978117D2*
X3149955D1*
X42577Y1953248D2*
X3149955D1*
X42577Y1928379D2*
X3149955D1*
X42577Y1903510D2*
X3150530D1*
X42577Y1878642D2*
X3167612D1*
X42577Y1853773D2*
X3185014D1*
X42577Y1828904D2*
X3185014D1*
X42577Y1804035D2*
X2349416D1*
X2388075D2*
X2586933D1*
X2625556D2*
X3185014D1*
X42577Y1779167D2*
X2328567D1*
X2646441D2*
X3185014D1*
X42577Y1754298D2*
X2305888D1*
X42577Y1729429D2*
X2292898D1*
X42577Y1704560D2*
X2249909D1*
X42577Y1679692D2*
X2236703D1*
X42577Y1654823D2*
X2242014D1*
X42577Y1629954D2*
X2317982D1*
X42577Y1605085D2*
X2323113D1*
X42577Y1580217D2*
X3185014D1*
X42577Y1555348D2*
X3185014D1*
X42577Y1530479D2*
X1936173D1*
X42577Y1505610D2*
X1927202D1*
X3841312D2*
X3881168D1*
X42577Y1480741D2*
X1930396D1*
X3838083D2*
X3881240D1*
X42577Y1455873D2*
X1949199D1*
X2019293D2*
X2049209D1*
X2119303D2*
X2149182D1*
X2219312D2*
X2249192D1*
X2919304D2*
X2949184D1*
X3019314D2*
X3049193D1*
X3119323D2*
X3149202D1*
X3219297D2*
X3249176D1*
X3319306D2*
X3346961D1*
X3619298D2*
X3649177D1*
X3719307D2*
X3749186D1*
X3819316D2*
X3881348D1*
X42577Y1431004D2*
X2297598D1*
X2918551D2*
X3329807D1*
X3568558D2*
X3881419D1*
X42577Y1406135D2*
X1058554D1*
X1109953D2*
X2390144D1*
X2918551D2*
X3323923D1*
X3568558D2*
X3881528D1*
X42577Y1381266D2*
X1029667D1*
X1138839D2*
X2415012D1*
X2918551D2*
X3329951D1*
X3568558D2*
X3881598D1*
X42577Y1356398D2*
X248934D1*
X379493D2*
X1021343D1*
X1147164D2*
X1697543D1*
X1770975D2*
X2439879D1*
X2918551D2*
X3355895D1*
X3406612D2*
X3422963D1*
X3603293D2*
X3665217D1*
X3703302D2*
X3765190D1*
X3803311D2*
X3881706D1*
X42577Y1331529D2*
X229558D1*
X398871D2*
X1023890D1*
X1144617D2*
X1693130D1*
X1775388D2*
X2464748D1*
X2918551D2*
X3422963D1*
X3836361D2*
X3881814D1*
X42577Y1306660D2*
X220479D1*
X407950D2*
X604690D1*
X766325D2*
X1039176D1*
X1129329D2*
X1699948D1*
X1768571D2*
X2489615D1*
X2918551D2*
X3422963D1*
X3845152D2*
X3881886D1*
X42577Y1281791D2*
X218648D1*
X409744D2*
X469049D1*
X766325D2*
X1699948D1*
X1768571D2*
X2514483D1*
X2918551D2*
X3422963D1*
X3842640D2*
X3881993D1*
X42577Y1256923D2*
X223636D1*
X404791D2*
X443678D1*
X766325D2*
X867112D1*
X901394D2*
X1699948D1*
X1768571D2*
X2539350D1*
X2918551D2*
X2967126D1*
X3001408D2*
X3067100D1*
X3101381D2*
X3422963D1*
X3626726D2*
X3641749D1*
X3726735D2*
X3741759D1*
X3826744D2*
X3882066D1*
X42577Y1232054D2*
X236734D1*
X766325D2*
X832483D1*
X936021D2*
X1699948D1*
X1768571D2*
X2564218D1*
X3136009D2*
X3882173D1*
X42577Y1207185D2*
X264329D1*
X364063D2*
X381348D1*
X535769D2*
X604690D1*
X766325D2*
X823404D1*
X945100D2*
X1699948D1*
X1768571D2*
X2589087D1*
X3145088D2*
X3882244D1*
X42577Y1182316D2*
X384039D1*
X562432D2*
X681196D1*
X749819D2*
X825701D1*
X942803D2*
X1275509D1*
X1324504D2*
X1478507D1*
X1527500D2*
X1699948D1*
X1768571D2*
X2613954D1*
X3142791D2*
X3882352D1*
X42577Y1157448D2*
X397172D1*
X567526D2*
X683277D1*
X774291D2*
X841203D1*
X927302D2*
X1259110D1*
X1543864D2*
X1699948D1*
X1768571D2*
X2638894D1*
X2927307D2*
X2941218D1*
X3027280D2*
X3041192D1*
X3127289D2*
X3882424D1*
X42577Y1132579D2*
X382424D1*
X559560D2*
X704198D1*
X799159D2*
X832843D1*
X935663D2*
X1262520D1*
X1540491D2*
X1699948D1*
X1768571D2*
X3882531D1*
X42577Y1107710D2*
X382388D1*
X559417D2*
X729066D1*
X945029D2*
X1320615D1*
X1347900D2*
X1420625D1*
X1447909D2*
X1520598D1*
X1547883D2*
X1620608D1*
X1647892D2*
X1699948D1*
X1768571D2*
X1820626D1*
X1847911D2*
X1872982D1*
X1995538D2*
X3882604D1*
X42577Y1082841D2*
X397064D1*
X567491D2*
X753933D1*
X942983D2*
X1283009D1*
X1995538D2*
X3882711D1*
X42577Y1057972D2*
X384075D1*
X562539D2*
X778801D1*
X945530D2*
X1273535D1*
X1995538D2*
X3882819D1*
X42577Y1033104D2*
X381348D1*
X555470D2*
X604690D1*
X766325D2*
X803668D1*
X945530D2*
X1275474D1*
X1995538D2*
X3882891D1*
X42577Y1008235D2*
X392113D1*
X766325D2*
X822974D1*
X945530D2*
X1290402D1*
X1995538D2*
X3882999D1*
X42577Y983366D2*
X251016D1*
X377412D2*
X463630D1*
X766325D2*
X822974D1*
X945530D2*
X1499929D1*
X1871810D2*
X3883070D1*
X42577Y958497D2*
X230562D1*
X397866D2*
X482433D1*
X766325D2*
X822974D1*
X945530D2*
X1499929D1*
X1871810D2*
X3883177D1*
X42577Y933629D2*
X220874D1*
X407520D2*
X604690D1*
X842471D2*
X1495408D1*
X1871810D2*
X3330777D1*
X3401516D2*
X3883249D1*
X42577Y908760D2*
X218577D1*
X409852D2*
X722391D1*
X891777D2*
X1470541D1*
X1871810D2*
X3281436D1*
X3450822D2*
X3883357D1*
X42577Y883891D2*
X223026D1*
X405402D2*
X698780D1*
X915388D2*
X1451198D1*
X1871810D2*
X3257824D1*
X3474433D2*
X3883429D1*
X42577Y859022D2*
X235407D1*
X393022D2*
X684605D1*
X929562D2*
X1449942D1*
X1871810D2*
X3243650D1*
X3488643D2*
X3883537D1*
X42577Y834154D2*
X261350D1*
X367077D2*
X676675D1*
X937492D2*
X1449942D1*
X1871810D2*
X3235719D1*
X3496538D2*
X3883608D1*
X42577Y809285D2*
X673875D1*
X940291D2*
X1068530D1*
X1099976D2*
X1449942D1*
X1871810D2*
X3232920D1*
X3499373D2*
X3883715D1*
X42577Y784416D2*
X675814D1*
X938354D2*
X1031713D1*
X1136794D2*
X1222975D1*
X2034400D2*
X3234894D1*
X3497399D2*
X3883824D1*
X42577Y759547D2*
X682811D1*
X931392D2*
X1021773D1*
X1146734D2*
X1222975D1*
X2044735D2*
X3241856D1*
X3490437D2*
X3883895D1*
X42577Y734678D2*
X695728D1*
X918438D2*
X1022957D1*
X1145550D2*
X1222975D1*
X2043479D2*
X3254774D1*
X3477518D2*
X3884003D1*
X42577Y709810D2*
X717223D1*
X896944D2*
X1036198D1*
X1132308D2*
X1222975D1*
X2029627D2*
X3276304D1*
X3455988D2*
X3884075D1*
X42577Y684941D2*
X757951D1*
X856215D2*
X1046605D1*
X1121902D2*
X1253728D1*
X1863627D2*
X3317033D1*
X3415260D2*
X3884182D1*
X42577Y660072D2*
X253205D1*
X375188D2*
X681088D1*
X749927D2*
X1046605D1*
X1121902D2*
X1276694D1*
X1838795D2*
X3884255D1*
X42577Y635203D2*
X231639D1*
X396790D2*
X673983D1*
X757031D2*
X1046605D1*
X1121902D2*
X2374248D1*
X2833577D2*
X3022962D1*
X3833814D2*
X3884362D1*
X42577Y610335D2*
X221340D1*
X407088D2*
X681196D1*
X749819D2*
X1046605D1*
X1121902D2*
X2353542D1*
X2844378D2*
X3022962D1*
X3844614D2*
X3884433D1*
X42577Y585466D2*
X218505D1*
X409924D2*
X604690D1*
X766325D2*
X1046605D1*
X1121902D2*
X2354978D1*
X2843445D2*
X3022962D1*
X3843717D2*
X3884541D1*
X42577Y560597D2*
X222453D1*
X405976D2*
X447374D1*
X766325D2*
X1046605D1*
X1121902D2*
X2422727D1*
X2830133D2*
X3022962D1*
X3830369D2*
X3884613D1*
X42577Y535728D2*
X234151D1*
X766325D2*
X835067D1*
X933438D2*
X1046605D1*
X1121902D2*
X2585534D1*
X2743005D2*
X3349938D1*
X3418562D2*
X3884720D1*
X42577Y510860D2*
X258588D1*
X492601D2*
X604690D1*
X766325D2*
X823979D1*
X944526D2*
X1046605D1*
X1121902D2*
X2610402D1*
X2767873D2*
X3349938D1*
X3418562D2*
X3884828D1*
X42577Y485991D2*
X382819D1*
X560421D2*
X824660D1*
X943844D2*
X1046605D1*
X1121902D2*
X2635269D1*
X2800097D2*
X3349938D1*
X3418562D2*
X3884900D1*
X42577Y461122D2*
X398895D1*
X567563D2*
X837686D1*
X930819D2*
X1046605D1*
X1121902D2*
X2660136D1*
X2803327D2*
X3349938D1*
X3418562D2*
X3885008D1*
X42577Y436253D2*
X383500D1*
X561714D2*
X835497D1*
X933007D2*
X1046605D1*
X1121902D2*
X2685005D1*
X2818685D2*
X3349938D1*
X3418562D2*
X3885080D1*
X42577Y411385D2*
X381598D1*
X556798D2*
X824087D1*
X944419D2*
X1043411D1*
X1121902D2*
X2709873D1*
X2822130D2*
X3349938D1*
X3418562D2*
X3885188D1*
X42577Y386516D2*
X393476D1*
X567168D2*
X824552D1*
X943951D2*
X1018543D1*
X1119210D2*
X2756630D1*
X2805874D2*
X3349938D1*
X3418562D2*
X3885259D1*
X42577Y361647D2*
X385618D1*
X564118D2*
X837220D1*
X931285D2*
X993676D1*
X1098110D2*
X3324928D1*
X3443572D2*
X3885366D1*
X42577Y336778D2*
X380953D1*
X552025D2*
X604690D1*
X766325D2*
X822974D1*
X945530D2*
X968807D1*
X1073243D2*
X3324928D1*
X3443572D2*
X3885438D1*
X42577Y311909D2*
X389421D1*
X766325D2*
X822974D1*
X1048375D2*
X3324928D1*
X3443572D2*
X3885546D1*
X42577Y287041D2*
X255609D1*
X372819D2*
X462482D1*
X766325D2*
X822974D1*
X1023507D2*
X3324928D1*
X3443572D2*
X3885618D1*
X42577Y262172D2*
X232751D1*
X395677D2*
X477804D1*
X766325D2*
X822974D1*
X945530D2*
X3324928D1*
X3443572D2*
X3885726D1*
X42577Y237303D2*
X221806D1*
X406587D2*
X604690D1*
X766325D2*
X2372992D1*
X2882164D2*
X3324928D1*
X3443572D2*
X3885833D1*
X42577Y212434D2*
X218505D1*
X409924D2*
X2372992D1*
X2894185D2*
X3324928D1*
X3443572D2*
X3885904D1*
X42577Y187566D2*
X221915D1*
X406514D2*
X1034009D1*
X1134497D2*
X2372992D1*
X2894185D2*
X3886012D1*
X42577Y162697D2*
X232966D1*
X395462D2*
X1022346D1*
X1146159D2*
X2372992D1*
X2882164D2*
X3886084D1*
X42577Y137828D2*
X256039D1*
X372388D2*
X1022239D1*
X1146266D2*
X3886192D1*
X42577Y112959D2*
X1033614D1*
X1134891D2*
X3886264D1*
X42577Y88091D2*
X3886371D1*
X42577Y63222D2*
X3886444D1*
X634663Y3858776D2*
X743028D1*
Y3741224D1*
X719379D1*
X719297Y3362744D1*
X718434Y3357295D1*
X716730Y3352050D1*
X714226Y3347134D1*
X710983Y3342672D1*
X687211Y3318747D1*
X692883Y3316238D1*
X700951Y3311293D1*
X708148Y3305147D1*
X714294Y3297950D1*
X719239Y3289881D1*
X722861Y3281136D1*
X725071Y3271934D1*
X725812Y3262500D1*
X725071Y3253066D1*
X722861Y3243864D1*
X719239Y3235119D1*
X714294Y3227050D1*
X708148Y3219853D1*
X700951Y3213707D1*
X692883Y3208762D1*
X684139Y3205140D1*
X674937Y3202932D1*
X665501Y3202189D1*
X656067Y3202932D1*
X646865Y3205140D1*
X638121Y3208762D1*
X630052Y3213707D1*
X622856Y3219853D1*
X616710Y3227050D1*
X611765Y3235119D1*
X609276Y3240791D1*
X603883Y3235419D1*
X603904Y3117121D1*
X605928Y3112080D1*
X607360Y3106115D1*
X607840Y3100000D1*
X607360Y3093885D1*
X605928Y3087920D1*
X603580Y3082253D1*
X600375Y3077024D1*
X596391Y3072358D1*
X591727Y3068375D1*
X586497Y3065171D1*
X580829Y3062823D1*
X574865Y3061391D1*
X568751Y3060909D1*
X562635Y3061391D1*
X556671Y3062823D1*
X551003Y3065171D1*
X545773Y3068375D1*
X541109Y3072358D1*
X537125Y3077024D1*
X533920Y3082253D1*
X531572Y3087920D1*
X530140Y3093885D1*
X529660Y3100000D1*
X530140Y3106115D1*
X531572Y3112080D1*
X533593Y3117039D1*
X533705Y3252759D1*
X534568Y3258206D1*
X536272Y3263453D1*
X538777Y3268367D1*
X542018Y3272831D1*
X582867Y3313832D1*
X649118Y3380083D1*
X649098Y3741245D1*
X625476Y3741224D1*
Y3858776D1*
X634663D1*
X1646748Y3008738D2*
X1643899Y3003241D1*
X1639734Y2997194D1*
X1634798Y2991756D1*
X1629180Y2987028D1*
X1622980Y2983091D1*
X1616310Y2980018D1*
X1609290Y2977865D1*
X1602045Y2976668D1*
X1594703Y2976450D1*
X1587400Y2977215D1*
X1580264Y2978949D1*
X1573424Y2981621D1*
X1567003Y2985184D1*
X1561114Y2989571D1*
X1555865Y2994706D1*
X1551348Y3000497D1*
X1547646Y3006840D1*
X1544825Y3013619D1*
X1542934Y3020715D1*
X1542009Y3028001D1*
X1542067Y3035344D1*
X1543104Y3042614D1*
X1545104Y3049680D1*
X1548029Y3056416D1*
X1551828Y3062701D1*
X1556433Y3068421D1*
X1561761Y3073475D1*
X1567717Y3077772D1*
X1574192Y3081234D1*
X1581072Y3083801D1*
X1588235Y3085424D1*
X1595549Y3086076D1*
X1602886Y3085745D1*
X1610112Y3084437D1*
X1617098Y3082175D1*
X1623719Y3079000D1*
X1629858Y3074969D1*
X1635403Y3070154D1*
X1640253Y3064640D1*
X1644325Y3058529D1*
X1646752Y3053768D1*
X1649995Y3059904D1*
X1655052Y3066865D1*
X1661138Y3072950D1*
X1668098Y3078008D1*
X1675766Y3081915D1*
X1683950Y3084573D1*
X1692449Y3085920D1*
X1701055D1*
X1709554Y3084573D1*
X1717738Y3081915D1*
X1725406Y3078008D1*
X1732366Y3072950D1*
X1738451Y3066865D1*
X1743509Y3059904D1*
X1747416Y3052236D1*
X1750075Y3044052D1*
X1751421Y3035554D1*
Y3026948D1*
X1750075Y3018449D1*
X1747416Y3010265D1*
X1743509Y3002597D1*
X1738451Y2995636D1*
X1732366Y2989551D1*
X1725406Y2984493D1*
X1717738Y2980587D1*
X1709554Y2977928D1*
X1701055Y2976581D1*
X1692449D1*
X1683950Y2977928D1*
X1675766Y2980587D1*
X1668098Y2984493D1*
X1661138Y2989551D1*
X1655052Y2995636D1*
X1649995Y3002597D1*
X1646770Y3008783D1*
X1589060Y3235663D2*
X1588323Y3228357D1*
X1586617Y3221214D1*
X1583971Y3214364D1*
X1580434Y3207928D1*
X1576068Y3202022D1*
X1570953Y3196753D1*
X1565180Y3192215D1*
X1558852Y3188488D1*
X1552083Y3185642D1*
X1544995Y3183724D1*
X1537713Y3182770D1*
X1530369Y3182799D1*
X1523096Y3183808D1*
X1516021Y3185781D1*
X1509274Y3188680D1*
X1502975Y3192455D1*
X1497238Y3197038D1*
X1492163Y3202346D1*
X1487844Y3208285D1*
X1484256Y3214978D1*
X1481009Y3208846D1*
X1475951Y3201886D1*
X1469866Y3195801D1*
X1462906Y3190743D1*
X1455238Y3186836D1*
X1447054Y3184177D1*
X1438555Y3182831D1*
X1429949D1*
X1421450Y3184177D1*
X1413266Y3186836D1*
X1405598Y3190743D1*
X1398638Y3195801D1*
X1392552Y3201886D1*
X1387495Y3208846D1*
X1383588Y3216514D1*
X1380929Y3224698D1*
X1379583Y3233197D1*
Y3241803D1*
X1380929Y3250302D1*
X1383588Y3258486D1*
X1387495Y3266154D1*
X1392552Y3273114D1*
X1398638Y3279199D1*
X1405598Y3284257D1*
X1413266Y3288164D1*
X1421450Y3290823D1*
X1429949Y3292169D1*
X1438555D1*
X1447054Y3290823D1*
X1455238Y3288164D1*
X1462906Y3284257D1*
X1469866Y3279199D1*
X1475951Y3273114D1*
X1481009Y3266154D1*
X1484234Y3259967D1*
X1487323Y3265871D1*
X1491534Y3271887D1*
X1496512Y3277286D1*
X1502167Y3281972D1*
X1508396Y3285861D1*
X1515089Y3288882D1*
X1522126Y3290982D1*
X1529381Y3292122D1*
X1536723Y3292283D1*
X1544020Y3291462D1*
X1551143Y3289672D1*
X1557962Y3286948D1*
X1564357Y3283337D1*
X1570211Y3278903D1*
X1575420Y3273727D1*
X1579891Y3267902D1*
X1583545Y3261531D1*
X1586314Y3254730D1*
X1588148Y3247619D1*
X1589017Y3240328D1*
X1589060Y3235663D1*
X116848Y3579839D2*
X130663D1*
X130791Y3683747D1*
X131572Y3688676D1*
X133114Y3693423D1*
X135381Y3697870D1*
X138314Y3701908D1*
X185479Y3749211D1*
X217678Y3781411D1*
X219072Y3787080D1*
X221420Y3792748D1*
X224625Y3797978D1*
X228609Y3802642D1*
X233273Y3806626D1*
X238503Y3809831D1*
X244171Y3812178D1*
X250135Y3813610D1*
X256251Y3814091D1*
X262365Y3813610D1*
X268329Y3812178D1*
X273997Y3809831D1*
X279227Y3806626D1*
X283891Y3802642D1*
X285559Y3800837D1*
X307130Y3822593D1*
X377542Y3893005D1*
X40042Y3893012D1*
X40175Y3358776D1*
X143028D1*
Y3341888D1*
X149705Y3347550D1*
X157568Y3352370D1*
X166089Y3355899D1*
X175058Y3358052D1*
X184252Y3358776D1*
X193446Y3358052D1*
X202415Y3355899D1*
X210936Y3352370D1*
X218799Y3347550D1*
X225812Y3341560D1*
X231802Y3334547D1*
X234256Y3330875D1*
X239559Y3338172D1*
X246080Y3344693D1*
X253542Y3350114D1*
X261760Y3354302D1*
X270531Y3357152D1*
X279640Y3358594D1*
X288864D1*
X297972Y3357152D1*
X306744Y3354302D1*
X314962Y3350114D1*
X322424Y3344693D1*
X328945Y3338172D1*
X334256Y3330875D1*
X339559Y3338172D1*
X346080Y3344693D1*
X352358Y3349323D1*
X352346Y3372971D1*
X293249Y3432189D1*
X290007Y3436652D1*
X287503Y3441567D1*
X285798Y3446814D1*
X284936Y3452261D1*
X284827Y3482902D1*
X280621Y3486853D1*
X276854Y3483301D1*
X269894Y3478243D1*
X262226Y3474336D1*
X254042Y3471677D1*
X245543Y3470331D1*
X236937D1*
X228438Y3471677D1*
X220255Y3474336D1*
X217337Y3475681D1*
X217339Y3470161D1*
X107661D1*
Y3579839D1*
X116848D1*
X359340Y3486853D2*
X355133Y3482936D1*
X355134Y3469559D1*
X414231Y3410331D1*
X417474Y3405867D1*
X419978Y3400953D1*
X421682Y3395706D1*
X422545Y3390259D1*
X422654Y3344475D1*
X428945Y3338172D1*
X434256Y3330875D1*
X439559Y3338172D1*
X446080Y3344693D1*
X453542Y3350114D1*
X461760Y3354302D1*
X470531Y3357152D1*
X479640Y3358594D1*
X488864D1*
X497972Y3357152D1*
X506744Y3354302D1*
X514962Y3350114D1*
X522424Y3344693D1*
X528945Y3338172D1*
X534366Y3330710D1*
X538554Y3322492D1*
X541404Y3313720D1*
X542846Y3304612D1*
Y3295388D1*
X541404Y3286280D1*
X538554Y3277508D1*
X534366Y3269290D1*
X528945Y3261828D1*
X522424Y3255307D1*
X514962Y3249886D1*
X506744Y3245698D1*
X497972Y3242848D1*
X488864Y3241406D1*
X479640D1*
X470531Y3242848D1*
X461760Y3245698D1*
X453542Y3249886D1*
X446080Y3255307D1*
X439559Y3261828D1*
X434248Y3269125D1*
X429247Y3262210D1*
X429109Y3149471D1*
X428005Y3142497D1*
X425823Y3135782D1*
X422618Y3129492D1*
X418467Y3123780D1*
X396581Y3101698D1*
X388741Y3093857D1*
X388747Y3008042D1*
X393736Y3002184D1*
X398073Y3007340D1*
X403411Y3012386D1*
X409301Y3016773D1*
X415664Y3020442D1*
X422412Y3023341D1*
X429454Y3025432D1*
X436690Y3026684D1*
X444025Y3027083D1*
X451356Y3026619D1*
X458581Y3025304D1*
X465604Y3023152D1*
X472327Y3020194D1*
X478657Y3016470D1*
X481042Y3014782D1*
X481038Y3027083D1*
X606463D1*
Y2901657D1*
X481038D1*
X480865Y2913819D1*
X474699Y2909827D1*
X468110Y2906581D1*
X461186Y2904130D1*
X454024Y2902505D1*
X446720Y2901728D1*
X439375Y2901810D1*
X432092Y2902751D1*
X424967Y2904537D1*
X418100Y2907143D1*
X411585Y2910534D1*
X405512Y2914664D1*
X399962Y2919476D1*
X395013Y2924904D1*
X393755Y2926516D1*
X388096Y2920025D1*
X380612Y2913635D1*
X372222Y2908492D1*
X363130Y2904727D1*
X353562Y2902429D1*
X343751Y2901657D1*
X333940Y2902429D1*
X324371Y2904727D1*
X315280Y2908492D1*
X306890Y2913635D1*
X299406Y2920025D1*
X293016Y2927509D1*
X287873Y2935899D1*
X284108Y2944991D1*
X281810Y2954559D1*
X281038Y2964370D1*
X281810Y2974181D1*
X284108Y2983749D1*
X287873Y2992841D1*
X293016Y3001231D1*
X298766Y3008022D1*
X298894Y3116031D1*
X299997Y3123005D1*
X302180Y3129720D1*
X305385Y3136010D1*
X309535Y3141723D1*
X331421Y3163804D1*
X339261Y3171646D1*
X339256Y3262198D1*
X334248Y3269125D1*
X328945Y3261828D1*
X322424Y3255307D1*
X314962Y3249886D1*
X306744Y3245698D1*
X297972Y3242848D1*
X288864Y3241406D1*
X279640D1*
X270531Y3242848D1*
X261760Y3245698D1*
X253542Y3249886D1*
X246080Y3255307D1*
X239559Y3261828D1*
X234248Y3269125D1*
X228945Y3261828D1*
X222424Y3255307D1*
X214962Y3249886D1*
X206744Y3245698D1*
X197972Y3242848D1*
X188864Y3241406D1*
X179640D1*
X170531Y3242848D1*
X161760Y3245698D1*
X153542Y3249886D1*
X146080Y3255307D1*
X143022Y3258134D1*
X143028Y3241224D1*
X40062D1*
X40059Y43979D1*
X3889021Y43996D1*
X3883609Y1518732D1*
X3835814Y1518749D1*
X3837780Y1511919D1*
X3838892Y1504660D1*
X3839060Y1498163D1*
X3838323Y1490857D1*
X3836617Y1483714D1*
X3833971Y1476864D1*
X3830434Y1470428D1*
X3826068Y1464522D1*
X3820953Y1459253D1*
X3815180Y1454715D1*
X3808852Y1450988D1*
X3802083Y1448142D1*
X3794995Y1446224D1*
X3787713Y1445270D1*
X3780369Y1445299D1*
X3773096Y1446308D1*
X3766021Y1448281D1*
X3759274Y1451180D1*
X3752975Y1454955D1*
X3747238Y1459538D1*
X3742163Y1464846D1*
X3737844Y1470785D1*
X3734256Y1477478D1*
X3731009Y1471346D1*
X3725951Y1464386D1*
X3719866Y1458301D1*
X3712906Y1453243D1*
X3705238Y1449336D1*
X3697054Y1446677D1*
X3688555Y1445331D1*
X3679949D1*
X3671450Y1446677D1*
X3663266Y1449336D1*
X3655598Y1453243D1*
X3648638Y1458301D1*
X3642552Y1464386D1*
X3637495Y1471346D1*
X3634270Y1477533D1*
X3631009Y1471346D1*
X3625951Y1464386D1*
X3619866Y1458301D1*
X3612906Y1453243D1*
X3605238Y1449336D1*
X3597054Y1446677D1*
X3588555Y1445331D1*
X3579949D1*
X3571450Y1446677D1*
X3566059Y1448306D1*
Y1363151D1*
X3571790Y1357445D1*
X3579640Y1358594D1*
X3588864D1*
X3597972Y1357152D1*
X3606744Y1354302D1*
X3614962Y1350114D1*
X3622424Y1344693D1*
X3628945Y1338172D1*
X3634256Y1330875D1*
X3638256Y1336592D1*
X3643178Y1342042D1*
X3648743Y1346836D1*
X3654861Y1350899D1*
X3661437Y1354167D1*
X3668371Y1356589D1*
X3675552Y1358129D1*
X3682869Y1358760D1*
X3690207Y1358472D1*
X3697454Y1357274D1*
X3704493Y1355180D1*
X3711217Y1352226D1*
X3717520Y1348454D1*
X3723302Y1343928D1*
X3728476Y1338715D1*
X3732959Y1332898D1*
X3734251Y1330887D1*
X3739559Y1338172D1*
X3746080Y1344693D1*
X3753542Y1350114D1*
X3761760Y1354302D1*
X3770531Y1357152D1*
X3779640Y1358594D1*
X3788864D1*
X3797972Y1357152D1*
X3806744Y1354302D1*
X3814962Y1350114D1*
X3822424Y1344693D1*
X3828945Y1338172D1*
X3834366Y1330710D1*
X3838554Y1322492D1*
X3841404Y1313720D1*
X3842846Y1304612D1*
Y1295388D1*
X3841404Y1286280D1*
X3838554Y1277508D1*
X3834366Y1269290D1*
X3828945Y1261828D1*
X3822424Y1255307D1*
X3814962Y1249886D1*
X3806744Y1245698D1*
X3797972Y1242848D1*
X3788864Y1241406D1*
X3779640D1*
X3770531Y1242848D1*
X3761760Y1245698D1*
X3753542Y1249886D1*
X3746080Y1255307D1*
X3739559Y1261828D1*
X3734248Y1269125D1*
X3730812Y1264129D1*
X3725975Y1258602D1*
X3720487Y1253723D1*
X3714433Y1249564D1*
X3707907Y1246194D1*
X3701013Y1243665D1*
X3693856Y1242014D1*
X3686550Y1241269D1*
X3679207Y1241441D1*
X3671944Y1242528D1*
X3664873Y1244512D1*
X3658104Y1247361D1*
X3651743Y1251033D1*
X3645890Y1255470D1*
X3640636Y1260601D1*
X3636063Y1266348D1*
X3634259Y1269102D1*
X3628945Y1261828D1*
X3622424Y1255307D1*
X3614962Y1249886D1*
X3606744Y1245698D1*
X3597972Y1242848D1*
X3588864Y1241406D1*
X3579640D1*
X3570531Y1242848D1*
X3561760Y1245698D1*
X3553542Y1249886D1*
X3546080Y1255307D1*
X3543022Y1258134D1*
X3543028Y1241224D1*
X3425476D1*
Y1358776D1*
X3460033D1*
X3455266Y1361885D1*
X3448723Y1367472D1*
X3443135Y1374016D1*
X3438639Y1381353D1*
X3435345Y1389303D1*
X3434391Y1392686D1*
X3431915Y1385264D1*
X3428008Y1377596D1*
X3422950Y1370635D1*
X3416865Y1364550D1*
X3409904Y1359492D1*
X3402236Y1355585D1*
X3394052Y1352927D1*
X3385554Y1351580D1*
X3376948D1*
X3368449Y1352927D1*
X3360265Y1355585D1*
X3352597Y1359492D1*
X3345636Y1364550D1*
X3339551Y1370635D1*
X3334493Y1377596D1*
X3330587Y1385264D1*
X3327928Y1393448D1*
X3326581Y1401946D1*
Y1410552D1*
X3327928Y1419051D1*
X3330587Y1427235D1*
X3334493Y1434903D1*
X3339551Y1441864D1*
X3345636Y1447949D1*
X3349451Y1450904D1*
X3349444Y1457600D1*
X3342552Y1464386D1*
X3337495Y1471346D1*
X3334270Y1477533D1*
X3331009Y1471346D1*
X3325951Y1464386D1*
X3319866Y1458301D1*
X3312906Y1453243D1*
X3305238Y1449336D1*
X3297054Y1446677D1*
X3288555Y1445331D1*
X3279949D1*
X3271450Y1446677D1*
X3263266Y1449336D1*
X3255598Y1453243D1*
X3248638Y1458301D1*
X3242552Y1464386D1*
X3237495Y1471346D1*
X3234270Y1477533D1*
X3231399Y1471991D1*
X3227234Y1465944D1*
X3222298Y1460505D1*
X3216680Y1455777D1*
X3210480Y1451840D1*
X3203810Y1448768D1*
X3196790Y1446614D1*
X3189545Y1445417D1*
X3182203Y1445199D1*
X3174900Y1445965D1*
X3167764Y1447698D1*
X3160924Y1450370D1*
X3154503Y1453933D1*
X3148614Y1458320D1*
X3143365Y1463455D1*
X3138848Y1469247D1*
X3135146Y1475589D1*
X3134256Y1477478D1*
X3131009Y1471346D1*
X3125951Y1464386D1*
X3119866Y1458301D1*
X3112906Y1453243D1*
X3105238Y1449336D1*
X3097054Y1446677D1*
X3088555Y1445331D1*
X3079949D1*
X3071450Y1446677D1*
X3063266Y1449336D1*
X3055598Y1453243D1*
X3048638Y1458301D1*
X3042552Y1464386D1*
X3037495Y1471346D1*
X3034270Y1477533D1*
X3031009Y1471346D1*
X3025951Y1464386D1*
X3019866Y1458301D1*
X3012906Y1453243D1*
X3005238Y1449336D1*
X2997054Y1446677D1*
X2988555Y1445331D1*
X2979949D1*
X2971450Y1446677D1*
X2963266Y1449336D1*
X2955598Y1453243D1*
X2948638Y1458301D1*
X2942552Y1464386D1*
X2937495Y1471346D1*
X2934270Y1477533D1*
X2931009Y1471346D1*
X2925951Y1464386D1*
X2919866Y1458301D1*
X2916051Y1455345D1*
X2916059Y1249421D1*
X2922424Y1244693D1*
X2928945Y1238172D1*
X2934256Y1230875D1*
X2939559Y1238172D1*
X2946080Y1244693D1*
X2953542Y1250114D1*
X2961760Y1254302D1*
X2970531Y1257152D1*
X2979640Y1258594D1*
X2988864D1*
X2997972Y1257152D1*
X3006744Y1254302D1*
X3014962Y1250114D1*
X3022424Y1244693D1*
X3028945Y1238172D1*
X3034256Y1230875D1*
X3038256Y1236592D1*
X3043178Y1242042D1*
X3048743Y1246836D1*
X3054861Y1250899D1*
X3061437Y1254167D1*
X3068371Y1256589D1*
X3075552Y1258129D1*
X3082869Y1258760D1*
X3090207Y1258472D1*
X3097454Y1257274D1*
X3104493Y1255180D1*
X3111217Y1252226D1*
X3117520Y1248454D1*
X3123302Y1243928D1*
X3128476Y1238715D1*
X3132959Y1232898D1*
X3136681Y1226566D1*
X3139585Y1219820D1*
X3141625Y1212765D1*
X3142769Y1205510D1*
X3142999Y1198163D1*
X3142311Y1190850D1*
X3140717Y1183682D1*
X3138241Y1176768D1*
X3134923Y1170215D1*
X3130812Y1164129D1*
X3125975Y1158602D1*
X3120487Y1153723D1*
X3114433Y1149564D1*
X3107907Y1146194D1*
X3101013Y1143665D1*
X3093856Y1142014D1*
X3086550Y1141269D1*
X3079207Y1141441D1*
X3071944Y1142528D1*
X3064873Y1144512D1*
X3058104Y1147361D1*
X3051743Y1151033D1*
X3045890Y1155470D1*
X3040636Y1160601D1*
X3036063Y1166348D1*
X3034259Y1169102D1*
X3028945Y1161828D1*
X3022424Y1155307D1*
X3014962Y1149886D1*
X3006744Y1145698D1*
X2997972Y1142848D1*
X2988864Y1141406D1*
X2979640D1*
X2970531Y1142848D1*
X2961760Y1145698D1*
X2953542Y1149886D1*
X2946080Y1155307D1*
X2939559Y1161828D1*
X2934248Y1169125D1*
X2928945Y1161828D1*
X2922424Y1155307D1*
X2914962Y1149886D1*
X2906744Y1145698D1*
X2897972Y1142848D1*
X2888864Y1141406D1*
X2879640D1*
X2870531Y1142848D1*
X2861760Y1145698D1*
X2853542Y1149886D1*
X2846080Y1155307D1*
X2843022Y1158134D1*
X2843028Y1141224D1*
X2725476D1*
Y1149442D1*
X2660004Y1149541D1*
X2655075Y1150322D1*
X2650328Y1151864D1*
X2645881Y1154130D1*
X2641843Y1157063D1*
X2594539Y1204228D1*
X2380560Y1418207D1*
X2356969Y1418193D1*
X2351999Y1415171D1*
X2346332Y1412823D1*
X2340367Y1411391D1*
X2334252Y1410909D1*
X2328136Y1411391D1*
X2322172Y1412823D1*
X2316505Y1415171D1*
X2311276Y1418375D1*
X2306610Y1422358D1*
X2302627Y1427024D1*
X2299423Y1432253D1*
X2297075Y1437920D1*
X2295643Y1443885D1*
X2295357Y1446302D1*
X2288555Y1445331D1*
X2279949D1*
X2271450Y1446677D1*
X2263266Y1449336D1*
X2255598Y1453243D1*
X2248638Y1458301D1*
X2242552Y1464386D1*
X2237495Y1471346D1*
X2234270Y1477533D1*
X2231009Y1471346D1*
X2225951Y1464386D1*
X2219866Y1458301D1*
X2212906Y1453243D1*
X2205238Y1449336D1*
X2197054Y1446677D1*
X2188555Y1445331D1*
X2179949D1*
X2171450Y1446677D1*
X2163266Y1449336D1*
X2155598Y1453243D1*
X2148638Y1458301D1*
X2142552Y1464386D1*
X2137495Y1471346D1*
X2134270Y1477533D1*
X2131009Y1471346D1*
X2125951Y1464386D1*
X2119866Y1458301D1*
X2112906Y1453243D1*
X2105238Y1449336D1*
X2097054Y1446677D1*
X2088555Y1445331D1*
X2079949D1*
X2071450Y1446677D1*
X2063266Y1449336D1*
X2055598Y1453243D1*
X2048638Y1458301D1*
X2042552Y1464386D1*
X2037495Y1471346D1*
X2034270Y1477533D1*
X2031009Y1471346D1*
X2025951Y1464386D1*
X2019866Y1458301D1*
X2012906Y1453243D1*
X2005238Y1449336D1*
X1997054Y1446677D1*
X1988555Y1445331D1*
X1979949D1*
X1971450Y1446677D1*
X1963266Y1449336D1*
X1955598Y1453243D1*
X1948638Y1458301D1*
X1942552Y1464386D1*
X1937495Y1471346D1*
X1933588Y1479014D1*
X1930929Y1487198D1*
X1929583Y1495697D1*
Y1504303D1*
X1930929Y1512802D1*
X1933588Y1520986D1*
X1937495Y1528654D1*
X1942552Y1535614D1*
X1948638Y1541699D1*
X1955598Y1546757D1*
X1963266Y1550664D1*
X1971450Y1553323D1*
X1979949Y1554669D1*
X1988555D1*
X1997054Y1553323D1*
X2005238Y1550664D1*
X2012906Y1546757D1*
X2019866Y1541699D1*
X2025951Y1535614D1*
X2031009Y1528654D1*
X2034234Y1522467D1*
X2037495Y1528654D1*
X2042552Y1535614D1*
X2048638Y1541699D1*
X2055598Y1546757D1*
X2063266Y1550664D1*
X2071450Y1553323D1*
X2079949Y1554669D1*
X2088555D1*
X2097054Y1553323D1*
X2105238Y1550664D1*
X2112906Y1546757D1*
X2119866Y1541699D1*
X2125951Y1535614D1*
X2131009Y1528654D1*
X2134234Y1522467D1*
X2137495Y1528654D1*
X2142552Y1535614D1*
X2148638Y1541699D1*
X2155598Y1546757D1*
X2163266Y1550664D1*
X2171450Y1553323D1*
X2179949Y1554669D1*
X2188555D1*
X2197054Y1553323D1*
X2205238Y1550664D1*
X2212906Y1546757D1*
X2219866Y1541699D1*
X2225951Y1535614D1*
X2231009Y1528654D1*
X2234234Y1522467D1*
X2237495Y1528654D1*
X2242552Y1535614D1*
X2248638Y1541699D1*
X2255598Y1546757D1*
X2263266Y1550664D1*
X2271450Y1553323D1*
X2279949Y1554669D1*
X2288555D1*
X2297054Y1553323D1*
X2305238Y1550664D1*
X2312906Y1546757D1*
X2319866Y1541699D1*
X2325951Y1535614D1*
X2331009Y1528654D1*
X2334234Y1522467D1*
X2337495Y1528654D1*
X2342552Y1535614D1*
X2348638Y1541699D1*
X2355598Y1546757D1*
X2363266Y1550664D1*
X2371450Y1553323D1*
X2379949Y1554669D1*
X2388555D1*
X2397054Y1553323D1*
X2405238Y1550664D1*
X2412906Y1546757D1*
X2419866Y1541699D1*
X2425951Y1535614D1*
X2431009Y1528654D1*
X2434234Y1522467D1*
X2437495Y1528654D1*
X2442552Y1535614D1*
X2448638Y1541699D1*
X2455598Y1546757D1*
X2463266Y1550664D1*
X2471450Y1553323D1*
X2479949Y1554669D1*
X2488555D1*
X2497054Y1553323D1*
X2505238Y1550664D1*
X2512906Y1546757D1*
X2519866Y1541699D1*
X2525951Y1535614D1*
X2531009Y1528654D1*
X2534234Y1522467D1*
X2537495Y1528654D1*
X2542552Y1535614D1*
X2548638Y1541699D1*
X2555598Y1546757D1*
X2563266Y1550664D1*
X2571450Y1553323D1*
X2579949Y1554669D1*
X2588555D1*
X2597054Y1553323D1*
X2605238Y1550664D1*
X2612906Y1546757D1*
X2619866Y1541699D1*
X2625951Y1535614D1*
X2631009Y1528654D1*
X2634234Y1522467D1*
X2637495Y1528654D1*
X2642552Y1535614D1*
X2648638Y1541699D1*
X2655598Y1546757D1*
X2663266Y1550664D1*
X2671450Y1553323D1*
X2679949Y1554669D1*
X2688555D1*
X2697054Y1553323D1*
X2705238Y1550664D1*
X2712906Y1546757D1*
X2719866Y1541699D1*
X2725951Y1535614D1*
X2731009Y1528654D1*
X2734234Y1522467D1*
X2737495Y1528654D1*
X2742552Y1535614D1*
X2748638Y1541699D1*
X2755598Y1546757D1*
X2763266Y1550664D1*
X2771450Y1553323D1*
X2779949Y1554669D1*
X2788555D1*
X2797054Y1553323D1*
X2805238Y1550664D1*
X2812906Y1546757D1*
X2819866Y1541699D1*
X2825951Y1535614D1*
X2831009Y1528654D1*
X2834234Y1522467D1*
X2837495Y1528654D1*
X2842552Y1535614D1*
X2848638Y1541699D1*
X2855598Y1546757D1*
X2863266Y1550664D1*
X2871450Y1553323D1*
X2879949Y1554669D1*
X2888555D1*
X2897054Y1553323D1*
X2905238Y1550664D1*
X2912906Y1546757D1*
X2919866Y1541699D1*
X2925951Y1535614D1*
X2931009Y1528654D1*
X2934234Y1522467D1*
X2937495Y1528654D1*
X2942552Y1535614D1*
X2948638Y1541699D1*
X2955598Y1546757D1*
X2963266Y1550664D1*
X2971450Y1553323D1*
X2979949Y1554669D1*
X2988555D1*
X2997054Y1553323D1*
X3005238Y1550664D1*
X3012906Y1546757D1*
X3019866Y1541699D1*
X3025951Y1535614D1*
X3031009Y1528654D1*
X3034234Y1522467D1*
X3037495Y1528654D1*
X3042552Y1535614D1*
X3048638Y1541699D1*
X3055598Y1546757D1*
X3063266Y1550664D1*
X3071450Y1553323D1*
X3079949Y1554669D1*
X3088555D1*
X3097054Y1553323D1*
X3105238Y1550664D1*
X3112906Y1546757D1*
X3119866Y1541699D1*
X3125951Y1535614D1*
X3131009Y1528654D1*
X3134234Y1522467D1*
X3137323Y1528371D1*
X3141534Y1534387D1*
X3146512Y1539786D1*
X3152167Y1544472D1*
X3158396Y1548361D1*
X3165089Y1551382D1*
X3172126Y1553482D1*
X3179381Y1554622D1*
X3186723Y1554783D1*
X3187504Y1554735D1*
X3187500Y1593222D1*
X2588235Y1593193D1*
X2583248Y1590171D1*
X2577581Y1587823D1*
X2571617Y1586391D1*
X2565501Y1585909D1*
X2559386Y1586391D1*
X2553421Y1587823D1*
X2547755Y1590171D1*
X2542794Y1593196D1*
X2381954Y1593193D1*
X2376999Y1590171D1*
X2371332Y1587823D1*
X2365367Y1586391D1*
X2359252Y1585909D1*
X2353136Y1586391D1*
X2347172Y1587823D1*
X2341505Y1590171D1*
X2336276Y1593375D1*
X2331610Y1597358D1*
X2327627Y1602024D1*
X2324423Y1607253D1*
X2322075Y1612920D1*
X2320643Y1618885D1*
X2320161Y1625000D1*
X2320643Y1631115D1*
X2322075Y1637080D1*
X2324675Y1643197D1*
X2300756Y1643193D1*
X2295749Y1640171D1*
X2290083Y1637823D1*
X2284118Y1636391D1*
X2278003Y1635909D1*
X2271887Y1636391D1*
X2265923Y1637823D1*
X2260256Y1640171D1*
X2255026Y1643375D1*
X2250361Y1647358D1*
X2246378Y1652024D1*
X2243173Y1657253D1*
X2240825Y1662920D1*
X2239394Y1668885D1*
X2238912Y1675000D1*
X2239394Y1681115D1*
X2240825Y1687080D1*
X2243173Y1692747D1*
X2246378Y1697976D1*
X2250361Y1702642D1*
X2255026Y1706625D1*
X2260256Y1709829D1*
X2265923Y1712177D1*
X2271887Y1713609D1*
X2278003Y1714091D1*
X2284118Y1713609D1*
X2290083Y1712177D1*
X2295749Y1709829D1*
X2299115Y1707870D1*
X2297075Y1712920D1*
X2295643Y1718885D1*
X2295161Y1725000D1*
X2295643Y1731115D1*
X2297075Y1737080D1*
X2299423Y1742747D1*
X2302627Y1747976D1*
X2306610Y1752642D1*
X2311276Y1756625D1*
X2316505Y1759829D1*
X2322172Y1762177D1*
X2328136Y1763609D1*
X2329983Y1763828D1*
X2329660Y1768751D1*
X2330142Y1774866D1*
X2331573Y1780831D1*
X2333921Y1786497D1*
X2337126Y1791727D1*
X2341109Y1796392D1*
X2345774Y1800375D1*
X2351004Y1803580D1*
X2356671Y1805928D1*
X2362635Y1807360D1*
X2368751Y1807841D1*
X2374866Y1807360D1*
X2380831Y1805928D1*
X2386497Y1803580D1*
X2391458Y1800555D1*
X2583517Y1800558D1*
X2588503Y1803580D1*
X2594169Y1805928D1*
X2600134Y1807360D1*
X2606249Y1807841D1*
X2612365Y1807360D1*
X2618329Y1805928D1*
X2623996Y1803580D1*
X2629226Y1800375D1*
X2633891Y1796392D1*
X2637874Y1791727D1*
X2641079Y1786497D1*
X2643427Y1780831D1*
X2644858Y1774866D1*
X2645340Y1768751D1*
X2644858Y1762635D1*
X2643462Y1756798D1*
X3187470Y1756807D1*
X3187500Y1861276D1*
X3160066Y1888840D1*
X3157133Y1892878D1*
X3154866Y1897325D1*
X3153324Y1902072D1*
X3152543Y1907001D1*
X3152445Y1973802D1*
Y2166680D1*
X3127441Y2166689D1*
Y2323311D1*
X3152453D1*
X3152445Y2355345D1*
X3145475Y2361223D1*
X3139887Y2367766D1*
X3135391Y2375104D1*
X3134270Y2377533D1*
X3131009Y2371346D1*
X3125951Y2364386D1*
X3119866Y2358301D1*
X3112906Y2353243D1*
X3105238Y2349336D1*
X3097054Y2346677D1*
X3088555Y2345331D1*
X3079949D1*
X3071450Y2346677D1*
X3063266Y2349336D1*
X3055598Y2353243D1*
X3048638Y2358301D1*
X3042552Y2364386D1*
X3037495Y2371346D1*
X3034270Y2377533D1*
X3031009Y2371346D1*
X3025951Y2364386D1*
X3019866Y2358301D1*
X3012906Y2353243D1*
X3005238Y2349336D1*
X2997054Y2346677D1*
X2988555Y2345331D1*
X2979949D1*
X2971450Y2346677D1*
X2963266Y2349336D1*
X2955598Y2353243D1*
X2948638Y2358301D1*
X2942552Y2364386D1*
X2937495Y2371346D1*
X2934270Y2377533D1*
X2931009Y2371346D1*
X2925951Y2364386D1*
X2919866Y2358301D1*
X2912906Y2353243D1*
X2905238Y2349336D1*
X2897054Y2346677D1*
X2888555Y2345331D1*
X2879949D1*
X2871450Y2346677D1*
X2863266Y2349336D1*
X2855598Y2353243D1*
X2848638Y2358301D1*
X2842552Y2364386D1*
X2837495Y2371346D1*
X2834270Y2377533D1*
X2831009Y2371346D1*
X2825951Y2364386D1*
X2819866Y2358301D1*
X2816051Y2355345D1*
X2816059Y2222697D1*
X2819081Y2217747D1*
X2821429Y2212080D1*
X2822861Y2206115D1*
X2823343Y2200000D1*
X2822861Y2193885D1*
X2821429Y2187920D1*
X2819081Y2182253D1*
X2815877Y2177024D1*
X2811894Y2172358D1*
X2807228Y2168375D1*
X2801999Y2165171D1*
X2796332Y2162823D1*
X2790367Y2161391D1*
X2784252Y2160909D1*
X2778136Y2161391D1*
X2772172Y2162823D1*
X2766505Y2165171D1*
X2761276Y2168375D1*
X2756610Y2172358D1*
X2752627Y2177024D1*
X2749423Y2182253D1*
X2747075Y2187920D1*
X2745643Y2193885D1*
X2745161Y2200000D1*
X2745643Y2206115D1*
X2747075Y2212080D1*
X2749423Y2217747D1*
X2752448Y2222707D1*
X2752445Y2305608D1*
X2746818Y2304781D1*
X2740684D1*
X2734625Y2305740D1*
X2728791Y2307635D1*
X2723325Y2310420D1*
X2721043Y2311946D1*
X2560004Y2312042D1*
X2555075Y2312823D1*
X2550328Y2314365D1*
X2545881Y2316630D1*
X2541843Y2319564D1*
X2509807Y2351461D1*
X2503810Y2348768D1*
X2496790Y2346614D1*
X2489545Y2345417D1*
X2482203Y2345199D1*
X2474900Y2345965D1*
X2467764Y2347698D1*
X2460924Y2350370D1*
X2454503Y2353933D1*
X2448614Y2358320D1*
X2443365Y2363455D1*
X2438848Y2369247D1*
X2435146Y2375589D1*
X2434256Y2377478D1*
X2431009Y2371346D1*
X2425951Y2364386D1*
X2419866Y2358301D1*
X2412906Y2353243D1*
X2405238Y2349336D1*
X2397054Y2346677D1*
X2388555Y2345331D1*
X2379949D1*
X2371450Y2346677D1*
X2363266Y2349336D1*
X2355598Y2353243D1*
X2348638Y2358301D1*
X2342552Y2364386D1*
X2337495Y2371346D1*
X2334270Y2377533D1*
X2331009Y2371346D1*
X2325951Y2364386D1*
X2319866Y2358301D1*
X2312906Y2353243D1*
X2305238Y2349336D1*
X2297054Y2346677D1*
X2288555Y2345331D1*
X2279949D1*
X2271450Y2346677D1*
X2263266Y2349336D1*
X2255598Y2353243D1*
X2248638Y2358301D1*
X2242552Y2364386D1*
X2237495Y2371346D1*
X2234270Y2377533D1*
X2231009Y2371346D1*
X2225951Y2364386D1*
X2219866Y2358301D1*
X2212906Y2353243D1*
X2205238Y2349336D1*
X2197054Y2346677D1*
X2188555Y2345331D1*
X2179949D1*
X2171450Y2346677D1*
X2163266Y2349336D1*
X2155598Y2353243D1*
X2148638Y2358301D1*
X2142552Y2364386D1*
X2137495Y2371346D1*
X2134270Y2377533D1*
X2131009Y2371346D1*
X2125951Y2364386D1*
X2119866Y2358301D1*
X2112906Y2353243D1*
X2105238Y2349336D1*
X2097054Y2346677D1*
X2088555Y2345331D1*
X2084067Y2345169D1*
X2165660Y2263573D1*
X2171332Y2262177D1*
X2176999Y2259829D1*
X2182228Y2256625D1*
X2186894Y2252642D1*
X2190877Y2247976D1*
X2194081Y2242747D1*
X2196429Y2237080D1*
X2197861Y2231115D1*
X2198343Y2225000D1*
X2197861Y2218885D1*
X2196429Y2212920D1*
X2194081Y2207253D1*
X2190877Y2202024D1*
X2186894Y2197358D1*
X2182228Y2193375D1*
X2176999Y2190171D1*
X2171332Y2187823D1*
X2165367Y2186391D1*
X2159252Y2185909D1*
X2153136Y2186391D1*
X2147172Y2187823D1*
X2141505Y2190171D1*
X2136276Y2193375D1*
X2131610Y2197358D1*
X2127627Y2202024D1*
X2124423Y2207253D1*
X2122075Y2212920D1*
X2120706Y2218567D1*
X1993373Y2345898D1*
X1984252Y2345161D1*
X1975673Y2345836D1*
X1967306Y2347845D1*
X1959356Y2351139D1*
X1952018Y2355635D1*
X1945475Y2361223D1*
X1939887Y2367766D1*
X1935391Y2375104D1*
X1932097Y2383054D1*
X1930088Y2391421D1*
X1929413Y2400000D1*
X1930088Y2408579D1*
X1932097Y2416946D1*
X1935391Y2424896D1*
X1939887Y2432234D1*
X1945475Y2438777D1*
X1952018Y2444365D1*
X1959356Y2448861D1*
X1967306Y2452155D1*
X1975673Y2454164D1*
X1984252Y2454839D1*
X1992831Y2454164D1*
X2001198Y2452155D1*
X2009148Y2448861D1*
X2016486Y2444365D1*
X2023029Y2438777D1*
X2028617Y2432234D1*
X2033113Y2424896D1*
X2034234Y2422467D1*
X2037495Y2428654D1*
X2042552Y2435614D1*
X2048638Y2441699D1*
X2055598Y2446757D1*
X2063266Y2450664D1*
X2071450Y2453323D1*
X2079949Y2454669D1*
X2088555D1*
X2097054Y2453323D1*
X2105238Y2450664D1*
X2112906Y2446757D1*
X2119866Y2441699D1*
X2125951Y2435614D1*
X2131009Y2428654D1*
X2134234Y2422467D1*
X2137495Y2428654D1*
X2142552Y2435614D1*
X2148638Y2441699D1*
X2155598Y2446757D1*
X2163266Y2450664D1*
X2171450Y2453323D1*
X2179949Y2454669D1*
X2188555D1*
X2197054Y2453323D1*
X2205238Y2450664D1*
X2212906Y2446757D1*
X2219866Y2441699D1*
X2225951Y2435614D1*
X2231009Y2428654D1*
X2234234Y2422467D1*
X2237495Y2428654D1*
X2242552Y2435614D1*
X2248638Y2441699D1*
X2255598Y2446757D1*
X2263266Y2450664D1*
X2271450Y2453323D1*
X2279949Y2454669D1*
X2288555D1*
X2297054Y2453323D1*
X2305238Y2450664D1*
X2312906Y2446757D1*
X2319866Y2441699D1*
X2325951Y2435614D1*
X2331009Y2428654D1*
X2334234Y2422467D1*
X2337495Y2428654D1*
X2342552Y2435614D1*
X2348638Y2441699D1*
X2355598Y2446757D1*
X2363266Y2450664D1*
X2371450Y2453323D1*
X2379949Y2454669D1*
X2388555D1*
X2397054Y2453323D1*
X2405238Y2450664D1*
X2412906Y2446757D1*
X2419866Y2441699D1*
X2425951Y2435614D1*
X2431009Y2428654D1*
X2434234Y2422467D1*
X2437323Y2428371D1*
X2441534Y2434387D1*
X2446512Y2439786D1*
X2452167Y2444472D1*
X2458396Y2448361D1*
X2465089Y2451382D1*
X2472126Y2453482D1*
X2479381Y2454622D1*
X2486723Y2454783D1*
X2494020Y2453962D1*
X2499448Y2452690D1*
X2499442Y2468049D1*
X2487318Y2480202D1*
X2481671Y2481573D1*
X2476004Y2483921D1*
X2470774Y2487126D1*
X2466109Y2491109D1*
X2462126Y2495774D1*
X2458921Y2501004D1*
X2456573Y2506671D1*
X2455142Y2512635D1*
X2454660Y2518751D1*
X2455142Y2524866D1*
X2456573Y2530831D1*
X2458921Y2536497D1*
X2462126Y2541727D1*
X2466109Y2546392D1*
X2470774Y2550375D1*
X2476004Y2553580D1*
X2481671Y2555928D1*
X2487635Y2557360D1*
X2493751Y2557841D1*
X2499866Y2557360D1*
X2505831Y2555928D1*
X2511497Y2553580D1*
X2516727Y2550375D1*
X2521392Y2546392D1*
X2525375Y2541727D1*
X2528580Y2536497D1*
X2530928Y2530831D1*
X2532297Y2525184D1*
X2555436Y2501909D1*
X2558370Y2497871D1*
X2560635Y2493424D1*
X2562177Y2488677D1*
X2562958Y2483748D1*
X2563056Y2450571D1*
X2571450Y2453323D1*
X2579949Y2454669D1*
X2588555D1*
X2597054Y2453323D1*
X2605238Y2450664D1*
X2612906Y2446757D1*
X2619866Y2441699D1*
X2625951Y2435614D1*
X2631009Y2428654D1*
X2634234Y2422467D1*
X2637495Y2428654D1*
X2642552Y2435614D1*
X2648638Y2441699D1*
X2655702Y2446815D1*
X2655693Y2530601D1*
X2574348Y2611921D1*
X2497753Y2611944D1*
X2492747Y2608921D1*
X2487080Y2606573D1*
X2481115Y2605142D1*
X2475000Y2604660D1*
X2468885Y2605142D1*
X2462920Y2606573D1*
X2457253Y2608921D1*
X2452024Y2612126D1*
X2447358Y2616109D1*
X2443375Y2620774D1*
X2440171Y2626004D1*
X2437823Y2631671D1*
X2436391Y2637635D1*
X2435909Y2643751D1*
X2436391Y2649866D1*
X2437823Y2655831D1*
X2440171Y2661497D1*
X2443375Y2666727D1*
X2447358Y2671392D1*
X2452024Y2675375D1*
X2457253Y2678580D1*
X2462920Y2680928D1*
X2468885Y2682360D1*
X2475000Y2682841D1*
X2481115Y2682360D1*
X2487080Y2680928D1*
X2492747Y2678580D1*
X2497707Y2675555D1*
X2589996Y2675459D1*
X2594925Y2674678D1*
X2599672Y2673136D1*
X2604119Y2670870D1*
X2608157Y2667937D1*
X2655461Y2620772D1*
X2711686Y2564408D1*
X2714619Y2560370D1*
X2716886Y2555923D1*
X2718428Y2551176D1*
X2719209Y2546247D1*
X2719307Y2479446D1*
Y2442163D1*
X2723029Y2438777D1*
X2728617Y2432234D1*
X2733113Y2424896D1*
X2734234Y2422467D1*
X2737495Y2428654D1*
X2742552Y2435614D1*
X2748638Y2441699D1*
X2755598Y2446757D1*
X2763266Y2450664D1*
X2771450Y2453323D1*
X2779949Y2454669D1*
X2788555D1*
X2797054Y2453323D1*
X2805238Y2450664D1*
X2812906Y2446757D1*
X2819866Y2441699D1*
X2825951Y2435614D1*
X2831009Y2428654D1*
X2834234Y2422467D1*
X2837495Y2428654D1*
X2842552Y2435614D1*
X2848638Y2441699D1*
X2855598Y2446757D1*
X2863266Y2450664D1*
X2871450Y2453323D1*
X2879949Y2454669D1*
X2888555D1*
X2897054Y2453323D1*
X2905238Y2450664D1*
X2912906Y2446757D1*
X2919866Y2441699D1*
X2925951Y2435614D1*
X2931009Y2428654D1*
X2934234Y2422467D1*
X2937495Y2428654D1*
X2942552Y2435614D1*
X2948638Y2441699D1*
X2955598Y2446757D1*
X2963266Y2450664D1*
X2971450Y2453323D1*
X2979949Y2454669D1*
X2988555D1*
X2997054Y2453323D1*
X3005238Y2450664D1*
X3012906Y2446757D1*
X3019866Y2441699D1*
X3025951Y2435614D1*
X3031009Y2428654D1*
X3034234Y2422467D1*
X3037495Y2428654D1*
X3042552Y2435614D1*
X3048638Y2441699D1*
X3055598Y2446757D1*
X3063266Y2450664D1*
X3071450Y2453323D1*
X3079949Y2454669D1*
X3088555D1*
X3097054Y2453323D1*
X3105238Y2450664D1*
X3112906Y2446757D1*
X3119866Y2441699D1*
X3125951Y2435614D1*
X3131009Y2428654D1*
X3134234Y2422467D1*
X3137495Y2428654D1*
X3142552Y2435614D1*
X3148638Y2441699D1*
X3155598Y2446757D1*
X3163266Y2450664D1*
X3171450Y2453323D1*
X3179949Y2454669D1*
X3188555D1*
X3197054Y2453323D1*
X3205238Y2450664D1*
X3212906Y2446757D1*
X3219866Y2441699D1*
X3225951Y2435614D1*
X3231009Y2428654D1*
X3234234Y2422467D1*
X3237495Y2428654D1*
X3242552Y2435614D1*
X3248638Y2441699D1*
X3255598Y2446757D1*
X3263266Y2450664D1*
X3271450Y2453323D1*
X3279949Y2454669D1*
X3288555D1*
X3297054Y2453323D1*
X3305238Y2450664D1*
X3312906Y2446757D1*
X3319866Y2441699D1*
X3325951Y2435614D1*
X3331009Y2428654D1*
X3334234Y2422467D1*
X3337495Y2428654D1*
X3342552Y2435614D1*
X3348638Y2441699D1*
X3355598Y2446757D1*
X3363266Y2450664D1*
X3371450Y2453323D1*
X3379949Y2454669D1*
X3388555D1*
X3397054Y2453323D1*
X3405238Y2450664D1*
X3412906Y2446757D1*
X3419866Y2441699D1*
X3425951Y2435614D1*
X3431009Y2428654D1*
X3434234Y2422467D1*
X3437495Y2428654D1*
X3442552Y2435614D1*
X3448638Y2441699D1*
X3455598Y2446757D1*
X3463266Y2450664D1*
X3471450Y2453323D1*
X3479949Y2454669D1*
X3488555D1*
X3497054Y2453323D1*
X3505238Y2450664D1*
X3512906Y2446757D1*
X3519866Y2441699D1*
X3525951Y2435614D1*
X3531009Y2428654D1*
X3534234Y2422467D1*
X3537495Y2428654D1*
X3542552Y2435614D1*
X3548638Y2441699D1*
X3555598Y2446757D1*
X3563266Y2450664D1*
X3571450Y2453323D1*
X3579949Y2454669D1*
X3588555D1*
X3597054Y2453323D1*
X3605238Y2450664D1*
X3612906Y2446757D1*
X3619866Y2441699D1*
X3625951Y2435614D1*
X3631009Y2428654D1*
X3634234Y2422467D1*
X3637495Y2428654D1*
X3642552Y2435614D1*
X3648638Y2441699D1*
X3655598Y2446757D1*
X3663266Y2450664D1*
X3671450Y2453323D1*
X3679949Y2454669D1*
X3688555D1*
X3697054Y2453323D1*
X3705238Y2450664D1*
X3712906Y2446757D1*
X3719866Y2441699D1*
X3725951Y2435614D1*
X3731009Y2428654D1*
X3734234Y2422467D1*
X3737495Y2428654D1*
X3742552Y2435614D1*
X3748638Y2441699D1*
X3755598Y2446757D1*
X3763266Y2450664D1*
X3771450Y2453323D1*
X3779949Y2454669D1*
X3788555D1*
X3797054Y2453323D1*
X3805238Y2450664D1*
X3812906Y2446757D1*
X3819866Y2441699D1*
X3825951Y2435614D1*
X3831009Y2428654D1*
X3834916Y2420986D1*
X3837575Y2412802D1*
X3838921Y2404303D1*
Y2395697D1*
X3837575Y2387198D1*
X3835738Y2381239D1*
X3883630Y2381251D1*
X3889030Y3893038D1*
X3704894Y3893012D1*
X3718467Y3879223D1*
X3722617Y3873510D1*
X3725823Y3867219D1*
X3728005Y3860504D1*
X3729109Y3853530D1*
X3729248Y3837835D1*
X3734256Y3830875D1*
X3738256Y3836592D1*
X3743178Y3842042D1*
X3748743Y3846836D1*
X3754861Y3850899D1*
X3761437Y3854167D1*
X3768371Y3856589D1*
X3775552Y3858129D1*
X3782869Y3858760D1*
X3790207Y3858472D1*
X3797454Y3857274D1*
X3804493Y3855180D1*
X3811217Y3852226D1*
X3817520Y3848454D1*
X3823302Y3843928D1*
X3828476Y3838715D1*
X3832959Y3832898D1*
X3836681Y3826566D1*
X3839585Y3819820D1*
X3841625Y3812765D1*
X3842769Y3805510D1*
X3842999Y3798163D1*
X3842311Y3790850D1*
X3840717Y3783682D1*
X3838241Y3776768D1*
X3834923Y3770215D1*
X3830812Y3764129D1*
X3825975Y3758602D1*
X3820487Y3753723D1*
X3814433Y3749564D1*
X3807907Y3746194D1*
X3801013Y3743665D1*
X3793856Y3742014D1*
X3786550Y3741269D1*
X3779207Y3741441D1*
X3771944Y3742528D1*
X3764873Y3744512D1*
X3758104Y3747361D1*
X3751743Y3751033D1*
X3745890Y3755470D1*
X3740636Y3760601D1*
X3736063Y3766348D1*
X3734259Y3769102D1*
X3728945Y3761828D1*
X3722424Y3755307D1*
X3714962Y3749886D1*
X3706744Y3745698D1*
X3697972Y3742848D1*
X3688864Y3741406D1*
X3679640D1*
X3670531Y3742848D1*
X3661760Y3745698D1*
X3653542Y3749886D1*
X3646080Y3755307D1*
X3643022Y3758134D1*
X3643028Y3741224D1*
X3525476D1*
Y3830038D1*
X3434797Y3830004D1*
X3438239Y3823239D1*
X3440715Y3816324D1*
X3442310Y3809155D1*
X3442999Y3801844D1*
X3442769Y3794496D1*
X3441626Y3787241D1*
X3439587Y3780186D1*
X3436684Y3773440D1*
X3432962Y3767108D1*
X3428480Y3761290D1*
X3423307Y3756077D1*
X3417525Y3751549D1*
X3411223Y3747778D1*
X3404500Y3744822D1*
X3397461Y3742728D1*
X3390214Y3741528D1*
X3382875Y3741240D1*
X3375559Y3741871D1*
X3368377Y3743409D1*
X3361444Y3745831D1*
X3354866Y3749097D1*
X3348748Y3753160D1*
X3343184Y3757953D1*
X3338260Y3763403D1*
X3334259Y3769102D1*
X3328945Y3761828D1*
X3322424Y3755307D1*
X3314962Y3749886D1*
X3306744Y3745698D1*
X3297972Y3742848D1*
X3288864Y3741406D1*
X3279640D1*
X3270531Y3742848D1*
X3261760Y3745698D1*
X3253542Y3749886D1*
X3246080Y3755307D1*
X3243022Y3758134D1*
X3243028Y3741224D1*
X3125476D1*
Y3830038D1*
X3034822Y3830004D1*
X3038239Y3823239D1*
X3040715Y3816324D1*
X3042310Y3809155D1*
X3042999Y3801844D1*
X3042769Y3794496D1*
X3041626Y3787241D1*
X3039587Y3780186D1*
X3036684Y3773440D1*
X3032962Y3767108D1*
X3028480Y3761290D1*
X3023307Y3756077D1*
X3017525Y3751549D1*
X3011223Y3747778D1*
X3004500Y3744822D1*
X2997461Y3742728D1*
X2990214Y3741528D1*
X2982875Y3741240D1*
X2975559Y3741871D1*
X2968377Y3743409D1*
X2961444Y3745831D1*
X2954866Y3749097D1*
X2948748Y3753160D1*
X2943184Y3757953D1*
X2938260Y3763403D1*
X2934259Y3769102D1*
X2928945Y3761828D1*
X2922424Y3755307D1*
X2914962Y3749886D1*
X2906744Y3745698D1*
X2897972Y3742848D1*
X2888864Y3741406D1*
X2879640D1*
X2870531Y3742848D1*
X2861760Y3745698D1*
X2853542Y3749886D1*
X2846080Y3755307D1*
X2843022Y3758134D1*
X2843028Y3741224D1*
X2725476D1*
Y3830038D1*
X2634822Y3830004D1*
X2638239Y3823239D1*
X2640715Y3816324D1*
X2642310Y3809155D1*
X2642999Y3801844D1*
X2642769Y3794496D1*
X2641626Y3787241D1*
X2639587Y3780186D1*
X2636684Y3773440D1*
X2632962Y3767108D1*
X2628480Y3761290D1*
X2623307Y3756077D1*
X2617525Y3751549D1*
X2611223Y3747778D1*
X2604500Y3744822D1*
X2597461Y3742728D1*
X2590214Y3741528D1*
X2582875Y3741240D1*
X2575559Y3741871D1*
X2568377Y3743409D1*
X2561444Y3745831D1*
X2554866Y3749097D1*
X2548748Y3753160D1*
X2543184Y3757953D1*
X2538260Y3763403D1*
X2534259Y3769102D1*
X2528945Y3761828D1*
X2522424Y3755307D1*
X2514962Y3749886D1*
X2506744Y3745698D1*
X2497972Y3742848D1*
X2488864Y3741406D1*
X2479640D1*
X2470531Y3742848D1*
X2461760Y3745698D1*
X2453542Y3749886D1*
X2446080Y3755307D1*
X2443022Y3758134D1*
X2443028Y3741224D1*
X2325476D1*
Y3830038D1*
X2243003Y3830004D1*
X2243028Y3741224D1*
X2125476D1*
Y3758126D1*
X2118799Y3752450D1*
X2110936Y3747630D1*
X2102415Y3744101D1*
X2093446Y3741948D1*
X2084252Y3741224D1*
X2075058Y3741948D1*
X2066089Y3744101D1*
X2057568Y3747630D1*
X2049705Y3752450D1*
X2042692Y3758440D1*
X2036702Y3765453D1*
X2034248Y3769125D1*
X2028945Y3761828D1*
X2022424Y3755307D1*
X2014962Y3749886D1*
X2006744Y3745698D1*
X1997972Y3742848D1*
X1988864Y3741406D1*
X1979640D1*
X1970531Y3742848D1*
X1961760Y3745698D1*
X1953542Y3749886D1*
X1946080Y3755307D1*
X1939559Y3761828D1*
X1934248Y3769125D1*
X1928945Y3761828D1*
X1922424Y3755307D1*
X1914962Y3749886D1*
X1906744Y3745698D1*
X1897972Y3742848D1*
X1888864Y3741406D1*
X1879640D1*
X1870531Y3742848D1*
X1861760Y3745698D1*
X1853542Y3749886D1*
X1846080Y3755307D1*
X1839559Y3761828D1*
X1834248Y3769125D1*
X1828945Y3761828D1*
X1822424Y3755307D1*
X1816056Y3750617D1*
X1815961Y3685004D1*
X1815180Y3680075D1*
X1813638Y3675328D1*
X1811373Y3670881D1*
X1808438Y3666843D1*
X1761273Y3619539D1*
X1692409Y3550814D1*
X1688371Y3547879D1*
X1683924Y3545614D1*
X1679177Y3544072D1*
X1674248Y3543291D1*
X1629731Y3543193D1*
X1634987Y3536861D1*
X1640130Y3528471D1*
X1643895Y3519379D1*
X1646193Y3509811D1*
X1646965Y3500000D1*
X1646193Y3490189D1*
X1643895Y3480621D1*
X1640130Y3471529D1*
X1634987Y3463139D1*
X1628597Y3455655D1*
X1621113Y3449265D1*
X1612723Y3444122D1*
X1603631Y3440357D1*
X1594063Y3438059D1*
X1584252Y3437287D1*
X1574441Y3438059D1*
X1564873Y3440357D1*
X1555781Y3444122D1*
X1547391Y3449265D1*
X1539907Y3455655D1*
X1534266Y3462186D1*
X1529634Y3456718D1*
X1524262Y3451709D1*
X1518343Y3447362D1*
X1511954Y3443738D1*
X1505185Y3440885D1*
X1498130Y3438843D1*
X1490885Y3437639D1*
X1483549Y3437291D1*
X1476220Y3437803D1*
X1469004Y3439169D1*
X1461996Y3441369D1*
X1455294Y3444374D1*
X1448990Y3448140D1*
X1446962Y3449587D1*
X1446965Y3437287D1*
X1321539D1*
Y3543181D1*
X1313234Y3543193D1*
X1308249Y3540171D1*
X1302583Y3537823D1*
X1296618Y3536391D1*
X1290503Y3535909D1*
X1284387Y3536391D1*
X1278423Y3537823D1*
X1272756Y3540171D1*
X1267526Y3543375D1*
X1262861Y3547358D1*
X1258878Y3552024D1*
X1255673Y3557253D1*
X1253325Y3562920D1*
X1251894Y3568885D1*
X1251412Y3575000D1*
X1251894Y3581115D1*
X1253325Y3587080D1*
X1255673Y3592747D1*
X1258878Y3597976D1*
X1262861Y3602642D1*
X1267526Y3606625D1*
X1272756Y3609829D1*
X1278423Y3612177D1*
X1284387Y3613609D1*
X1290503Y3614091D1*
X1296618Y3613609D1*
X1302583Y3612177D1*
X1308249Y3609829D1*
X1313210Y3606804D1*
X1658567Y3606807D1*
X1752457Y3700686D1*
X1752445Y3750549D1*
X1746080Y3755307D1*
X1739559Y3761828D1*
X1734248Y3769125D1*
X1728945Y3761828D1*
X1722424Y3755307D1*
X1714962Y3749886D1*
X1706744Y3745698D1*
X1697972Y3742848D1*
X1688864Y3741406D1*
X1679640D1*
X1670531Y3742848D1*
X1661760Y3745698D1*
X1653542Y3749886D1*
X1646462Y3755005D1*
X1622064Y3755004D1*
X1614962Y3749886D1*
X1606744Y3745698D1*
X1597972Y3742848D1*
X1588864Y3741406D1*
X1579640D1*
X1570531Y3742848D1*
X1561760Y3745698D1*
X1553542Y3749886D1*
X1546080Y3755307D1*
X1539559Y3761828D1*
X1534248Y3769125D1*
X1528945Y3761828D1*
X1522424Y3755307D1*
X1514962Y3749886D1*
X1506744Y3745698D1*
X1497972Y3742848D1*
X1488864Y3741406D1*
X1479640D1*
X1470531Y3742848D1*
X1461760Y3745698D1*
X1453542Y3749886D1*
X1446080Y3755307D1*
X1439559Y3761828D1*
X1434248Y3769125D1*
X1430812Y3764129D1*
X1425975Y3758602D1*
X1420487Y3753723D1*
X1414433Y3749564D1*
X1407907Y3746194D1*
X1401013Y3743665D1*
X1393856Y3742014D1*
X1386550Y3741269D1*
X1379207Y3741441D1*
X1371944Y3742528D1*
X1364873Y3744512D1*
X1358104Y3747361D1*
X1351743Y3751033D1*
X1345890Y3755470D1*
X1340636Y3760601D1*
X1336063Y3766348D1*
X1334259Y3769102D1*
X1329668Y3762692D1*
X1324661Y3757319D1*
X1319022Y3752613D1*
X1312841Y3748646D1*
X1306214Y3745482D1*
X1299244Y3743168D1*
X1292039Y3741743D1*
X1284713Y3741226D1*
X1277379Y3741627D1*
X1270154Y3742941D1*
X1263148Y3745144D1*
X1256471Y3748205D1*
X1250228Y3752073D1*
X1244517Y3756690D1*
X1239427Y3761984D1*
X1235035Y3767871D1*
X1231412Y3774260D1*
X1228615Y3781050D1*
X1226686Y3788136D1*
X1225656Y3795408D1*
X1225541Y3802752D1*
X1226343Y3810052D1*
X1228049Y3817196D1*
X1230631Y3824071D1*
X1234051Y3830570D1*
X1238256Y3836592D1*
X1243178Y3842042D1*
X1248743Y3846836D1*
X1254861Y3850899D1*
X1261437Y3854167D1*
X1268371Y3856589D1*
X1275552Y3858129D1*
X1282869Y3858760D1*
X1290207Y3858472D1*
X1297454Y3857274D1*
X1304493Y3855180D1*
X1311217Y3852226D1*
X1317520Y3848454D1*
X1323302Y3843928D1*
X1328476Y3838715D1*
X1332959Y3832898D1*
X1334251Y3830887D1*
X1338256Y3836592D1*
X1343178Y3842042D1*
X1348743Y3846836D1*
X1354861Y3850899D1*
X1361437Y3854167D1*
X1368371Y3856589D1*
X1375552Y3858129D1*
X1382869Y3858760D1*
X1390207Y3858472D1*
X1397454Y3857274D1*
X1404493Y3855180D1*
X1411217Y3852226D1*
X1417520Y3848454D1*
X1423302Y3843928D1*
X1428476Y3838715D1*
X1432959Y3832898D1*
X1434251Y3830887D1*
X1439559Y3838172D1*
X1446080Y3844693D1*
X1453542Y3850114D1*
X1461760Y3854302D1*
X1470531Y3857152D1*
X1479640Y3858594D1*
X1488864D1*
X1497972Y3857152D1*
X1506744Y3854302D1*
X1514962Y3850114D1*
X1522424Y3844693D1*
X1528945Y3838172D1*
X1534256Y3830875D1*
X1539559Y3838172D1*
X1546080Y3844693D1*
X1553542Y3850114D1*
X1555067Y3850969D1*
X1541209Y3864835D1*
X448837Y3864846D1*
X347642Y3763675D1*
X347654Y3739529D1*
X369311Y3739562D1*
Y3582940D1*
X347673D1*
X347654Y3572365D1*
X352214Y3569365D1*
X358757Y3563777D1*
X359340Y3563147D1*
X363730Y3567224D1*
X369685Y3571521D1*
X376160Y3574983D1*
X383041Y3577550D1*
X390203Y3579173D1*
X397517Y3579825D1*
X404854Y3579495D1*
X412080Y3578186D1*
X419067Y3575924D1*
X425688Y3572749D1*
X431827Y3568718D1*
X437371Y3563903D1*
X442222Y3558390D1*
X446294Y3552278D1*
X449512Y3545677D1*
X451819Y3538706D1*
X453175Y3531488D1*
X453559Y3525000D1*
X453067Y3517673D1*
X451601Y3510478D1*
X449186Y3503542D1*
X445867Y3496991D1*
X441702Y3490944D1*
X436766Y3485505D1*
X431148Y3480777D1*
X424949Y3476840D1*
X418278Y3473768D1*
X411259Y3471614D1*
X404013Y3470417D1*
X396672Y3470199D1*
X389369Y3470965D1*
X382232Y3472698D1*
X375392Y3475370D1*
X368971Y3478933D1*
X363083Y3483320D1*
X359357Y3486827D1*
X934663Y3858776D2*
X1043028D1*
Y3841874D1*
X1049705Y3847550D1*
X1057568Y3852370D1*
X1066089Y3855899D1*
X1075058Y3858052D1*
X1084252Y3858776D1*
X1093446Y3858052D1*
X1102415Y3855899D1*
X1110936Y3852370D1*
X1118799Y3847550D1*
X1125812Y3841560D1*
X1131802Y3834547D1*
X1136622Y3826684D1*
X1140151Y3818163D1*
X1142304Y3809194D1*
X1143028Y3800000D1*
X1142304Y3790806D1*
X1140151Y3781837D1*
X1136622Y3773316D1*
X1132493Y3766487D1*
X1132357Y3696470D1*
X1131253Y3689496D1*
X1129071Y3682781D1*
X1125866Y3676490D1*
X1121715Y3670777D1*
X1099829Y3648696D1*
X1029265Y3578131D1*
X1029248Y3543680D1*
X1034238Y3537814D1*
X1038575Y3542970D1*
X1043912Y3548016D1*
X1049802Y3552403D1*
X1056165Y3556072D1*
X1062913Y3558971D1*
X1069955Y3561062D1*
X1077192Y3562314D1*
X1084526Y3562713D1*
X1091857Y3562249D1*
X1099083Y3560934D1*
X1106105Y3558782D1*
X1112828Y3555824D1*
X1119159Y3552100D1*
X1125010Y3547661D1*
X1130304Y3542568D1*
X1134965Y3536892D1*
X1138930Y3530710D1*
X1142146Y3524106D1*
X1144568Y3517172D1*
X1146161Y3510003D1*
X1146907Y3502696D1*
X1146723Y3494495D1*
X1145651Y3487230D1*
X1143736Y3480138D1*
X1141007Y3473319D1*
X1137497Y3466867D1*
X1133259Y3460869D1*
X1128346Y3455407D1*
X1122831Y3450558D1*
X1116786Y3446386D1*
X1110294Y3442950D1*
X1103445Y3440297D1*
X1096333Y3438462D1*
X1089055Y3437471D1*
X1081711Y3437339D1*
X1074403Y3438066D1*
X1067228Y3439642D1*
X1060289Y3442046D1*
X1053677Y3445245D1*
X1047486Y3449196D1*
X1041798Y3453843D1*
X1036692Y3459123D1*
X1034256Y3462146D1*
X1028597Y3455655D1*
X1021113Y3449265D1*
X1012723Y3444122D1*
X1003631Y3440357D1*
X994063Y3438059D1*
X984252Y3437287D1*
X974441Y3438059D1*
X964873Y3440357D1*
X955781Y3444122D1*
X947391Y3449265D1*
X946953Y3449610D1*
X946965Y3437287D1*
X821539D1*
Y3562713D1*
X939276D1*
X939395Y3600282D1*
X940499Y3607256D1*
X942681Y3613971D1*
X945886Y3620262D1*
X950037Y3625975D1*
X971923Y3648056D1*
X1042487Y3718621D1*
X1042504Y3741231D1*
X925476Y3741224D1*
Y3858776D1*
X934663D1*
X937505Y2963262D2*
X936539Y2954129D1*
X934934Y2945085D1*
X932698Y2936177D1*
X929843Y2927449D1*
X926381Y2918941D1*
X922331Y2910698D1*
X917711Y2902760D1*
X912546Y2895165D1*
X906861Y2887951D1*
X900684Y2881156D1*
X894043Y2874810D1*
X886975Y2868946D1*
X879512Y2863593D1*
X871692Y2858777D1*
X863551Y2854521D1*
X855134Y2850848D1*
X846479Y2847776D1*
X837630Y2845318D1*
X828629Y2843487D1*
X819522Y2842293D1*
X810354Y2841740D1*
X801171Y2841833D1*
X792016Y2842571D1*
X782936Y2843949D1*
X773974Y2845962D1*
X765176Y2848598D1*
X756585Y2851846D1*
X748244Y2855690D1*
X740193Y2860109D1*
X732471Y2865083D1*
X725118Y2870585D1*
X718169Y2876592D1*
X711660Y2883071D1*
X705621Y2889991D1*
X700083Y2897318D1*
X695072Y2905016D1*
X690615Y2913046D1*
X686732Y2921369D1*
X683445Y2929945D1*
X680766Y2938730D1*
X678711Y2947681D1*
X677290Y2956756D1*
X676509Y2965907D1*
X676371Y2975091D1*
X676881Y2984261D1*
X678031Y2993373D1*
X679819Y3002382D1*
X682235Y3011243D1*
X685268Y3019912D1*
X688902Y3028346D1*
X693118Y3036507D1*
X697896Y3044349D1*
X703214Y3051839D1*
X709045Y3058934D1*
X715360Y3065604D1*
X722126Y3071814D1*
X729312Y3077534D1*
X736882Y3082735D1*
X744799Y3087391D1*
X753022Y3091480D1*
X761513Y3094983D1*
X770228Y3097879D1*
X779126Y3100157D1*
X788161Y3101806D1*
X797290Y3102815D1*
X806467Y3103181D1*
X815648Y3102902D1*
X824786Y3101979D1*
X833836Y3100416D1*
X842755Y3098223D1*
X851497Y3095408D1*
X860021Y3091987D1*
X868283Y3087976D1*
X876243Y3083395D1*
X883862Y3078265D1*
X891102Y3072614D1*
X897928Y3066469D1*
X904304Y3059860D1*
X910202Y3052818D1*
X915591Y3045381D1*
X920444Y3037583D1*
X924738Y3029463D1*
X928450Y3021063D1*
X931564Y3012423D1*
X934064Y3003585D1*
X935937Y2994594D1*
X937175Y2985493D1*
X937828Y2972441D1*
X937505Y2963262D1*
X3496560D2*
X3495594Y2954129D1*
X3493990Y2945085D1*
X3491753Y2936177D1*
X3488898Y2927449D1*
X3485436Y2918941D1*
X3481386Y2910698D1*
X3476766Y2902760D1*
X3471601Y2895165D1*
X3465916Y2887951D1*
X3459739Y2881156D1*
X3453098Y2874810D1*
X3446030Y2868946D1*
X3438567Y2863593D1*
X3430747Y2858777D1*
X3422606Y2854521D1*
X3414189Y2850848D1*
X3405534Y2847776D1*
X3396685Y2845318D1*
X3387684Y2843487D1*
X3378577Y2842293D1*
X3369409Y2841740D1*
X3360226Y2841833D1*
X3351071Y2842571D1*
X3341991Y2843949D1*
X3333029Y2845962D1*
X3324231Y2848598D1*
X3315640Y2851846D1*
X3307299Y2855690D1*
X3299248Y2860109D1*
X3291526Y2865083D1*
X3284173Y2870585D1*
X3277224Y2876592D1*
X3270715Y2883071D1*
X3264676Y2889991D1*
X3259138Y2897318D1*
X3254127Y2905016D1*
X3249671Y2913046D1*
X3245787Y2921369D1*
X3242500Y2929945D1*
X3239822Y2938730D1*
X3237766Y2947681D1*
X3236345Y2956756D1*
X3235564Y2965907D1*
X3235427Y2975091D1*
X3235936Y2984261D1*
X3237087Y2993373D1*
X3238874Y3002382D1*
X3241290Y3011243D1*
X3244323Y3019912D1*
X3247957Y3028346D1*
X3252173Y3036507D1*
X3256951Y3044349D1*
X3262269Y3051839D1*
X3268100Y3058934D1*
X3274415Y3065604D1*
X3281181Y3071814D1*
X3288367Y3077534D1*
X3295937Y3082735D1*
X3303854Y3087391D1*
X3312077Y3091480D1*
X3320568Y3094983D1*
X3329283Y3097879D1*
X3338181Y3100157D1*
X3347217Y3101806D1*
X3356345Y3102815D1*
X3365522Y3103181D1*
X3374703Y3102902D1*
X3383841Y3101979D1*
X3392891Y3100416D1*
X3401810Y3098223D1*
X3410552Y3095408D1*
X3419076Y3091987D1*
X3427339Y3087976D1*
X3435298Y3083395D1*
X3442917Y3078265D1*
X3450157Y3072614D1*
X3456983Y3066469D1*
X3463360Y3059860D1*
X3469257Y3052818D1*
X3474646Y3045381D1*
X3479499Y3037583D1*
X3483793Y3029463D1*
X3487505Y3021063D1*
X3490619Y3012423D1*
X3493119Y3003585D1*
X3494992Y2994594D1*
X3496230Y2985493D1*
X3496883Y2972441D1*
X3496560Y2963262D1*
Y797908D2*
X3495594Y788774D1*
X3493990Y779731D1*
X3491753Y770823D1*
X3488898Y762094D1*
X3485436Y753587D1*
X3481386Y745344D1*
X3476766Y737406D1*
X3471601Y729811D1*
X3465916Y722597D1*
X3459739Y715802D1*
X3453098Y709455D1*
X3446030Y703592D1*
X3438567Y698239D1*
X3430747Y693423D1*
X3422606Y689167D1*
X3414189Y685493D1*
X3405534Y682421D1*
X3396685Y679963D1*
X3387684Y678133D1*
X3378577Y676938D1*
X3369409Y676386D1*
X3360226Y676479D1*
X3351071Y677217D1*
X3341991Y678594D1*
X3333029Y680608D1*
X3324231Y683244D1*
X3315640Y686492D1*
X3307299Y690336D1*
X3299248Y694755D1*
X3291526Y699728D1*
X3284173Y705231D1*
X3277224Y711238D1*
X3270715Y717717D1*
X3264676Y724636D1*
X3259138Y731963D1*
X3254127Y739661D1*
X3249671Y747692D1*
X3245787Y756014D1*
X3242500Y764591D1*
X3239822Y773375D1*
X3237766Y782327D1*
X3236345Y791402D1*
X3235564Y800552D1*
X3235427Y809736D1*
X3235936Y818907D1*
X3237087Y828018D1*
X3238874Y837028D1*
X3241290Y845888D1*
X3244323Y854558D1*
X3247957Y862992D1*
X3252173Y871152D1*
X3256951Y878995D1*
X3262269Y886484D1*
X3268100Y893580D1*
X3274415Y900249D1*
X3281181Y906459D1*
X3288367Y912180D1*
X3295937Y917381D1*
X3303854Y922037D1*
X3312077Y926126D1*
X3320568Y929629D1*
X3329283Y932525D1*
X3338181Y934803D1*
X3347217Y936451D1*
X3356345Y937461D1*
X3365522Y937827D1*
X3374703Y937547D1*
X3383841Y936625D1*
X3392891Y935062D1*
X3401810Y932869D1*
X3410552Y930054D1*
X3419076Y926633D1*
X3427339Y922622D1*
X3435298Y918041D1*
X3442917Y912911D1*
X3450157Y907260D1*
X3456983Y901114D1*
X3463360Y894505D1*
X3469257Y887463D1*
X3474646Y880026D1*
X3479499Y872228D1*
X3483793Y864109D1*
X3487505Y855709D1*
X3490619Y847068D1*
X3493119Y838231D1*
X3494992Y829240D1*
X3496230Y820139D1*
X3496883Y807087D1*
X3496560Y797908D1*
X937505D2*
X936539Y788774D1*
X934934Y779731D1*
X932698Y770823D1*
X929843Y762094D1*
X926381Y753587D1*
X922331Y745344D1*
X917711Y737406D1*
X912546Y729811D1*
X906861Y722597D1*
X900684Y715802D1*
X894043Y709455D1*
X886975Y703592D1*
X879512Y698239D1*
X871692Y693423D1*
X863551Y689167D1*
X855134Y685493D1*
X846479Y682421D1*
X837630Y679963D1*
X828629Y678133D1*
X819522Y676938D1*
X810354Y676386D1*
X801171Y676479D1*
X792016Y677217D1*
X782936Y678594D1*
X773974Y680608D1*
X765176Y683244D1*
X756585Y686492D1*
X748244Y690336D1*
X740193Y694755D1*
X732471Y699728D1*
X725118Y705231D1*
X718169Y711238D1*
X711660Y717717D1*
X705621Y724636D1*
X700083Y731963D1*
X695072Y739661D1*
X690615Y747692D1*
X686732Y756014D1*
X683445Y764591D1*
X680766Y773375D1*
X678711Y782327D1*
X677290Y791402D1*
X676509Y800552D1*
X676371Y809736D1*
X676881Y818907D1*
X678031Y828018D1*
X679819Y837028D1*
X682235Y845888D1*
X685268Y854558D1*
X688902Y862992D1*
X693118Y871152D1*
X697896Y878995D1*
X703214Y886484D1*
X709045Y893580D1*
X715360Y900249D1*
X722126Y906459D1*
X729312Y912180D1*
X736882Y917381D1*
X744799Y922037D1*
X753022Y926126D1*
X761513Y929629D1*
X770228Y932525D1*
X779126Y934803D1*
X788161Y936451D1*
X797290Y937461D1*
X806467Y937827D1*
X815648Y937547D1*
X824786Y936625D1*
X833836Y935062D1*
X842755Y932869D1*
X851497Y930054D1*
X860021Y926633D1*
X868283Y922622D1*
X876243Y918041D1*
X883862Y912911D1*
X891102Y907260D1*
X897928Y901114D1*
X904304Y894505D1*
X910202Y887463D1*
X915591Y880026D1*
X920444Y872228D1*
X924738Y864109D1*
X928450Y855709D1*
X931564Y847068D1*
X934064Y838231D1*
X935937Y829240D1*
X937175Y820139D1*
X937828Y807087D1*
X937505Y797908D1*
X2384663Y258776D2*
X2493028D1*
Y241874D1*
X2499705Y247550D1*
X2507568Y252370D1*
X2516089Y255899D1*
X2525058Y258052D1*
X2534252Y258776D1*
X2543446Y258052D1*
X2552415Y255899D1*
X2560936Y252370D1*
X2568799Y247550D1*
X2575812Y241560D1*
X2581802Y234547D1*
X2584256Y230875D1*
X2588256Y236592D1*
X2593178Y242042D1*
X2598743Y246836D1*
X2604861Y250899D1*
X2611437Y254167D1*
X2618371Y256589D1*
X2625552Y258129D1*
X2632869Y258760D1*
X2640207Y258472D1*
X2647454Y257274D1*
X2654493Y255180D1*
X2661217Y252226D1*
X2667520Y248454D1*
X2673302Y243928D1*
X2678476Y238715D1*
X2682959Y232898D1*
X2684251Y230887D1*
X2689559Y238172D1*
X2696080Y244693D1*
X2703542Y250114D1*
X2711760Y254302D1*
X2720531Y257152D1*
X2729640Y258594D1*
X2738864D1*
X2747972Y257152D1*
X2756744Y254302D1*
X2764962Y250114D1*
X2772424Y244693D1*
X2778945Y238172D1*
X2784256Y230875D1*
X2789559Y238172D1*
X2796080Y244693D1*
X2803542Y250114D1*
X2811760Y254302D1*
X2820531Y257152D1*
X2829640Y258594D1*
X2838864D1*
X2847972Y257152D1*
X2856744Y254302D1*
X2864962Y250114D1*
X2872424Y244693D1*
X2878945Y238172D1*
X2884366Y230710D1*
X2888554Y222492D1*
X2891404Y213720D1*
X2892846Y204612D1*
Y195388D1*
X2891404Y186280D1*
X2888554Y177508D1*
X2884366Y169290D1*
X2878945Y161828D1*
X2872424Y155307D1*
X2864962Y149886D1*
X2856744Y145698D1*
X2847972Y142848D1*
X2838864Y141406D1*
X2829640D1*
X2820531Y142848D1*
X2811760Y145698D1*
X2803542Y149886D1*
X2796080Y155307D1*
X2789559Y161828D1*
X2784248Y169125D1*
X2778945Y161828D1*
X2772424Y155307D1*
X2764962Y149886D1*
X2756744Y145698D1*
X2747972Y142848D1*
X2738864Y141406D1*
X2729640D1*
X2720531Y142848D1*
X2711760Y145698D1*
X2703542Y149886D1*
X2696080Y155307D1*
X2689559Y161828D1*
X2684248Y169125D1*
X2680812Y164129D1*
X2675975Y158602D1*
X2670487Y153723D1*
X2664433Y149564D1*
X2657907Y146194D1*
X2651013Y143665D1*
X2643856Y142014D1*
X2636550Y141269D1*
X2629207Y141441D1*
X2621944Y142528D1*
X2614873Y144512D1*
X2608104Y147361D1*
X2601743Y151033D1*
X2595890Y155470D1*
X2590636Y160601D1*
X2586063Y166348D1*
X2584259Y169102D1*
X2578945Y161828D1*
X2572424Y155307D1*
X2564962Y149886D1*
X2556744Y145698D1*
X2547972Y142848D1*
X2538864Y141406D1*
X2529640D1*
X2520531Y142848D1*
X2511760Y145698D1*
X2503542Y149886D1*
X2496080Y155307D1*
X2493022Y158134D1*
X2493028Y141224D1*
X2375476D1*
Y258776D1*
X2384663D1*
X1234663Y808776D2*
X1343028D1*
X1343178Y792042D1*
X1348743Y796836D1*
X1354861Y800899D1*
X1361437Y804167D1*
X1368371Y806589D1*
X1375552Y808129D1*
X1382869Y808760D1*
X1390207Y808472D1*
X1397454Y807274D1*
X1404493Y805180D1*
X1411217Y802226D1*
X1417520Y798454D1*
X1423302Y793928D1*
X1428476Y788715D1*
X1432959Y782898D1*
X1434251Y780887D1*
X1439559Y788172D1*
X1446080Y794693D1*
X1452448Y799383D1*
X1452543Y877496D1*
X1453324Y882425D1*
X1454866Y887172D1*
X1457133Y891619D1*
X1460066Y895657D1*
X1502436Y938165D1*
X1502445Y1000608D1*
X1496080Y1005307D1*
X1489559Y1011828D1*
X1484248Y1019125D1*
X1478945Y1011828D1*
X1472424Y1005307D1*
X1464962Y999886D1*
X1456744Y995698D1*
X1447972Y992848D1*
X1438864Y991406D1*
X1429640D1*
X1420531Y992848D1*
X1411760Y995698D1*
X1403542Y999886D1*
X1396080Y1005307D1*
X1389559Y1011828D1*
X1384248Y1019125D1*
X1378945Y1011828D1*
X1372424Y1005307D1*
X1364962Y999886D1*
X1356744Y995698D1*
X1347972Y992848D1*
X1338864Y991406D1*
X1329640D1*
X1320531Y992848D1*
X1311760Y995698D1*
X1303542Y999886D1*
X1296080Y1005307D1*
X1289559Y1011828D1*
X1284138Y1019290D1*
X1279950Y1027508D1*
X1277100Y1036280D1*
X1275657Y1045388D1*
Y1054612D1*
X1277100Y1063720D1*
X1279950Y1072492D1*
X1284138Y1080710D1*
X1289559Y1088172D1*
X1296080Y1094693D1*
X1303542Y1100114D1*
X1311760Y1104302D1*
X1320531Y1107152D1*
X1329640Y1108594D1*
X1338864D1*
X1347972Y1107152D1*
X1356744Y1104302D1*
X1364962Y1100114D1*
X1372424Y1094693D1*
X1378945Y1088172D1*
X1384256Y1080875D1*
X1389559Y1088172D1*
X1396080Y1094693D1*
X1403542Y1100114D1*
X1411760Y1104302D1*
X1420531Y1107152D1*
X1429640Y1108594D1*
X1438864D1*
X1447972Y1107152D1*
X1456744Y1104302D1*
X1464962Y1100114D1*
X1472424Y1094693D1*
X1478945Y1088172D1*
X1484256Y1080875D1*
X1489559Y1088172D1*
X1496080Y1094693D1*
X1503542Y1100114D1*
X1511760Y1104302D1*
X1520531Y1107152D1*
X1529640Y1108594D1*
X1538864D1*
X1547972Y1107152D1*
X1556744Y1104302D1*
X1564962Y1100114D1*
X1572424Y1094693D1*
X1578945Y1088172D1*
X1584256Y1080875D1*
X1589559Y1088172D1*
X1596080Y1094693D1*
X1603542Y1100114D1*
X1611760Y1104302D1*
X1620531Y1107152D1*
X1629640Y1108594D1*
X1638864D1*
X1647972Y1107152D1*
X1656744Y1104302D1*
X1664962Y1100114D1*
X1672424Y1094693D1*
X1678945Y1088172D1*
X1684256Y1080875D1*
X1689559Y1088172D1*
X1696080Y1094693D1*
X1702448Y1099383D1*
X1702445Y1314790D1*
X1699423Y1319753D1*
X1697075Y1325420D1*
X1695643Y1331385D1*
X1695161Y1337500D1*
X1695643Y1343615D1*
X1697075Y1349580D1*
X1699423Y1355247D1*
X1702627Y1360476D1*
X1706610Y1365142D1*
X1711276Y1369125D1*
X1716505Y1372329D1*
X1722172Y1374677D1*
X1728136Y1376109D1*
X1734252Y1376591D1*
X1740367Y1376109D1*
X1746332Y1374677D1*
X1751999Y1372329D1*
X1757228Y1369125D1*
X1761894Y1365142D1*
X1765877Y1360476D1*
X1769081Y1355247D1*
X1771429Y1349580D1*
X1772861Y1343615D1*
X1773343Y1337500D1*
X1772861Y1331385D1*
X1771429Y1325420D1*
X1769081Y1319753D1*
X1766056Y1314793D1*
X1766059Y1099408D1*
X1772424Y1094693D1*
X1778945Y1088172D1*
X1784256Y1080875D1*
X1789559Y1088172D1*
X1796080Y1094693D1*
X1803542Y1100114D1*
X1811760Y1104302D1*
X1820531Y1107152D1*
X1829640Y1108594D1*
X1838864D1*
X1847972Y1107152D1*
X1856744Y1104302D1*
X1864962Y1100114D1*
X1872424Y1094693D1*
X1875482Y1091866D1*
X1875476Y1108776D1*
X1993028D1*
Y991224D1*
X1875476D1*
Y1008112D1*
X1869295Y1002840D1*
X1869307Y806812D1*
X1875058Y808052D1*
X1884252Y808776D1*
X1893446Y808052D1*
X1902415Y805899D1*
X1910936Y802370D1*
X1918799Y797550D1*
X1925812Y791560D1*
X1931802Y784547D1*
X1934256Y780875D1*
X1939559Y788172D1*
X1946080Y794693D1*
X1953542Y800114D1*
X1961760Y804302D1*
X1970531Y807152D1*
X1979640Y808594D1*
X1988864D1*
X1997972Y807152D1*
X2006744Y804302D1*
X2014962Y800114D1*
X2022424Y794693D1*
X2028945Y788172D1*
X2034366Y780710D1*
X2038554Y772492D1*
X2041404Y763720D1*
X2042846Y754612D1*
Y745388D1*
X2041404Y736280D1*
X2038554Y727508D1*
X2034366Y719290D1*
X2028945Y711828D1*
X2022424Y705307D1*
X2014962Y699886D1*
X2006744Y695698D1*
X1997972Y692848D1*
X1988864Y691406D1*
X1979640D1*
X1970531Y692848D1*
X1961760Y695698D1*
X1953542Y699886D1*
X1946080Y705307D1*
X1939559Y711828D1*
X1934248Y719125D1*
X1928945Y711828D1*
X1922424Y705307D1*
X1914962Y699886D1*
X1906744Y695698D1*
X1897972Y692848D1*
X1888864Y691406D1*
X1879640D1*
X1870531Y692848D1*
X1866801Y693900D1*
X1864621Y689630D1*
X1861686Y685592D1*
X1828741Y652509D1*
X1824946Y649268D1*
X1820690Y646660D1*
X1816080Y644749D1*
X1811227Y643584D1*
X1806251Y643193D1*
X1306756Y643291D1*
X1301827Y644072D1*
X1297080Y645614D1*
X1292633Y647879D1*
X1288594Y650814D1*
X1261761Y677509D1*
X1258520Y681304D1*
X1255912Y685560D1*
X1253999Y690180D1*
X1251164Y691224D1*
X1225476D1*
Y808776D1*
X1234663D1*
X3034663Y658776D2*
X3143028D1*
Y641874D1*
X3149705Y647550D1*
X3157568Y652370D1*
X3166089Y655899D1*
X3175058Y658052D1*
X3184252Y658776D1*
X3193446Y658052D1*
X3202415Y655899D1*
X3210936Y652370D1*
X3218799Y647550D1*
X3225812Y641560D1*
X3231802Y634547D1*
X3234256Y630875D1*
X3239559Y638172D1*
X3246080Y644693D1*
X3253542Y650114D1*
X3261760Y654302D1*
X3270531Y657152D1*
X3279640Y658594D1*
X3288864D1*
X3297972Y657152D1*
X3306744Y654302D1*
X3314962Y650114D1*
X3322424Y644693D1*
X3328945Y638172D1*
X3334256Y630875D1*
X3339559Y638172D1*
X3346080Y644693D1*
X3353542Y650114D1*
X3361760Y654302D1*
X3370531Y657152D1*
X3379640Y658594D1*
X3388864D1*
X3397972Y657152D1*
X3406744Y654302D1*
X3414962Y650114D1*
X3422424Y644693D1*
X3428945Y638172D1*
X3434256Y630875D1*
X3439559Y638172D1*
X3446080Y644693D1*
X3453542Y650114D1*
X3461760Y654302D1*
X3470531Y657152D1*
X3479640Y658594D1*
X3488864D1*
X3497972Y657152D1*
X3506744Y654302D1*
X3514962Y650114D1*
X3522424Y644693D1*
X3528945Y638172D1*
X3534256Y630875D1*
X3539559Y638172D1*
X3546080Y644693D1*
X3553542Y650114D1*
X3561760Y654302D1*
X3570531Y657152D1*
X3579640Y658594D1*
X3588864D1*
X3597972Y657152D1*
X3606744Y654302D1*
X3614962Y650114D1*
X3622424Y644693D1*
X3628945Y638172D1*
X3634256Y630875D1*
X3638256Y636592D1*
X3643178Y642042D1*
X3648743Y646836D1*
X3654861Y650899D1*
X3661437Y654167D1*
X3668371Y656589D1*
X3675552Y658129D1*
X3682869Y658760D1*
X3690207Y658472D1*
X3697454Y657274D1*
X3704493Y655180D1*
X3711217Y652226D1*
X3717520Y648454D1*
X3723302Y643928D1*
X3728476Y638715D1*
X3732959Y632898D1*
X3734251Y630887D1*
X3739559Y638172D1*
X3746080Y644693D1*
X3753542Y650114D1*
X3761760Y654302D1*
X3770531Y657152D1*
X3779640Y658594D1*
X3788864D1*
X3797972Y657152D1*
X3806744Y654302D1*
X3814962Y650114D1*
X3822424Y644693D1*
X3828945Y638172D1*
X3834366Y630710D1*
X3838554Y622492D1*
X3841404Y613720D1*
X3842846Y604612D1*
Y595388D1*
X3841404Y586280D1*
X3838554Y577508D1*
X3834366Y569290D1*
X3828945Y561828D1*
X3822424Y555307D1*
X3814962Y549886D1*
X3806744Y545698D1*
X3797972Y542848D1*
X3788864Y541406D1*
X3779640D1*
X3770531Y542848D1*
X3761760Y545698D1*
X3753542Y549886D1*
X3746080Y555307D1*
X3739559Y561828D1*
X3734248Y569125D1*
X3730812Y564129D1*
X3725975Y558602D1*
X3720487Y553723D1*
X3714433Y549564D1*
X3707907Y546194D1*
X3701013Y543665D1*
X3693856Y542014D1*
X3686550Y541269D1*
X3679207Y541441D1*
X3671944Y542528D1*
X3664873Y544512D1*
X3658104Y547361D1*
X3651743Y551033D1*
X3645890Y555470D1*
X3640636Y560601D1*
X3636063Y566348D1*
X3634259Y569102D1*
X3628945Y561828D1*
X3622424Y555307D1*
X3614962Y549886D1*
X3606744Y545698D1*
X3597972Y542848D1*
X3588864Y541406D1*
X3579640D1*
X3570531Y542848D1*
X3561760Y545698D1*
X3553542Y549886D1*
X3546080Y555307D1*
X3539559Y561828D1*
X3534248Y569125D1*
X3528945Y561828D1*
X3522424Y555307D1*
X3514962Y549886D1*
X3506744Y545698D1*
X3497972Y542848D1*
X3488864Y541406D1*
X3479640D1*
X3470531Y542848D1*
X3461760Y545698D1*
X3453542Y549886D1*
X3446080Y555307D1*
X3439559Y561828D1*
X3434248Y569125D1*
X3428945Y561828D1*
X3422424Y555307D1*
X3416056Y550617D1*
X3416059Y368727D1*
X3441063Y368744D1*
Y212122D1*
X3327441D1*
Y368744D1*
X3352453D1*
X3352445Y550558D1*
X3346080Y555307D1*
X3339559Y561828D1*
X3334248Y569125D1*
X3328945Y561828D1*
X3322424Y555307D1*
X3314962Y549886D1*
X3306744Y545698D1*
X3297972Y542848D1*
X3288864Y541406D1*
X3279640D1*
X3270531Y542848D1*
X3261760Y545698D1*
X3253542Y549886D1*
X3246080Y555307D1*
X3239559Y561828D1*
X3234248Y569125D1*
X3228945Y561828D1*
X3222424Y555307D1*
X3214962Y549886D1*
X3206744Y545698D1*
X3197972Y542848D1*
X3188864Y541406D1*
X3179640D1*
X3170531Y542848D1*
X3161760Y545698D1*
X3153542Y549886D1*
X3146080Y555307D1*
X3143022Y558134D1*
X3143028Y541224D1*
X3025476D1*
Y658776D1*
X3034663D1*
X2434416D2*
X2542781D1*
Y641874D1*
X2549458Y647550D1*
X2557322Y652370D1*
X2565843Y655899D1*
X2574811Y658052D1*
X2584005Y658776D1*
X2593199Y658052D1*
X2602168Y655899D1*
X2610689Y652370D1*
X2618552Y647550D1*
X2625566Y641560D1*
X2631555Y634547D1*
X2634009Y630875D1*
X2639312Y638172D1*
X2645833Y644693D1*
X2653295Y650114D1*
X2661513Y654302D1*
X2670285Y657152D1*
X2679394Y658594D1*
X2688617D1*
X2697726Y657152D1*
X2706497Y654302D1*
X2714715Y650114D1*
X2722177Y644693D1*
X2728698Y638172D1*
X2734009Y630875D1*
X2738009Y636592D1*
X2742932Y642042D1*
X2748496Y646836D1*
X2754614Y650899D1*
X2761190Y654167D1*
X2768125Y656589D1*
X2775306Y658129D1*
X2782622Y658760D1*
X2789961Y658472D1*
X2797207Y657274D1*
X2804247Y655180D1*
X2810970Y652226D1*
X2817273Y648454D1*
X2823055Y643928D1*
X2828230Y638715D1*
X2832713Y632898D1*
X2836434Y626566D1*
X2839339Y619820D1*
X2841378Y612765D1*
X2842522Y605510D1*
X2842752Y598163D1*
X2842064Y590850D1*
X2840470Y583682D1*
X2837995Y576768D1*
X2834676Y570215D1*
X2830566Y564129D1*
X2825728Y558602D1*
X2820240Y553723D1*
X2814186Y549564D1*
X2807660Y546194D1*
X2800766Y543665D1*
X2793609Y542014D1*
X2786303Y541269D1*
X2778961Y541441D1*
X2771697Y542528D1*
X2764626Y544512D1*
X2757857Y547361D1*
X2751496Y551033D1*
X2745643Y555470D1*
X2740390Y560601D1*
X2735816Y566348D1*
X2734012Y569102D1*
X2728698Y561828D1*
X2722177Y555307D1*
X2721483Y554760D1*
X2768941Y507291D1*
X2774580Y505928D1*
X2780247Y503580D1*
X2785476Y500375D1*
X2790142Y496392D1*
X2794125Y491727D1*
X2797329Y486497D1*
X2799677Y480831D1*
X2801109Y474866D1*
X2801591Y468751D1*
X2801109Y462635D1*
X2799677Y456671D1*
X2798610Y453781D1*
X2804226Y450375D1*
X2808891Y446392D1*
X2812874Y441727D1*
X2816079Y436497D1*
X2818427Y430831D1*
X2819858Y424866D1*
X2820340Y418751D1*
X2819858Y412635D1*
X2818427Y406671D1*
X2816079Y401004D1*
X2812874Y395774D1*
X2808891Y391109D1*
X2804226Y387126D1*
X2798996Y383921D1*
X2793329Y381573D1*
X2787365Y380142D1*
X2781249Y379660D1*
X2775134Y380142D1*
X2769169Y381573D1*
X2763503Y383921D1*
X2758542Y386946D1*
X2747503Y387042D1*
X2742573Y387823D1*
X2737827Y389365D1*
X2733379Y391631D1*
X2729341Y394564D1*
X2682038Y441730D1*
X2582546Y541220D1*
X2574811Y541948D1*
X2565843Y544101D1*
X2557322Y547630D1*
X2549458Y552450D1*
X2542776Y558134D1*
X2542781Y541224D1*
X2425230D1*
Y568173D1*
X2416507Y568193D1*
X2411496Y565171D1*
X2405829Y562823D1*
X2399865Y561391D1*
X2393749Y560909D1*
X2387634Y561391D1*
X2381669Y562823D1*
X2376003Y565171D1*
X2370773Y568375D1*
X2366108Y572358D1*
X2362125Y577024D1*
X2358920Y582253D1*
X2356572Y587920D1*
X2355140Y593885D1*
X2354659Y600000D1*
X2355140Y606115D1*
X2356572Y612080D1*
X2358920Y617747D1*
X2362125Y622976D1*
X2366108Y627642D1*
X2370773Y631625D1*
X2376003Y634829D1*
X2381669Y637177D1*
X2387634Y638609D1*
X2393749Y639091D1*
X2399865Y638609D1*
X2405829Y637177D1*
X2411496Y634829D1*
X2416457Y631804D1*
X2425219Y631807D1*
X2425230Y658776D1*
X2434416D1*
X1934663Y3458776D2*
X2043028D1*
Y3445031D1*
X2087782Y3444857D1*
X2094756Y3443753D1*
X2101471Y3441571D1*
X2107762Y3438366D1*
X2113475Y3434215D1*
X2135556Y3412329D1*
X2218467Y3329223D1*
X2222618Y3323510D1*
X2225823Y3317219D1*
X2228005Y3310504D1*
X2229109Y3303530D1*
X2229248Y3272441D1*
Y3108773D1*
X2343028Y3108776D1*
Y2991224D1*
X2326126D1*
X2331802Y2984547D1*
X2336622Y2976684D1*
X2340151Y2968163D1*
X2342304Y2959194D1*
X2343028Y2950000D1*
X2342304Y2940806D1*
X2340151Y2931837D1*
X2336622Y2923316D1*
X2331802Y2915453D1*
X2325812Y2908440D1*
X2318799Y2902450D1*
X2315127Y2899996D1*
X2322424Y2894693D1*
X2328945Y2888172D1*
X2334366Y2880710D1*
X2338554Y2872492D1*
X2341404Y2863720D1*
X2342846Y2854612D1*
Y2845388D1*
X2341404Y2836280D1*
X2338554Y2827508D1*
X2334366Y2819290D1*
X2328945Y2811828D1*
X2322424Y2805307D1*
X2315127Y2799996D1*
X2320482Y2796282D1*
X2325971Y2791402D1*
X2330808Y2785877D1*
X2334919Y2779790D1*
X2338239Y2773239D1*
X2340715Y2766324D1*
X2342310Y2759155D1*
X2342999Y2751844D1*
X2342769Y2744496D1*
X2341626Y2737241D1*
X2339587Y2730186D1*
X2336684Y2723440D1*
X2332962Y2717108D1*
X2328480Y2711290D1*
X2323307Y2706077D1*
X2317525Y2701549D1*
X2311223Y2697778D1*
X2304500Y2694822D1*
X2297461Y2692728D1*
X2290214Y2691528D1*
X2282875Y2691240D1*
X2275559Y2691871D1*
X2268377Y2693409D1*
X2261444Y2695831D1*
X2254866Y2699097D1*
X2248748Y2703160D1*
X2243184Y2707953D1*
X2238260Y2713403D1*
X2234055Y2719425D1*
X2230634Y2725924D1*
X2228050Y2732798D1*
X2226344Y2739941D1*
X2225541Y2747241D1*
X2225655Y2754585D1*
X2226685Y2761857D1*
X2228613Y2768944D1*
X2231409Y2775735D1*
X2235031Y2782123D1*
X2239423Y2788012D1*
X2244513Y2793306D1*
X2250223Y2797923D1*
X2253352Y2799996D1*
X2246462Y2805005D1*
X2205722Y2805143D1*
X2198748Y2806247D1*
X2192033Y2808429D1*
X2185741Y2811634D1*
X2180029Y2815785D1*
X2152434Y2843182D1*
X2147849Y2848552D1*
X2144160Y2854572D1*
X2141458Y2861096D1*
X2139810Y2867961D1*
X2139256Y2875000D1*
Y3281388D1*
X2065630Y3354987D1*
X2043021Y3355004D1*
X2043028Y3341224D1*
X2026126D1*
X2030808Y3335877D1*
X2034919Y3329790D1*
X2038239Y3323239D1*
X2040715Y3316324D1*
X2042310Y3309155D1*
X2042999Y3301844D1*
X2042769Y3294496D1*
X2041626Y3287241D1*
X2039587Y3280186D1*
X2036684Y3273440D1*
X2032962Y3267108D1*
X2028480Y3261290D1*
X2023307Y3256077D1*
X2017525Y3251549D1*
X2015146Y3250008D1*
X2022424Y3244693D1*
X2028945Y3238172D1*
X2034366Y3230710D1*
X2038554Y3222492D1*
X2041404Y3213720D1*
X2042846Y3204612D1*
Y3195388D1*
X2041404Y3186280D1*
X2038554Y3177508D1*
X2034366Y3169290D1*
X2028945Y3161828D1*
X2022424Y3155307D1*
X2015127Y3149996D1*
X2022424Y3144693D1*
X2028945Y3138172D1*
X2034366Y3130710D1*
X2038554Y3122492D1*
X2041404Y3113720D1*
X2042846Y3104612D1*
Y3095388D1*
X2041404Y3086280D1*
X2038554Y3077508D1*
X2034366Y3069290D1*
X2028945Y3061828D1*
X2022424Y3055307D1*
X2015127Y3049996D1*
X2022424Y3044693D1*
X2028945Y3038172D1*
X2034366Y3030710D1*
X2038554Y3022492D1*
X2041404Y3013720D1*
X2042846Y3004612D1*
Y2995388D1*
X2041404Y2986280D1*
X2038554Y2977508D1*
X2034366Y2969290D1*
X2028945Y2961828D1*
X2022424Y2955307D1*
X2015127Y2949996D1*
X2022424Y2944693D1*
X2028945Y2938172D1*
X2034366Y2930710D1*
X2038554Y2922492D1*
X2041404Y2913720D1*
X2042846Y2904612D1*
Y2895388D1*
X2041404Y2886280D1*
X2038554Y2877508D1*
X2034366Y2869290D1*
X2028945Y2861828D1*
X2022424Y2855307D1*
X2015127Y2849996D1*
X2022424Y2844693D1*
X2028945Y2838172D1*
X2034366Y2830710D1*
X2038554Y2822492D1*
X2041404Y2813720D1*
X2042846Y2804612D1*
Y2795388D1*
X2041404Y2786280D1*
X2038554Y2777508D1*
X2034366Y2769290D1*
X2028945Y2761828D1*
X2022424Y2755307D1*
X2014962Y2749886D1*
X2006744Y2745698D1*
X1997972Y2742848D1*
X1988864Y2741406D1*
X1979640D1*
X1970531Y2742848D1*
X1961760Y2745698D1*
X1953542Y2749886D1*
X1946080Y2755307D1*
X1939559Y2761828D1*
X1934138Y2769290D1*
X1929950Y2777508D1*
X1927100Y2786280D1*
X1925657Y2795388D1*
Y2804612D1*
X1927100Y2813720D1*
X1929950Y2822492D1*
X1934138Y2830710D1*
X1939559Y2838172D1*
X1946080Y2844693D1*
X1953377Y2850004D1*
X1946080Y2855307D1*
X1939559Y2861828D1*
X1934138Y2869290D1*
X1929950Y2877508D1*
X1927100Y2886280D1*
X1925657Y2895388D1*
Y2904612D1*
X1927100Y2913720D1*
X1929950Y2922492D1*
X1934138Y2930710D1*
X1939559Y2938172D1*
X1946080Y2944693D1*
X1953377Y2950004D1*
X1946080Y2955307D1*
X1939559Y2961828D1*
X1934138Y2969290D1*
X1929950Y2977508D1*
X1927100Y2986280D1*
X1925657Y2995388D1*
Y3004612D1*
X1927100Y3013720D1*
X1929950Y3022492D1*
X1934138Y3030710D1*
X1939559Y3038172D1*
X1946080Y3044693D1*
X1953377Y3050004D1*
X1946080Y3055307D1*
X1939559Y3061828D1*
X1934138Y3069290D1*
X1929950Y3077508D1*
X1927100Y3086280D1*
X1925657Y3095388D1*
Y3104612D1*
X1927100Y3113720D1*
X1929950Y3122492D1*
X1934138Y3130710D1*
X1939559Y3138172D1*
X1946080Y3144693D1*
X1953377Y3150004D1*
X1946080Y3155307D1*
X1939559Y3161828D1*
X1934138Y3169290D1*
X1929950Y3177508D1*
X1927100Y3186280D1*
X1925657Y3195388D1*
Y3204612D1*
X1927100Y3213720D1*
X1929950Y3222492D1*
X1934138Y3230710D1*
X1939559Y3238172D1*
X1946080Y3244693D1*
X1953377Y3250004D1*
X1947301Y3254293D1*
X1941888Y3259257D1*
X1937139Y3264858D1*
X1933125Y3271008D1*
X1929908Y3277612D1*
X1927539Y3284563D1*
X1926058Y3291756D1*
X1925484Y3299079D1*
X1925828Y3306415D1*
X1927084Y3313651D1*
X1929232Y3320673D1*
X1932240Y3327374D1*
X1936059Y3333647D1*
X1940633Y3339394D1*
X1942365Y3341222D1*
X1925476Y3341224D1*
Y3458776D1*
X1934663D1*
X926131Y1058776D2*
X943028D1*
Y941224D1*
X825476D1*
Y1013818D1*
X691316Y1148092D1*
X688382Y1152130D1*
X686117Y1156577D1*
X684575Y1161324D1*
X683794Y1166253D1*
X683696Y1199430D1*
X607192Y1199438D1*
Y1224449D1*
X503677Y1224442D1*
X484853Y1205618D1*
X485084Y1201762D1*
X491064Y1205353D1*
X498444Y1208411D1*
X506210Y1210274D1*
X514173Y1210902D1*
X522136Y1210274D1*
X529903Y1208411D1*
X537282Y1205353D1*
X544092Y1201180D1*
X550167Y1195993D1*
X555353Y1189919D1*
X559526Y1183109D1*
X562584Y1175730D1*
X564448Y1167963D1*
X565075Y1160000D1*
X564448Y1152037D1*
X562584Y1144270D1*
X559526Y1136891D1*
X555353Y1130081D1*
X550167Y1124007D1*
X545675Y1120067D1*
X550167Y1116072D1*
X555353Y1109997D1*
X559526Y1103188D1*
X562584Y1095808D1*
X564448Y1088042D1*
X565075Y1080079D1*
X564448Y1072115D1*
X562584Y1064349D1*
X559526Y1056970D1*
X555353Y1050160D1*
X550167Y1044085D1*
X545675Y1040146D1*
X550167Y1036151D1*
X555353Y1030076D1*
X559526Y1023266D1*
X561324Y1019299D1*
X607176Y1019307D1*
X607192Y1044311D1*
X763814D1*
Y930689D1*
X607192D1*
Y955699D1*
X538915Y955693D1*
X533652Y953130D1*
X526056Y950663D1*
X518167Y949413D1*
X510180D1*
X502290Y950663D1*
X494694Y953130D1*
X487577Y956757D1*
X481115Y961451D1*
X475467Y967100D1*
X470773Y973562D1*
X467146Y980678D1*
X464678Y988274D1*
X463429Y996164D1*
X463341Y998395D1*
X457361Y994804D1*
X449982Y991747D1*
X442215Y989883D1*
X434252Y989256D1*
X426289Y989883D1*
X418522Y991747D1*
X411143Y994804D1*
X404333Y998978D1*
X398259Y1004164D1*
X393072Y1010239D1*
X388899Y1017049D1*
X385841Y1024428D1*
X383978Y1032194D1*
X383350Y1040157D1*
X383978Y1048121D1*
X385841Y1055887D1*
X388899Y1063266D1*
X393072Y1070076D1*
X398259Y1076151D1*
X402751Y1080091D1*
X397333Y1085035D1*
X392676Y1090711D1*
X388883Y1096999D1*
X386035Y1103766D1*
X384189Y1110874D1*
X383386Y1118172D1*
X383640Y1125510D1*
X384949Y1132736D1*
X387283Y1139698D1*
X390594Y1146252D1*
X394815Y1152260D1*
X399856Y1157600D1*
X402724Y1160039D1*
X398259Y1164007D1*
X393072Y1170081D1*
X388899Y1176891D1*
X385841Y1184270D1*
X383978Y1192037D1*
X383350Y1200000D1*
X383978Y1207963D1*
X385841Y1215730D1*
X388899Y1223109D1*
X393072Y1229919D1*
X398259Y1235993D1*
X404333Y1241180D1*
X411143Y1245353D1*
X418522Y1248411D1*
X426289Y1250274D1*
X434252Y1250902D1*
X439843Y1250555D1*
X469844Y1280436D1*
X473882Y1283369D1*
X478329Y1285635D1*
X483076Y1287177D1*
X488005Y1287958D1*
X554806Y1288056D1*
X607161D1*
X607192Y1313060D1*
X763814D1*
Y1199438D1*
X747343D1*
X747310Y1181933D1*
X825610Y1103625D1*
X826199Y1109194D1*
X828353Y1118163D1*
X831882Y1126684D1*
X836702Y1134547D1*
X842692Y1141560D1*
X849705Y1147550D1*
X853290Y1150041D1*
X847301Y1154293D1*
X841888Y1159257D1*
X837139Y1164858D1*
X833125Y1171008D1*
X829908Y1177612D1*
X827539Y1184563D1*
X826058Y1191756D1*
X825484Y1199079D1*
X825828Y1206415D1*
X827084Y1213651D1*
X829232Y1220673D1*
X832240Y1227374D1*
X836059Y1233647D1*
X840633Y1239394D1*
X845886Y1244526D1*
X851738Y1248963D1*
X858098Y1252636D1*
X864866Y1255487D1*
X871937Y1257471D1*
X879201Y1258558D1*
X886543Y1258731D1*
X893849Y1257987D1*
X901007Y1256337D1*
X907902Y1253808D1*
X914427Y1250438D1*
X920482Y1246282D1*
X925971Y1241402D1*
X930808Y1235877D1*
X934919Y1229790D1*
X938239Y1223239D1*
X940715Y1216324D1*
X942310Y1209155D1*
X942999Y1201844D1*
X942769Y1194496D1*
X941626Y1187241D1*
X939587Y1180186D1*
X936684Y1173440D1*
X932962Y1167108D1*
X928480Y1161290D1*
X923307Y1156077D1*
X917525Y1151549D1*
X915146Y1150008D1*
X922424Y1144693D1*
X928945Y1138172D1*
X934366Y1130710D1*
X938554Y1122492D1*
X941404Y1113720D1*
X942846Y1104612D1*
Y1095388D1*
X941404Y1086280D1*
X938554Y1077508D1*
X934366Y1069290D1*
X928945Y1061828D1*
X926118Y1058770D1*
X834663Y358776D2*
X842378D1*
X836702Y365453D1*
X831882Y373316D1*
X828353Y381837D1*
X826199Y390806D1*
X825476Y400000D1*
X826199Y409194D1*
X828353Y418163D1*
X831882Y426684D1*
X836702Y434547D1*
X842692Y441560D1*
X849705Y447550D1*
X853290Y450041D1*
X847301Y454293D1*
X841888Y459257D1*
X837139Y464858D1*
X833125Y471008D1*
X829908Y477612D1*
X827539Y484563D1*
X826058Y491756D1*
X825484Y499079D1*
X825828Y506415D1*
X827084Y513651D1*
X829232Y520673D1*
X832240Y527374D1*
X836059Y533647D1*
X840633Y539394D1*
X845886Y544526D1*
X851738Y548963D1*
X858098Y552636D1*
X864866Y555487D1*
X871937Y557471D1*
X879201Y558558D1*
X886543Y558731D1*
X893849Y557987D1*
X901007Y556337D1*
X907902Y553808D1*
X914427Y550438D1*
X920482Y546282D1*
X925971Y541402D1*
X930808Y535877D1*
X934919Y529790D1*
X938239Y523239D1*
X940715Y516324D1*
X942310Y509155D1*
X942999Y501844D1*
X942769Y494496D1*
X941626Y487241D1*
X939587Y480186D1*
X936684Y473440D1*
X932962Y467108D1*
X928480Y461290D1*
X923307Y456077D1*
X917525Y451549D1*
X915146Y450008D1*
X922424Y444693D1*
X928945Y438172D1*
X934366Y430710D1*
X938554Y422492D1*
X941404Y413720D1*
X942846Y404612D1*
Y395388D1*
X941404Y386280D1*
X938554Y377508D1*
X934366Y369290D1*
X928945Y361828D1*
X926118Y358770D1*
X943028Y358776D1*
Y335127D1*
X969692Y335154D1*
X1049092Y414554D1*
X1049098Y700458D1*
X1044802Y703810D1*
X1038062Y710550D1*
X1032459Y718261D1*
X1028131Y726755D1*
X1025186Y735820D1*
X1023696Y745234D1*
Y754766D1*
X1025186Y764180D1*
X1028131Y773245D1*
X1032459Y781739D1*
X1038062Y789450D1*
X1044802Y796190D1*
X1052513Y801793D1*
X1061007Y806121D1*
X1070072Y809066D1*
X1079486Y810556D1*
X1089018D1*
X1098432Y809066D1*
X1107497Y806121D1*
X1115991Y801793D1*
X1123702Y796190D1*
X1130442Y789450D1*
X1136045Y781739D1*
X1140373Y773245D1*
X1143318Y764180D1*
X1144808Y754766D1*
Y745234D1*
X1143318Y735820D1*
X1140373Y726755D1*
X1136045Y718261D1*
X1130442Y710550D1*
X1123702Y703810D1*
X1119415Y700495D1*
X1119298Y397241D1*
X1118434Y391794D1*
X1116730Y386547D1*
X1114226Y381633D1*
X1110983Y377169D1*
X1070135Y336168D1*
X1007083Y273269D1*
X1002619Y270026D1*
X997705Y267522D1*
X992458Y265818D1*
X987010Y264954D1*
X943021Y264846D1*
X943028Y241224D1*
X825476D1*
Y358776D1*
X834663D1*
X1313559Y2788984D2*
X1312068Y2779571D1*
X1309123Y2770505D1*
X1304795Y2762012D1*
X1299193Y2754301D1*
X1292453Y2747560D1*
X1284741Y2741958D1*
X1276248Y2737630D1*
X1267182Y2734685D1*
X1257769Y2733194D1*
X1248236D1*
X1238823Y2734685D1*
X1229757Y2737630D1*
X1221264Y2741958D1*
X1213552Y2747560D1*
X1206812Y2754301D1*
X1201210Y2762012D1*
X1196882Y2770505D1*
X1193937Y2779571D1*
X1192446Y2788984D1*
Y2798517D1*
X1193937Y2807930D1*
X1196882Y2816996D1*
X1201210Y2825490D1*
X1206812Y2833201D1*
X1213552Y2839941D1*
X1221264Y2845543D1*
X1229757Y2849871D1*
X1238823Y2852816D1*
X1248236Y2854307D1*
X1257769D1*
X1267182Y2852816D1*
X1276248Y2849871D1*
X1284741Y2845543D1*
X1292453Y2839941D1*
X1299193Y2833201D1*
X1304795Y2825490D1*
X1309123Y2816996D1*
X1312068Y2807930D1*
X1313559Y2798517D1*
Y2788984D1*
X1913559D2*
X1912068Y2779571D1*
X1909123Y2770505D1*
X1904795Y2762012D1*
X1899193Y2754301D1*
X1892453Y2747560D1*
X1884741Y2741958D1*
X1876248Y2737630D1*
X1867182Y2734685D1*
X1857769Y2733194D1*
X1848236D1*
X1838823Y2734685D1*
X1829757Y2737630D1*
X1821264Y2741958D1*
X1813552Y2747560D1*
X1806812Y2754301D1*
X1801210Y2762012D1*
X1796882Y2770505D1*
X1793937Y2779571D1*
X1792446Y2788984D1*
Y2798517D1*
X1793937Y2807930D1*
X1796882Y2816996D1*
X1801210Y2825490D1*
X1806812Y2833201D1*
X1813552Y2839941D1*
X1821264Y2845543D1*
X1829757Y2849871D1*
X1838823Y2852816D1*
X1848236Y2854307D1*
X1857769D1*
X1867182Y2852816D1*
X1876248Y2849871D1*
X1884741Y2845543D1*
X1892453Y2839941D1*
X1899193Y2833201D1*
X1904795Y2825490D1*
X1909123Y2816996D1*
X1912068Y2807930D1*
X1913559Y2798517D1*
Y2788984D1*
Y2613983D2*
X1912068Y2604570D1*
X1909123Y2595504D1*
X1904795Y2587010D1*
X1899193Y2579299D1*
X1892453Y2572559D1*
X1884741Y2566957D1*
X1876248Y2562629D1*
X1867182Y2559684D1*
X1857769Y2558193D1*
X1848236D1*
X1838823Y2559684D1*
X1829757Y2562629D1*
X1821264Y2566957D1*
X1813552Y2572559D1*
X1806812Y2579299D1*
X1801210Y2587010D1*
X1796882Y2595504D1*
X1793937Y2604570D1*
X1792446Y2613983D1*
Y2623516D1*
X1793937Y2632929D1*
X1796882Y2641995D1*
X1801210Y2650488D1*
X1806812Y2658199D1*
X1813552Y2664940D1*
X1821264Y2670542D1*
X1829757Y2674870D1*
X1838823Y2677815D1*
X1848236Y2679306D1*
X1857769D1*
X1867182Y2677815D1*
X1876248Y2674870D1*
X1884741Y2670542D1*
X1892453Y2664940D1*
X1899193Y2658199D1*
X1904795Y2650488D1*
X1909123Y2641995D1*
X1912068Y2632929D1*
X1913559Y2623516D1*
Y2613983D1*
X1313719Y2616912D2*
X1313054Y2609598D1*
X1311510Y2602417D1*
X1309112Y2595475D1*
X1305892Y2588874D1*
X1301900Y2582709D1*
X1297193Y2577071D1*
X1291840Y2572042D1*
X1285919Y2567697D1*
X1279517Y2564097D1*
X1272727Y2561297D1*
X1265648Y2559336D1*
X1258386Y2558244D1*
X1251045Y2558037D1*
X1243731Y2558717D1*
X1236554Y2560274D1*
X1229617Y2562688D1*
X1223021Y2565920D1*
X1216865Y2569924D1*
X1211236Y2574643D1*
X1206218Y2580005D1*
X1201885Y2585936D1*
X1198298Y2592345D1*
X1195510Y2599140D1*
X1193564Y2606222D1*
X1192487Y2613487D1*
X1192294Y2620829D1*
X1192990Y2628140D1*
X1194562Y2635315D1*
X1196988Y2642247D1*
X1200234Y2648836D1*
X1204249Y2654984D1*
X1208979Y2660604D1*
X1214353Y2665612D1*
X1220291Y2669933D1*
X1226707Y2673507D1*
X1233508Y2676281D1*
X1240594Y2678213D1*
X1247861Y2679276D1*
X1255203Y2679454D1*
X1262514Y2678744D1*
X1269685Y2677157D1*
X1276613Y2674718D1*
X1283194Y2671459D1*
X1289336Y2667429D1*
X1294945Y2662689D1*
X1299941Y2657306D1*
X1304252Y2651358D1*
X1307812Y2644936D1*
X1310572Y2638129D1*
X1312491Y2631039D1*
X1313539Y2623769D1*
X1313719Y2616912D1*
X1325785Y3260663D2*
X1325114Y3253349D1*
X1323560Y3246171D1*
X1321146Y3239235D1*
X1317904Y3232644D1*
X1313887Y3226496D1*
X1309152Y3220882D1*
X1303769Y3215885D1*
X1297819Y3211579D1*
X1291390Y3208028D1*
X1284577Y3205285D1*
X1277480Y3203391D1*
X1270207Y3202373D1*
X1262864Y3202247D1*
X1255559Y3203014D1*
X1248403Y3204664D1*
X1241499Y3207171D1*
X1234951Y3210499D1*
X1228858Y3214598D1*
X1223307Y3219407D1*
X1218382Y3224856D1*
X1214155Y3230862D1*
X1210690Y3237339D1*
X1208038Y3244188D1*
X1206239Y3251308D1*
X1205318Y3258594D1*
X1205289Y3265938D1*
X1206154Y3273232D1*
X1207898Y3280366D1*
X1210497Y3287236D1*
X1213912Y3293739D1*
X1218091Y3299778D1*
X1222974Y3305264D1*
X1228487Y3310117D1*
X1234550Y3314262D1*
X1241071Y3317642D1*
X1247954Y3320202D1*
X1255098Y3321907D1*
X1262396Y3322731D1*
X1269741Y3322661D1*
X1277022Y3321701D1*
X1284133Y3319861D1*
X1290967Y3317172D1*
X1297424Y3313671D1*
X1303407Y3309411D1*
X1308828Y3304455D1*
X1313606Y3298878D1*
X1317672Y3292761D1*
X1320963Y3286196D1*
X1323432Y3279278D1*
X1325042Y3272113D1*
X1325769Y3264804D1*
X1325785Y3260663D1*
X1144808Y145234D2*
X1143318Y135820D1*
X1140373Y126755D1*
X1136045Y118261D1*
X1130442Y110550D1*
X1123702Y103810D1*
X1115991Y98207D1*
X1107497Y93879D1*
X1098432Y90934D1*
X1089018Y89444D1*
X1079486D1*
X1070072Y90934D1*
X1061007Y93879D1*
X1052513Y98207D1*
X1044802Y103810D1*
X1038062Y110550D1*
X1032459Y118261D1*
X1028131Y126755D1*
X1025186Y135820D1*
X1023696Y145234D1*
Y154766D1*
X1025186Y164180D1*
X1028131Y173245D1*
X1032459Y181739D1*
X1038062Y189450D1*
X1044802Y196190D1*
X1052513Y201793D1*
X1061007Y206121D1*
X1070072Y209066D1*
X1079486Y210556D1*
X1089018D1*
X1098432Y209066D1*
X1107497Y206121D1*
X1115991Y201793D1*
X1123702Y196190D1*
X1130442Y189450D1*
X1136045Y181739D1*
X1140373Y173245D1*
X1143318Y164180D1*
X1144808Y154766D1*
Y145234D1*
X1049089Y700495D2*
X1044802Y703810D1*
X1038062Y710550D1*
X1032459Y718261D1*
X1028131Y726755D1*
X1025186Y735820D1*
X1023696Y745234D1*
Y754766D1*
X1025186Y764180D1*
X1028131Y773245D1*
X1032459Y781739D1*
X1038062Y789450D1*
X1044802Y796190D1*
X1052513Y801793D1*
X1061007Y806121D1*
X1070072Y809066D1*
X1079486Y810556D1*
X1089018D1*
X1098432Y809066D1*
X1107497Y806121D1*
X1115991Y801793D1*
X1123702Y796190D1*
X1130442Y789450D1*
X1136045Y781739D1*
X1140373Y773245D1*
X1143318Y764180D1*
X1144808Y754766D1*
Y745234D1*
X1143318Y735820D1*
X1140373Y726755D1*
X1136045Y718261D1*
X1130442Y710550D1*
X1123702Y703810D1*
X1119415Y700495D1*
X1144808Y1345234D2*
X1143318Y1335820D1*
X1140373Y1326755D1*
X1136045Y1318261D1*
X1130442Y1310550D1*
X1123702Y1303810D1*
X1115991Y1298207D1*
X1107497Y1293879D1*
X1098432Y1290934D1*
X1089018Y1289444D1*
X1079486D1*
X1070072Y1290934D1*
X1061007Y1293879D1*
X1052513Y1298207D1*
X1044802Y1303810D1*
X1038062Y1310550D1*
X1032459Y1318261D1*
X1028131Y1326755D1*
X1025186Y1335820D1*
X1023696Y1345234D1*
Y1354766D1*
X1025186Y1364180D1*
X1028131Y1373245D1*
X1032459Y1381739D1*
X1038062Y1389450D1*
X1044802Y1396190D1*
X1052513Y1401793D1*
X1061007Y1406121D1*
X1070072Y1409066D1*
X1079486Y1410556D1*
X1089018D1*
X1098432Y1409066D1*
X1107497Y1406121D1*
X1115991Y1401793D1*
X1123702Y1396190D1*
X1130442Y1389450D1*
X1136045Y1381739D1*
X1140373Y1373245D1*
X1143318Y1364180D1*
X1144808Y1354766D1*
Y1345234D1*
X402751Y460067D2*
X398259Y464007D1*
X393072Y470081D1*
X388899Y476891D1*
X385841Y484270D1*
X383978Y492037D1*
X383350Y500000D1*
X383978Y507963D1*
X385841Y515730D1*
X388899Y523109D1*
X393072Y529919D1*
X398259Y535993D1*
X404333Y541180D1*
X411143Y545353D1*
X418522Y548411D1*
X426289Y550274D1*
X434252Y550902D1*
X439843Y550555D1*
X457345Y567937D1*
X461383Y570870D1*
X465831Y573136D1*
X470577Y574678D1*
X475507Y575459D1*
X542307Y575558D1*
X607222D1*
X607190Y600562D1*
X683661D1*
X683694Y614765D1*
X680672Y619753D1*
X678324Y625420D1*
X676892Y631385D1*
X676411Y637500D1*
X676892Y643615D1*
X678324Y649580D1*
X680672Y655247D1*
X683877Y660476D1*
X687860Y665142D1*
X692525Y669125D1*
X697755Y672329D1*
X703421Y674677D1*
X709386Y676109D1*
X715501Y676591D1*
X721617Y676109D1*
X727581Y674677D1*
X733248Y672329D1*
X738478Y669125D1*
X743143Y665142D1*
X747126Y660476D1*
X750331Y655247D1*
X752678Y649580D1*
X754110Y643615D1*
X754592Y637500D1*
X754110Y631385D1*
X752678Y625420D1*
X750331Y619753D1*
X747306Y614793D1*
X747308Y600575D1*
X763812Y600562D1*
Y486940D1*
X607190D1*
Y511950D1*
X491188Y511944D1*
X484837Y505604D1*
X485084Y501762D1*
X491064Y505353D1*
X498444Y508411D1*
X506210Y510274D1*
X514173Y510902D1*
X522136Y510274D1*
X529903Y508411D1*
X537282Y505353D1*
X544092Y501180D1*
X550167Y495993D1*
X555353Y489919D1*
X559526Y483109D1*
X562584Y475730D1*
X564448Y467963D1*
X565075Y460000D1*
X564448Y452037D1*
X562584Y444270D1*
X559526Y436891D1*
X555353Y430081D1*
X550167Y424007D1*
X545675Y420067D1*
X550167Y416072D1*
X555353Y409997D1*
X559526Y403188D1*
X562584Y395808D1*
X564448Y388042D1*
X565075Y380079D1*
X564448Y372115D1*
X562584Y364349D1*
X559526Y356970D1*
X555353Y350160D1*
X550167Y344085D1*
X545675Y340146D1*
X550167Y336151D1*
X555353Y330076D1*
X558238Y325568D1*
X607168Y325558D1*
X607192Y350562D1*
X763814D1*
Y236940D1*
X607192D1*
Y261950D1*
X547814Y261944D1*
X540769Y256757D1*
X533652Y253130D1*
X526056Y250663D1*
X518167Y249413D1*
X510180D1*
X502290Y250663D1*
X494694Y253130D1*
X487577Y256757D1*
X481115Y261451D1*
X475467Y267100D1*
X470773Y273562D1*
X467146Y280678D1*
X464678Y288274D1*
X463429Y296164D1*
X463341Y298395D1*
X457361Y294804D1*
X449982Y291747D1*
X442215Y289883D1*
X434252Y289256D1*
X426289Y289883D1*
X418522Y291747D1*
X411143Y294804D1*
X404333Y298978D1*
X398259Y304164D1*
X393072Y310239D1*
X388899Y317049D1*
X385841Y324428D1*
X383978Y332194D1*
X383350Y340157D1*
X383978Y348121D1*
X385841Y355887D1*
X388899Y363266D1*
X393072Y370076D1*
X398259Y376151D1*
X402751Y380091D1*
X397333Y385035D1*
X392676Y390711D1*
X388883Y396999D1*
X386035Y403766D1*
X384189Y410874D1*
X383386Y418172D1*
X383640Y425510D1*
X384949Y432736D1*
X387283Y439698D1*
X390594Y446252D1*
X394815Y452260D1*
X399856Y457600D1*
X402724Y460039D1*
X407150Y205285D2*
X406289Y198014D1*
X404861Y190836D1*
X402874Y183790D1*
X400341Y176923D1*
X397276Y170276D1*
X393699Y163888D1*
X389633Y157802D1*
X385101Y152054D1*
X380133Y146678D1*
X374757Y141710D1*
X369009Y137178D1*
X362923Y133112D1*
X356535Y129535D1*
X349888Y126470D1*
X343021Y123937D1*
X335975Y121950D1*
X328797Y120522D1*
X321526Y119661D1*
X314213Y119374D1*
X306899Y119661D1*
X299629Y120522D1*
X292450Y121950D1*
X285404Y123937D1*
X278537Y126470D1*
X271890Y129535D1*
X265503Y133112D1*
X259416Y137178D1*
X253668Y141710D1*
X248293Y146678D1*
X243324Y152054D1*
X238793Y157802D1*
X234726Y163888D1*
X231150Y170276D1*
X228084Y176923D1*
X225551Y183790D1*
X223564Y190836D1*
X222136Y198014D1*
X221276Y205285D1*
X220988Y212598D1*
X221276Y219912D1*
X222136Y227182D1*
X223564Y234361D1*
X225551Y241407D1*
X228084Y248274D1*
X231150Y254921D1*
X234726Y261308D1*
X238793Y267395D1*
X243324Y273143D1*
X248293Y278518D1*
X253668Y283487D1*
X259416Y288018D1*
X265503Y292085D1*
X271890Y295661D1*
X278537Y298727D1*
X285404Y301260D1*
X292450Y303247D1*
X299629Y304675D1*
X306899Y305535D1*
X314213Y305823D1*
X321526Y305535D1*
X328797Y304675D1*
X335975Y303247D1*
X343021Y301260D1*
X349888Y298727D1*
X356535Y295661D1*
X362923Y292085D1*
X369009Y288018D1*
X374757Y283487D1*
X380133Y278518D1*
X385101Y273143D1*
X389633Y267395D1*
X393699Y261308D1*
X397276Y254921D1*
X400341Y248274D1*
X402874Y241407D1*
X404861Y234361D1*
X406289Y227182D1*
X407150Y219912D1*
X407437Y212598D1*
X407150Y205285D1*
X407142Y580167D2*
X406281Y572896D1*
X404853Y565718D1*
X402866Y558672D1*
X400333Y551804D1*
X397268Y545157D1*
X393692Y538770D1*
X389625Y532684D1*
X385093Y526936D1*
X380125Y521560D1*
X374749Y516592D1*
X369001Y512060D1*
X362915Y507993D1*
X356528Y504417D1*
X349881Y501352D1*
X343013Y498819D1*
X335967Y496832D1*
X328789Y495404D1*
X321518Y494543D1*
X314205Y494256D1*
X306891Y494543D1*
X299621Y495404D1*
X292442Y496832D1*
X285396Y498819D1*
X278529Y501352D1*
X271882Y504417D1*
X265495Y507993D1*
X259408Y512060D1*
X253660Y516592D1*
X248285Y521560D1*
X243316Y526936D1*
X238785Y532684D1*
X234718Y538770D1*
X231142Y545157D1*
X228076Y551804D1*
X225543Y558672D1*
X223556Y565718D1*
X222129Y572896D1*
X221268Y580167D1*
X220980Y587480D1*
X221268Y594794D1*
X222129Y602064D1*
X223556Y609243D1*
X225543Y616289D1*
X228076Y623156D1*
X231142Y629803D1*
X234718Y636190D1*
X238785Y642277D1*
X243316Y648025D1*
X248285Y653400D1*
X253660Y658369D1*
X259408Y662900D1*
X265495Y666967D1*
X271882Y670543D1*
X278529Y673609D1*
X285396Y676142D1*
X292442Y678129D1*
X299621Y679556D1*
X306891Y680417D1*
X314205Y680705D1*
X321518Y680417D1*
X328789Y679556D1*
X335967Y678129D1*
X343013Y676142D1*
X349881Y673609D1*
X356528Y670543D1*
X362915Y666967D1*
X369001Y662900D1*
X374749Y658369D1*
X380125Y653400D1*
X385093Y648025D1*
X389625Y642277D1*
X393692Y636190D1*
X397268Y629803D1*
X400333Y623156D1*
X402866Y616289D1*
X404853Y609243D1*
X406281Y602064D1*
X407142Y594794D1*
X407429Y587480D1*
X407142Y580167D1*
X407150Y905285D2*
X406289Y898014D1*
X404861Y890836D1*
X402874Y883790D1*
X400341Y876923D1*
X397276Y870276D1*
X393699Y863888D1*
X389633Y857802D1*
X385101Y852054D1*
X380133Y846678D1*
X374757Y841710D1*
X369009Y837178D1*
X362923Y833112D1*
X356535Y829535D1*
X349888Y826470D1*
X343021Y823937D1*
X335975Y821950D1*
X328797Y820522D1*
X321526Y819661D1*
X314213Y819374D1*
X306899Y819661D1*
X299629Y820522D1*
X292450Y821950D1*
X285404Y823937D1*
X278537Y826470D1*
X271890Y829535D1*
X265503Y833112D1*
X259416Y837178D1*
X253668Y841710D1*
X248293Y846678D1*
X243324Y852054D1*
X238793Y857802D1*
X234726Y863888D1*
X231150Y870276D1*
X228084Y876923D1*
X225551Y883790D1*
X223564Y890836D1*
X222136Y898014D1*
X221276Y905285D1*
X220988Y912598D1*
X221276Y919912D1*
X222136Y927182D1*
X223564Y934361D1*
X225551Y941407D1*
X228084Y948274D1*
X231150Y954921D1*
X234726Y961308D1*
X238793Y967395D1*
X243324Y973143D1*
X248293Y978518D1*
X253668Y983487D1*
X259416Y988018D1*
X265503Y992085D1*
X271890Y995661D1*
X278537Y998727D1*
X285404Y1001260D1*
X292450Y1003247D1*
X299629Y1004675D1*
X306899Y1005535D1*
X314213Y1005823D1*
X321526Y1005535D1*
X328797Y1004675D1*
X335975Y1003247D1*
X343021Y1001260D1*
X349888Y998727D1*
X356535Y995661D1*
X362923Y992085D1*
X369009Y988018D1*
X374757Y983487D1*
X380133Y978518D1*
X385101Y973143D1*
X389633Y967395D1*
X393699Y961308D1*
X397276Y954921D1*
X400341Y948274D1*
X402874Y941407D1*
X404861Y934361D1*
X406289Y927182D1*
X407150Y919912D1*
X407437Y912598D1*
X407150Y905285D1*
X407142Y1280167D2*
X406281Y1272896D1*
X404853Y1265718D1*
X402866Y1258672D1*
X400333Y1251804D1*
X397268Y1245157D1*
X393692Y1238770D1*
X389625Y1232684D1*
X385093Y1226936D1*
X380125Y1221560D1*
X374749Y1216592D1*
X369001Y1212060D1*
X362915Y1207993D1*
X356528Y1204417D1*
X349881Y1201352D1*
X343013Y1198819D1*
X335967Y1196832D1*
X328789Y1195404D1*
X321518Y1194543D1*
X314205Y1194256D1*
X306891Y1194543D1*
X299621Y1195404D1*
X292442Y1196832D1*
X285396Y1198819D1*
X278529Y1201352D1*
X271882Y1204417D1*
X265495Y1207993D1*
X259408Y1212060D1*
X253660Y1216592D1*
X248285Y1221560D1*
X243316Y1226936D1*
X238785Y1232684D1*
X234718Y1238770D1*
X231142Y1245157D1*
X228076Y1251804D1*
X225543Y1258672D1*
X223556Y1265718D1*
X222129Y1272896D1*
X221268Y1280167D1*
X220980Y1287480D1*
X221268Y1294794D1*
X222129Y1302064D1*
X223556Y1309243D1*
X225543Y1316289D1*
X228076Y1323156D1*
X231142Y1329803D1*
X234718Y1336190D1*
X238785Y1342277D1*
X243316Y1348025D1*
X248285Y1353400D1*
X253660Y1358369D1*
X259408Y1362900D1*
X265495Y1366967D1*
X271882Y1370543D1*
X278529Y1373609D1*
X285396Y1376142D1*
X292442Y1378129D1*
X299621Y1379556D1*
X306891Y1380417D1*
X314205Y1380705D1*
X321518Y1380417D1*
X328789Y1379556D1*
X335967Y1378129D1*
X343013Y1376142D1*
X349881Y1373609D1*
X356528Y1370543D1*
X362915Y1366967D1*
X369001Y1362900D1*
X374749Y1358369D1*
X380125Y1353400D1*
X385093Y1348025D1*
X389625Y1342277D1*
X393692Y1336190D1*
X397268Y1329803D1*
X400333Y1323156D1*
X402866Y1316289D1*
X404853Y1309243D1*
X406281Y1302064D1*
X407142Y1294794D1*
X407429Y1287480D1*
X407142Y1280167D1*
X1322707Y1118196D2*
X1317747Y1115171D1*
X1312080Y1112823D1*
X1306115Y1111391D1*
X1300000Y1110909D1*
X1293885Y1111391D1*
X1287920Y1112823D1*
X1282253Y1115171D1*
X1277024Y1118375D1*
X1272358Y1122358D1*
X1268375Y1127024D1*
X1265171Y1132253D1*
X1262823Y1137920D1*
X1261391Y1143885D1*
X1260909Y1150000D1*
X1261391Y1156115D1*
X1262823Y1162080D1*
X1265171Y1167747D1*
X1268375Y1172976D1*
X1272358Y1177642D1*
X1277024Y1181625D1*
X1282253Y1184829D1*
X1287920Y1187177D1*
X1293885Y1188609D1*
X1300000Y1189091D1*
X1306115Y1188609D1*
X1312080Y1187177D1*
X1317747Y1184829D1*
X1322707Y1181804D1*
X1480247Y1181807D1*
X1485255Y1184829D1*
X1490921Y1187177D1*
X1496886Y1188609D1*
X1503001Y1189091D1*
X1509117Y1188609D1*
X1515081Y1187177D1*
X1520748Y1184829D1*
X1525978Y1181625D1*
X1530643Y1177642D1*
X1534626Y1172976D1*
X1537831Y1167747D1*
X1540178Y1162080D1*
X1541610Y1156115D1*
X1542092Y1150000D1*
X1541610Y1143885D1*
X1540178Y1137920D1*
X1537831Y1132253D1*
X1534626Y1127024D1*
X1530643Y1122358D1*
X1525978Y1118375D1*
X1520748Y1115171D1*
X1515081Y1112823D1*
X1509117Y1111391D1*
X1503001Y1110909D1*
X1496886Y1111391D1*
X1490921Y1112823D1*
X1485255Y1115171D1*
X1480294Y1118196D1*
X1322755Y1118193D1*
X3842169Y2658197D2*
X3840823Y2649698D1*
X3838164Y2641514D1*
X3834257Y2633846D1*
X3829199Y2626886D1*
X3823114Y2620801D1*
X3816154Y2615743D1*
X3808486Y2611836D1*
X3800302Y2609177D1*
X3791803Y2607831D1*
X3783197D1*
X3774698Y2609177D1*
X3766514Y2611836D1*
X3758846Y2615743D1*
X3751886Y2620801D1*
X3745801Y2626886D1*
X3740743Y2633846D1*
X3736836Y2641514D1*
X3734177Y2649698D1*
X3732831Y2658197D1*
Y2666803D1*
X3734177Y2675302D1*
X3736836Y2683486D1*
X3740743Y2691154D1*
X3745801Y2698114D1*
X3751886Y2704199D1*
X3758846Y2709257D1*
X3766514Y2713164D1*
X3774698Y2715823D1*
X3783197Y2717169D1*
X3791803D1*
X3800302Y2715823D1*
X3808486Y2713164D1*
X3816154Y2709257D1*
X3823114Y2704199D1*
X3829199Y2698114D1*
X3834257Y2691154D1*
X3838164Y2683486D1*
X3840823Y2675302D1*
X3842169Y2666803D1*
Y2658197D1*
X2640681Y2161448D2*
X2535328Y2056094D1*
X2533929Y2050420D1*
X2531581Y2044753D1*
X2528377Y2039524D1*
X2524394Y2034858D1*
X2519728Y2030875D1*
X2514499Y2027671D1*
X2508832Y2025323D1*
X2502867Y2023891D1*
X2496752Y2023409D1*
X2490636Y2023891D1*
X2484672Y2025323D1*
X2479005Y2027671D1*
X2473776Y2030875D1*
X2469110Y2034858D1*
X2465127Y2039524D1*
X2461923Y2044753D1*
X2459575Y2050420D1*
X2458143Y2056385D1*
X2457661Y2062500D1*
X2458143Y2068615D1*
X2459575Y2074580D1*
X2461923Y2080247D1*
X2465127Y2085476D1*
X2469110Y2090142D1*
X2473776Y2094125D1*
X2479005Y2097329D1*
X2484672Y2099677D1*
X2490319Y2101046D1*
X2595676Y2206406D1*
X2597075Y2212080D1*
X2599423Y2217747D1*
X2602627Y2222976D1*
X2606610Y2227642D1*
X2611276Y2231625D1*
X2616505Y2234829D1*
X2622172Y2237177D1*
X2628136Y2238609D1*
X2634252Y2239091D1*
X2640367Y2238609D1*
X2646332Y2237177D1*
X2651999Y2234829D1*
X2657228Y2231625D1*
X2661894Y2227642D1*
X2665877Y2222976D1*
X2669081Y2217747D1*
X2671429Y2212080D1*
X2672861Y2206115D1*
X2673343Y2200000D1*
X2672861Y2193885D1*
X2671429Y2187920D1*
X2669081Y2182253D1*
X2665877Y2177024D1*
X2661894Y2172358D1*
X2657228Y2168375D1*
X2651999Y2165171D1*
X2646332Y2162823D1*
X2640685Y2161454D1*
X1596752Y3086054D2*
D15*
Y2976448D1*
X1541949Y3031251D2*
X1596752D1*
X1534252Y3292303D2*
Y3182697D1*
Y3237500D2*
X1589055D1*
X398720Y3579803D2*
Y3470197D1*
Y3525000D2*
X453524D1*
X2634252Y258740D2*
Y141260D1*
X1384252Y808740D2*
D14*
Y750000D1*
X1934252Y1108740D2*
D15*
Y991260D1*
Y1050000D2*
X1992992D1*
X3684252Y658740D2*
Y541260D1*
X3084252Y1258740D2*
Y1141260D1*
Y1200000D2*
X3142992D1*
X2784005Y658740D2*
Y541260D1*
Y600000D2*
X2842745D1*
X3684252Y1358740D2*
Y1241260D1*
X1925512Y3300000D2*
X2042992D1*
X2284252Y2750000D2*
Y2691260D1*
X2225512Y2750000D2*
X2342992D1*
X1384252Y3858740D2*
Y3741260D1*
X1284252Y3858740D2*
Y3741260D1*
X1225512Y3800000D2*
X1284252D1*
X884252Y1258740D2*
Y1200000D1*
X825512D2*
X942992D1*
X884252Y558740D2*
Y500000D1*
X825512D2*
X942992D1*
X84252Y3358739D2*
Y3241260D1*
X2584252Y3800000D2*
Y3741260D1*
Y3800000D2*
X2642992D1*
X2984252D2*
Y3741260D1*
Y3800000D2*
X3042992D1*
X3384252D2*
Y3741260D1*
Y3800000D2*
X3442992D1*
X3784252Y3858740D2*
Y3741260D1*
Y3800000D2*
X3842992D1*
X1084252Y3562677D2*
Y3437323D1*
Y3500000D2*
X1146929D1*
X1253003Y2679458D2*
Y2558041D1*
X1192294Y2618749D2*
X1313711D1*
X1265501Y3322776D2*
Y3202224D1*
X1205227Y3262500D2*
X1325777D1*
X383386Y420079D2*
X434252D1*
X383386Y1120079D2*
X434252D1*
X2484252Y2454803D2*
Y2345197D1*
X3184252Y1554803D2*
Y1445197D1*
X3784252Y1500000D2*
Y1445197D1*
Y1500000D2*
X3839055D1*
X3384252Y260433D2*
Y212157D1*
X3327476Y260433D2*
X3441028D1*
X1484252Y3500000D2*
Y3437323D1*
X715503Y1044276D2*
Y930724D1*
Y987500D2*
X763778D1*
X715503Y350526D2*
Y236975D1*
Y293751D2*
X763778D1*
X443751Y3027047D2*
Y2901693D1*
D18*
X684252Y3800000D3*
D19*
X784252D3*
D20*
X1596752Y3031251D3*
X1696752D3*
X1534252Y3237500D3*
X1434252D3*
D24*
X162500Y3525000D3*
D25*
X241240D3*
X319980D3*
X398720D3*
D18*
X984252Y3800000D3*
D19*
X1084252D3*
D18*
X2434252Y200000D3*
D19*
X2534252D3*
X2634252D3*
X2734252D3*
X2834252D3*
D18*
X1284252Y750000D3*
D19*
X1384252D3*
X1484252D3*
X1584252D3*
X1684252D3*
X1784252D3*
X1884252D3*
X1984252D3*
D18*
X1934252Y1050000D3*
D19*
X1834252D3*
X1734252D3*
X1634252D3*
X1534252D3*
X1434252D3*
X1334252D3*
D18*
X3084252Y600000D3*
D19*
X3184252D3*
X3284252D3*
X3384252D3*
X3484252D3*
X3584252D3*
X3684252D3*
X3784252D3*
D18*
X2784252Y1200000D3*
D19*
X2884252D3*
X2984252D3*
X3084252D3*
D18*
X2484005Y600000D3*
D19*
X2584005D3*
X2684005D3*
X2784005D3*
D18*
X3484252Y1300000D3*
D19*
X3584252D3*
X3684252D3*
X3784252D3*
D18*
X1984252Y3400000D3*
D19*
Y3300000D3*
Y3200000D3*
Y3100000D3*
Y3000000D3*
Y2900000D3*
Y2800000D3*
D18*
X2284252Y3050000D3*
D19*
Y2950000D3*
Y2850000D3*
Y2750000D3*
D18*
X2184252Y3800000D3*
D19*
X2084252D3*
X1984252D3*
X1884252D3*
X1784252D3*
X1684252D3*
X1584252D3*
X1484252D3*
X1384252D3*
X1284252D3*
D18*
X884252Y1000000D3*
D19*
Y1100000D3*
Y1200000D3*
D18*
Y300000D3*
D19*
Y400000D3*
Y500000D3*
D18*
X84252Y3300000D3*
D19*
X184252D3*
X284252D3*
X384252D3*
X484252D3*
D18*
X2384252Y3800000D3*
D19*
X2484252D3*
X2584252D3*
D18*
X2784252D3*
D19*
X2884252D3*
X2984252D3*
D18*
X3184252D3*
D19*
X3284252D3*
X3384252D3*
D18*
X3584252D3*
D19*
X3684252D3*
X3784252D3*
D26*
X884252Y3500000D3*
D27*
X984252D3*
X1084252D3*
D28*
X1253003Y2793751D3*
X1853003D3*
Y2618749D3*
X1253003D3*
D29*
X665501Y3262500D3*
D30*
X1265501D3*
D28*
X1084252Y750000D3*
Y150000D3*
Y750000D3*
Y1350000D3*
D31*
X434252Y500000D3*
Y420079D3*
Y340157D3*
X514173Y300157D3*
Y380079D3*
Y460000D3*
X434252Y1200000D3*
Y1120079D3*
Y1040157D3*
X514173Y1000157D3*
Y1080079D3*
Y1160000D3*
D20*
X3381251Y1406249D3*
X3487500D3*
D25*
X1984252Y2400000D3*
X2084252D3*
X2184252D3*
X2284252D3*
X2384252D3*
X2484252D3*
X2584252D3*
X2684252D3*
X2784252D3*
X2884252D3*
X2984252D3*
X3084252D3*
X3184252D3*
X3284252D3*
X3384252D3*
X3484252D3*
X3584252D3*
X3684252D3*
X3784252D3*
X1984252Y1500000D3*
X2084252D3*
X2184252D3*
X2284252D3*
X2384252D3*
X2484252D3*
X2584252D3*
X2684252D3*
X2784252D3*
X2884252D3*
X2984252D3*
X3084252D3*
X3184252D3*
X3284252D3*
X3384252D3*
X3484252D3*
X3584252D3*
X3684252D3*
X3784252D3*
D34*
X3384252Y260433D3*
Y320433D3*
D35*
Y290433D3*
D34*
X3184252Y2215000D3*
Y2275000D3*
D26*
X1384252Y3500000D3*
D27*
X1484252D3*
X1584252D3*
D36*
X715501Y543751D3*
X655501D3*
X715503Y987500D3*
X655503D3*
X715503Y293751D3*
X655503D3*
X715503Y1256249D3*
X655503D3*
D26*
X543751Y2964370D3*
D27*
X443751D3*
X343751D3*
D34*
X312500Y3631251D3*
Y3691251D3*
M02*
