G04 DipTrace 3.3.1.3*
G04 BottomMask.GBS*
%MOIN*%
G04 #@! TF.FileFunction,Soldermask,Bot*
G04 #@! TF.Part,Single*
%ADD18R,0.066929X0.066929*%
%ADD19C,0.066929*%
%ADD25C,0.059055*%
%ADD26R,0.074803X0.074803*%
%ADD27C,0.074803*%
%ADD34R,0.063X0.046*%
%ADD35R,0.008X0.025*%
%ADD36R,0.046X0.063*%
%ADD40C,0.161417*%
%ADD41C,0.135827*%
%ADD46C,0.066929*%
%ADD55C,0.077874*%
%ADD57C,0.077874*%
%ADD59C,0.07874*%
%ADD61C,0.082677*%
%ADD62R,0.082677X0.082677*%
%FSLAX26Y26*%
G04*
G70*
G90*
G75*
G01*
G04 BotMask*
%LPD*%
D26*
X684252Y3800000D3*
D27*
X784252D3*
D46*
X1596752Y3031251D3*
X1696752D3*
X1534252Y3237500D3*
X1434252D3*
D18*
X162500Y3525000D3*
D19*
X241240D3*
X319980D3*
X398720D3*
D26*
X984252Y3800000D3*
D27*
X1084252D3*
D40*
X807087Y2972441D3*
X3366142D3*
Y807087D3*
X807087D3*
D26*
X2434252Y200000D3*
D27*
X2534252D3*
X2634252D3*
X2734252D3*
X2834252D3*
D26*
X1284252Y750000D3*
D27*
X1384252D3*
X1484252D3*
X1584252D3*
X1684252D3*
X1784252D3*
X1884252D3*
X1984252D3*
D26*
X1934252Y1050000D3*
D27*
X1834252D3*
X1734252D3*
X1634252D3*
X1534252D3*
X1434252D3*
X1334252D3*
D26*
X3084252Y600000D3*
D27*
X3184252D3*
X3284252D3*
X3384252D3*
X3484252D3*
X3584252D3*
X3684252D3*
X3784252D3*
D26*
X2784252Y1200000D3*
D27*
X2884252D3*
X2984252D3*
X3084252D3*
D26*
X2484005Y600000D3*
D27*
X2584005D3*
X2684005D3*
X2784005D3*
D26*
X3484252Y1300000D3*
D27*
X3584252D3*
X3684252D3*
X3784252D3*
D26*
X1984252Y3400000D3*
D27*
Y3300000D3*
Y3200000D3*
Y3100000D3*
Y3000000D3*
Y2900000D3*
Y2800000D3*
D26*
X2284252Y3050000D3*
D27*
Y2950000D3*
Y2850000D3*
Y2750000D3*
D26*
X2184252Y3800000D3*
D27*
X2084252D3*
X1984252D3*
X1884252D3*
X1784252D3*
X1684252D3*
X1584252D3*
X1484252D3*
X1384252D3*
X1284252D3*
D26*
X884252Y1000000D3*
D27*
Y1100000D3*
Y1200000D3*
D26*
Y300000D3*
D27*
Y400000D3*
Y500000D3*
D26*
X84252Y3300000D3*
D27*
X184252D3*
X284252D3*
X384252D3*
X484252D3*
D26*
X2384252Y3800000D3*
D27*
X2484252D3*
X2584252D3*
D26*
X2784252D3*
D27*
X2884252D3*
X2984252D3*
D26*
X3184252D3*
D27*
X3284252D3*
X3384252D3*
D26*
X3584252D3*
D27*
X3684252D3*
X3784252D3*
D62*
X884252Y3500000D3*
D61*
X984252D3*
X1084252D3*
D59*
X1253003Y2793751D3*
X1853003D3*
Y2618749D3*
X1253003D3*
D57*
X665501Y3262500D3*
D55*
X1265501D3*
D59*
X1084252Y750000D3*
Y150000D3*
Y750000D3*
Y1350000D3*
D25*
X434252Y500000D3*
Y420079D3*
Y340157D3*
X514173Y300157D3*
Y380079D3*
Y460000D3*
D41*
X314213Y212598D3*
X314205Y587480D3*
D25*
X434252Y1200000D3*
Y1120079D3*
Y1040157D3*
X514173Y1000157D3*
Y1080079D3*
Y1160000D3*
D41*
X314213Y912598D3*
X314205Y1287480D3*
D46*
X3381251Y1406249D3*
X3487500D3*
D19*
X1984252Y2400000D3*
X2084252D3*
X2184252D3*
X2284252D3*
X2384252D3*
X2484252D3*
X2584252D3*
X2684252D3*
X2784252D3*
X2884252D3*
X2984252D3*
X3084252D3*
X3184252D3*
X3284252D3*
X3384252D3*
X3484252D3*
X3584252D3*
X3684252D3*
X3784252D3*
X1984252Y1500000D3*
X2084252D3*
X2184252D3*
X2284252D3*
X2384252D3*
X2484252D3*
X2584252D3*
X2684252D3*
X2784252D3*
X2884252D3*
X2984252D3*
X3084252D3*
X3184252D3*
X3284252D3*
X3384252D3*
X3484252D3*
X3584252D3*
X3684252D3*
X3784252D3*
G36*
X3348252Y287430D2*
X3420252D1*
Y293436D1*
X3348252D1*
Y287430D1*
G37*
D34*
X3384252Y260433D3*
Y320433D3*
D35*
Y290433D3*
G36*
X3148252Y2241997D2*
X3220252D1*
Y2248003D1*
X3148252D1*
Y2241997D1*
G37*
D34*
X3184252Y2215000D3*
Y2275000D3*
D62*
X1384252Y3500000D3*
D61*
X1484252D3*
X1584252D3*
G36*
X688504Y507751D2*
X682498D1*
Y579751D1*
X688504D1*
Y507751D1*
G37*
D36*
X715501Y543751D3*
X655501D3*
G36*
X688506Y951500D2*
X682500D1*
Y1023500D1*
X688506D1*
Y951500D1*
G37*
D36*
X715503Y987500D3*
X655503D3*
G36*
X688506Y257751D2*
X682500D1*
Y329751D1*
X688506D1*
Y257751D1*
G37*
D36*
X715503Y293751D3*
X655503D3*
G36*
X688506Y1220249D2*
X682500D1*
Y1292249D1*
X688506D1*
Y1220249D1*
G37*
D36*
X715503Y1256249D3*
X655503D3*
D62*
X543751Y2964370D3*
D61*
X443751D3*
X343751D3*
G36*
X276500Y3658248D2*
X348500D1*
Y3664254D1*
X276500D1*
Y3658248D1*
G37*
D34*
X312500Y3631251D3*
Y3691251D3*
M02*
