M48
INCH
T01C0.0126
T02C0.0354
T03C0.0433
T04C0.046
T05C0.046
T06C0.0461
T07C0.1358
T08C0.1614
%
T01
X+024938Y+025188
X+024750Y+026438
X+027438Y+023438
X+027843Y+022000
X+026343Y+022000
X+024968Y+020625
X+026062Y+017688
X+025655Y+016250
X+023593Y+016250
X+022780Y+016750
X+023343Y+017250
X+023688Y+017688
X+023343Y+014500
X+026750Y+012438
X+027063Y+012125
X+023937Y+006000
X+027625Y+004688
X+027812Y+004188
X+017343Y+013375
X+015030Y+011500
X+013000Y+011500
X+007155Y+006375
X+021593Y+022250
X+033312Y+017625
X+012905Y+035750
X+005688Y+031000
X+004000Y+037125
X+002563Y+037750
T02
X+015968Y+030313
X+016968Y+030313
X+015343Y+032375
X+014343Y+032375
X+019843Y+024000
X+020843Y+024000
X+021843Y+024000
X+022843Y+024000
X+023843Y+024000
X+024843Y+024000
X+025843Y+024000
X+026843Y+024000
X+027843Y+024000
X+028843Y+024000
X+029843Y+024000
X+030843Y+024000
X+031843Y+024000
X+032843Y+024000
X+033843Y+024000
X+034843Y+024000
X+035843Y+024000
X+036843Y+024000
X+037843Y+024000
X+037875Y+026625
X+037843Y+015000
X+036843Y+015000
X+035843Y+015000
X+034843Y+015000
X+034875Y+014062
X+033813Y+014062
X+033843Y+015000
X+032843Y+015000
X+031843Y+015000
X+030843Y+015000
X+029843Y+015000
X+028843Y+015000
X+027843Y+015000
X+026843Y+015000
X+025843Y+015000
X+024843Y+015000
X+023843Y+015000
X+022843Y+015000
X+021843Y+015000
X+020843Y+015000
X+019843Y+015000
X+005142Y+011600
X+005142Y+010801
X+005142Y+010002
X+004343Y+010402
X+004343Y+011201
X+004343Y+012000
X+004343Y+005000
X+004343Y+004201
X+004343Y+003402
X+005142Y+003801
X+005142Y+004600
X+005142Y+003002
X+003987Y+035250
X+003200Y+035250
X+002412Y+035250
X+001625Y+035250
T03
X+006843Y+038000
X+007843Y+038000
X+009843Y+038000
X+010843Y+038000
X+012843Y+038000
X+013843Y+038000
X+014843Y+038000
X+015843Y+038000
X+016843Y+038000
X+017843Y+038000
X+018843Y+038000
X+019843Y+038000
X+020843Y+038000
X+021843Y+038000
X+023843Y+038000
X+024843Y+038000
X+025843Y+038000
X+027843Y+038000
X+028843Y+038000
X+029843Y+038000
X+031843Y+038000
X+032843Y+038000
X+033843Y+038000
X+035843Y+038000
X+036843Y+038000
X+037843Y+038000
X+022843Y+030500
X+022843Y+029500
X+022843Y+028500
X+022843Y+027500
X+019843Y+028000
X+019843Y+029000
X+019843Y+030000
X+019843Y+031000
X+019843Y+032000
X+019843Y+033000
X+019843Y+034000
X+015843Y+035000
X+014843Y+035000
X+013843Y+035000
X+010843Y+035000
X+009843Y+035000
X+008843Y+035000
X+004843Y+033000
X+003843Y+033000
X+002843Y+033000
X+001843Y+033000
X+000843Y+033000
X+003438Y+029644
X+004438Y+029644
X+005438Y+029644
X+008843Y+012000
X+008843Y+011000
X+008843Y+010000
X+013343Y+010500
X+014343Y+010500
X+015343Y+010500
X+016343Y+010500
X+017343Y+010500
X+018343Y+010500
X+019343Y+010500
X+018843Y+007500
X+019843Y+007500
X+017843Y+007500
X+016843Y+007500
X+015843Y+007500
X+014843Y+007500
X+013843Y+007500
X+012843Y+007500
X+008843Y+005000
X+008843Y+004000
X+008843Y+003000
X+024343Y+002000
X+025343Y+002000
X+026343Y+002000
X+027343Y+002000
X+028343Y+002000
X+027840Y+006000
X+026840Y+006000
X+025840Y+006000
X+024840Y+006000
X+030843Y+006000
X+031843Y+006000
X+032843Y+006000
X+033843Y+006000
X+034843Y+006000
X+035843Y+006000
X+036843Y+006000
X+037843Y+006000
X+037843Y+013000
X+036843Y+013000
X+035843Y+013000
X+034843Y+013000
X+030843Y+012000
X+029843Y+012000
X+028843Y+012000
X+027843Y+012000
T04
X+012655Y+032625
T05
X+006655Y+032625
T06
X+012530Y+027938
X+012530Y+026187
X+018530Y+026187
X+018530Y+027938
X+010843Y+013500
X+010843Y+007500
X+010843Y+001500
T07
X+003142Y+002126
X+003142Y+005875
X+003142Y+009126
X+003142Y+012875
T08
X+008071Y+029724
X+008071Y+008071
X+033661Y+008071
X+033661Y+029724
T00
M30
